%TF.GenerationSoftware,KiCad,Pcbnew,(5.1.6-0-10_14)*%
%TF.CreationDate,2020-10-21T19:08:18-07:00*%
%TF.ProjectId,NAU7802_Dual_24-bit_ADC,4e415537-3830-4325-9f44-75616c5f3234,v00*%
%TF.SameCoordinates,Original*%
%TF.FileFunction,Paste,Top*%
%TF.FilePolarity,Positive*%
%FSLAX46Y46*%
G04 Gerber Fmt 4.6, Leading zero omitted, Abs format (unit mm)*
G04 Created by KiCad (PCBNEW (5.1.6-0-10_14)) date 2020-10-21 19:08:18*
%MOMM*%
%LPD*%
G01*
G04 APERTURE LIST*
G04 APERTURE END LIST*
%TO.C,U1*%
G36*
G01*
X147343000Y-99465000D02*
X147043000Y-99465000D01*
G75*
G02*
X146893000Y-99315000I0J150000D01*
G01*
X146893000Y-97665000D01*
G75*
G02*
X147043000Y-97515000I150000J0D01*
G01*
X147343000Y-97515000D01*
G75*
G02*
X147493000Y-97665000I0J-150000D01*
G01*
X147493000Y-99315000D01*
G75*
G02*
X147343000Y-99465000I-150000J0D01*
G01*
G37*
G36*
G01*
X148613000Y-99465000D02*
X148313000Y-99465000D01*
G75*
G02*
X148163000Y-99315000I0J150000D01*
G01*
X148163000Y-97665000D01*
G75*
G02*
X148313000Y-97515000I150000J0D01*
G01*
X148613000Y-97515000D01*
G75*
G02*
X148763000Y-97665000I0J-150000D01*
G01*
X148763000Y-99315000D01*
G75*
G02*
X148613000Y-99465000I-150000J0D01*
G01*
G37*
G36*
G01*
X149883000Y-99465000D02*
X149583000Y-99465000D01*
G75*
G02*
X149433000Y-99315000I0J150000D01*
G01*
X149433000Y-97665000D01*
G75*
G02*
X149583000Y-97515000I150000J0D01*
G01*
X149883000Y-97515000D01*
G75*
G02*
X150033000Y-97665000I0J-150000D01*
G01*
X150033000Y-99315000D01*
G75*
G02*
X149883000Y-99465000I-150000J0D01*
G01*
G37*
G36*
G01*
X151153000Y-99465000D02*
X150853000Y-99465000D01*
G75*
G02*
X150703000Y-99315000I0J150000D01*
G01*
X150703000Y-97665000D01*
G75*
G02*
X150853000Y-97515000I150000J0D01*
G01*
X151153000Y-97515000D01*
G75*
G02*
X151303000Y-97665000I0J-150000D01*
G01*
X151303000Y-99315000D01*
G75*
G02*
X151153000Y-99465000I-150000J0D01*
G01*
G37*
G36*
G01*
X152423000Y-99465000D02*
X152123000Y-99465000D01*
G75*
G02*
X151973000Y-99315000I0J150000D01*
G01*
X151973000Y-97665000D01*
G75*
G02*
X152123000Y-97515000I150000J0D01*
G01*
X152423000Y-97515000D01*
G75*
G02*
X152573000Y-97665000I0J-150000D01*
G01*
X152573000Y-99315000D01*
G75*
G02*
X152423000Y-99465000I-150000J0D01*
G01*
G37*
G36*
G01*
X153693000Y-99465000D02*
X153393000Y-99465000D01*
G75*
G02*
X153243000Y-99315000I0J150000D01*
G01*
X153243000Y-97665000D01*
G75*
G02*
X153393000Y-97515000I150000J0D01*
G01*
X153693000Y-97515000D01*
G75*
G02*
X153843000Y-97665000I0J-150000D01*
G01*
X153843000Y-99315000D01*
G75*
G02*
X153693000Y-99465000I-150000J0D01*
G01*
G37*
G36*
G01*
X154963000Y-99465000D02*
X154663000Y-99465000D01*
G75*
G02*
X154513000Y-99315000I0J150000D01*
G01*
X154513000Y-97665000D01*
G75*
G02*
X154663000Y-97515000I150000J0D01*
G01*
X154963000Y-97515000D01*
G75*
G02*
X155113000Y-97665000I0J-150000D01*
G01*
X155113000Y-99315000D01*
G75*
G02*
X154963000Y-99465000I-150000J0D01*
G01*
G37*
G36*
G01*
X156233000Y-99465000D02*
X155933000Y-99465000D01*
G75*
G02*
X155783000Y-99315000I0J150000D01*
G01*
X155783000Y-97665000D01*
G75*
G02*
X155933000Y-97515000I150000J0D01*
G01*
X156233000Y-97515000D01*
G75*
G02*
X156383000Y-97665000I0J-150000D01*
G01*
X156383000Y-99315000D01*
G75*
G02*
X156233000Y-99465000I-150000J0D01*
G01*
G37*
G36*
G01*
X156233000Y-104415000D02*
X155933000Y-104415000D01*
G75*
G02*
X155783000Y-104265000I0J150000D01*
G01*
X155783000Y-102615000D01*
G75*
G02*
X155933000Y-102465000I150000J0D01*
G01*
X156233000Y-102465000D01*
G75*
G02*
X156383000Y-102615000I0J-150000D01*
G01*
X156383000Y-104265000D01*
G75*
G02*
X156233000Y-104415000I-150000J0D01*
G01*
G37*
G36*
G01*
X154963000Y-104415000D02*
X154663000Y-104415000D01*
G75*
G02*
X154513000Y-104265000I0J150000D01*
G01*
X154513000Y-102615000D01*
G75*
G02*
X154663000Y-102465000I150000J0D01*
G01*
X154963000Y-102465000D01*
G75*
G02*
X155113000Y-102615000I0J-150000D01*
G01*
X155113000Y-104265000D01*
G75*
G02*
X154963000Y-104415000I-150000J0D01*
G01*
G37*
G36*
G01*
X153693000Y-104415000D02*
X153393000Y-104415000D01*
G75*
G02*
X153243000Y-104265000I0J150000D01*
G01*
X153243000Y-102615000D01*
G75*
G02*
X153393000Y-102465000I150000J0D01*
G01*
X153693000Y-102465000D01*
G75*
G02*
X153843000Y-102615000I0J-150000D01*
G01*
X153843000Y-104265000D01*
G75*
G02*
X153693000Y-104415000I-150000J0D01*
G01*
G37*
G36*
G01*
X152423000Y-104415000D02*
X152123000Y-104415000D01*
G75*
G02*
X151973000Y-104265000I0J150000D01*
G01*
X151973000Y-102615000D01*
G75*
G02*
X152123000Y-102465000I150000J0D01*
G01*
X152423000Y-102465000D01*
G75*
G02*
X152573000Y-102615000I0J-150000D01*
G01*
X152573000Y-104265000D01*
G75*
G02*
X152423000Y-104415000I-150000J0D01*
G01*
G37*
G36*
G01*
X151153000Y-104415000D02*
X150853000Y-104415000D01*
G75*
G02*
X150703000Y-104265000I0J150000D01*
G01*
X150703000Y-102615000D01*
G75*
G02*
X150853000Y-102465000I150000J0D01*
G01*
X151153000Y-102465000D01*
G75*
G02*
X151303000Y-102615000I0J-150000D01*
G01*
X151303000Y-104265000D01*
G75*
G02*
X151153000Y-104415000I-150000J0D01*
G01*
G37*
G36*
G01*
X149883000Y-104415000D02*
X149583000Y-104415000D01*
G75*
G02*
X149433000Y-104265000I0J150000D01*
G01*
X149433000Y-102615000D01*
G75*
G02*
X149583000Y-102465000I150000J0D01*
G01*
X149883000Y-102465000D01*
G75*
G02*
X150033000Y-102615000I0J-150000D01*
G01*
X150033000Y-104265000D01*
G75*
G02*
X149883000Y-104415000I-150000J0D01*
G01*
G37*
G36*
G01*
X148613000Y-104415000D02*
X148313000Y-104415000D01*
G75*
G02*
X148163000Y-104265000I0J150000D01*
G01*
X148163000Y-102615000D01*
G75*
G02*
X148313000Y-102465000I150000J0D01*
G01*
X148613000Y-102465000D01*
G75*
G02*
X148763000Y-102615000I0J-150000D01*
G01*
X148763000Y-104265000D01*
G75*
G02*
X148613000Y-104415000I-150000J0D01*
G01*
G37*
G36*
G01*
X147343000Y-104415000D02*
X147043000Y-104415000D01*
G75*
G02*
X146893000Y-104265000I0J150000D01*
G01*
X146893000Y-102615000D01*
G75*
G02*
X147043000Y-102465000I150000J0D01*
G01*
X147343000Y-102465000D01*
G75*
G02*
X147493000Y-102615000I0J-150000D01*
G01*
X147493000Y-104265000D01*
G75*
G02*
X147343000Y-104415000I-150000J0D01*
G01*
G37*
%TD*%
%TO.C,C1*%
G36*
G01*
X160476250Y-106327000D02*
X159563750Y-106327000D01*
G75*
G02*
X159320000Y-106083250I0J243750D01*
G01*
X159320000Y-105595750D01*
G75*
G02*
X159563750Y-105352000I243750J0D01*
G01*
X160476250Y-105352000D01*
G75*
G02*
X160720000Y-105595750I0J-243750D01*
G01*
X160720000Y-106083250D01*
G75*
G02*
X160476250Y-106327000I-243750J0D01*
G01*
G37*
G36*
G01*
X160476250Y-104452000D02*
X159563750Y-104452000D01*
G75*
G02*
X159320000Y-104208250I0J243750D01*
G01*
X159320000Y-103720750D01*
G75*
G02*
X159563750Y-103477000I243750J0D01*
G01*
X160476250Y-103477000D01*
G75*
G02*
X160720000Y-103720750I0J-243750D01*
G01*
X160720000Y-104208250D01*
G75*
G02*
X160476250Y-104452000I-243750J0D01*
G01*
G37*
%TD*%
%TO.C,C2*%
G36*
G01*
X160476250Y-100642000D02*
X159563750Y-100642000D01*
G75*
G02*
X159320000Y-100398250I0J243750D01*
G01*
X159320000Y-99910750D01*
G75*
G02*
X159563750Y-99667000I243750J0D01*
G01*
X160476250Y-99667000D01*
G75*
G02*
X160720000Y-99910750I0J-243750D01*
G01*
X160720000Y-100398250D01*
G75*
G02*
X160476250Y-100642000I-243750J0D01*
G01*
G37*
G36*
G01*
X160476250Y-102517000D02*
X159563750Y-102517000D01*
G75*
G02*
X159320000Y-102273250I0J243750D01*
G01*
X159320000Y-101785750D01*
G75*
G02*
X159563750Y-101542000I243750J0D01*
G01*
X160476250Y-101542000D01*
G75*
G02*
X160720000Y-101785750I0J-243750D01*
G01*
X160720000Y-102273250D01*
G75*
G02*
X160476250Y-102517000I-243750J0D01*
G01*
G37*
%TD*%
%TO.C,C3*%
G36*
G01*
X140005750Y-108400000D02*
X140918250Y-108400000D01*
G75*
G02*
X141162000Y-108643750I0J-243750D01*
G01*
X141162000Y-109131250D01*
G75*
G02*
X140918250Y-109375000I-243750J0D01*
G01*
X140005750Y-109375000D01*
G75*
G02*
X139762000Y-109131250I0J243750D01*
G01*
X139762000Y-108643750D01*
G75*
G02*
X140005750Y-108400000I243750J0D01*
G01*
G37*
G36*
G01*
X140005750Y-106525000D02*
X140918250Y-106525000D01*
G75*
G02*
X141162000Y-106768750I0J-243750D01*
G01*
X141162000Y-107256250D01*
G75*
G02*
X140918250Y-107500000I-243750J0D01*
G01*
X140005750Y-107500000D01*
G75*
G02*
X139762000Y-107256250I0J243750D01*
G01*
X139762000Y-106768750D01*
G75*
G02*
X140005750Y-106525000I243750J0D01*
G01*
G37*
%TD*%
%TO.C,C4*%
G36*
G01*
X136703750Y-106525000D02*
X137616250Y-106525000D01*
G75*
G02*
X137860000Y-106768750I0J-243750D01*
G01*
X137860000Y-107256250D01*
G75*
G02*
X137616250Y-107500000I-243750J0D01*
G01*
X136703750Y-107500000D01*
G75*
G02*
X136460000Y-107256250I0J243750D01*
G01*
X136460000Y-106768750D01*
G75*
G02*
X136703750Y-106525000I243750J0D01*
G01*
G37*
G36*
G01*
X136703750Y-108400000D02*
X137616250Y-108400000D01*
G75*
G02*
X137860000Y-108643750I0J-243750D01*
G01*
X137860000Y-109131250D01*
G75*
G02*
X137616250Y-109375000I-243750J0D01*
G01*
X136703750Y-109375000D01*
G75*
G02*
X136460000Y-109131250I0J243750D01*
G01*
X136460000Y-108643750D01*
G75*
G02*
X136703750Y-108400000I243750J0D01*
G01*
G37*
%TD*%
%TO.C,C5*%
G36*
G01*
X168598000Y-109676250D02*
X168598000Y-108763750D01*
G75*
G02*
X168841750Y-108520000I243750J0D01*
G01*
X169329250Y-108520000D01*
G75*
G02*
X169573000Y-108763750I0J-243750D01*
G01*
X169573000Y-109676250D01*
G75*
G02*
X169329250Y-109920000I-243750J0D01*
G01*
X168841750Y-109920000D01*
G75*
G02*
X168598000Y-109676250I0J243750D01*
G01*
G37*
G36*
G01*
X166723000Y-109676250D02*
X166723000Y-108763750D01*
G75*
G02*
X166966750Y-108520000I243750J0D01*
G01*
X167454250Y-108520000D01*
G75*
G02*
X167698000Y-108763750I0J-243750D01*
G01*
X167698000Y-109676250D01*
G75*
G02*
X167454250Y-109920000I-243750J0D01*
G01*
X166966750Y-109920000D01*
G75*
G02*
X166723000Y-109676250I0J243750D01*
G01*
G37*
%TD*%
%TO.C,C6*%
G36*
G01*
X165255000Y-108763750D02*
X165255000Y-109676250D01*
G75*
G02*
X165011250Y-109920000I-243750J0D01*
G01*
X164523750Y-109920000D01*
G75*
G02*
X164280000Y-109676250I0J243750D01*
G01*
X164280000Y-108763750D01*
G75*
G02*
X164523750Y-108520000I243750J0D01*
G01*
X165011250Y-108520000D01*
G75*
G02*
X165255000Y-108763750I0J-243750D01*
G01*
G37*
G36*
G01*
X163380000Y-108763750D02*
X163380000Y-109676250D01*
G75*
G02*
X163136250Y-109920000I-243750J0D01*
G01*
X162648750Y-109920000D01*
G75*
G02*
X162405000Y-109676250I0J243750D01*
G01*
X162405000Y-108763750D01*
G75*
G02*
X162648750Y-108520000I243750J0D01*
G01*
X163136250Y-108520000D01*
G75*
G02*
X163380000Y-108763750I0J-243750D01*
G01*
G37*
%TD*%
%TO.C,C7*%
G36*
G01*
X159357000Y-97992250D02*
X159357000Y-97079750D01*
G75*
G02*
X159600750Y-96836000I243750J0D01*
G01*
X160088250Y-96836000D01*
G75*
G02*
X160332000Y-97079750I0J-243750D01*
G01*
X160332000Y-97992250D01*
G75*
G02*
X160088250Y-98236000I-243750J0D01*
G01*
X159600750Y-98236000D01*
G75*
G02*
X159357000Y-97992250I0J243750D01*
G01*
G37*
G36*
G01*
X161232000Y-97992250D02*
X161232000Y-97079750D01*
G75*
G02*
X161475750Y-96836000I243750J0D01*
G01*
X161963250Y-96836000D01*
G75*
G02*
X162207000Y-97079750I0J-243750D01*
G01*
X162207000Y-97992250D01*
G75*
G02*
X161963250Y-98236000I-243750J0D01*
G01*
X161475750Y-98236000D01*
G75*
G02*
X161232000Y-97992250I0J243750D01*
G01*
G37*
%TD*%
%TO.C,D1*%
G36*
G01*
X131925000Y-96976250D02*
X131925000Y-96063750D01*
G75*
G02*
X132168750Y-95820000I243750J0D01*
G01*
X132656250Y-95820000D01*
G75*
G02*
X132900000Y-96063750I0J-243750D01*
G01*
X132900000Y-96976250D01*
G75*
G02*
X132656250Y-97220000I-243750J0D01*
G01*
X132168750Y-97220000D01*
G75*
G02*
X131925000Y-96976250I0J243750D01*
G01*
G37*
G36*
G01*
X133800000Y-96976250D02*
X133800000Y-96063750D01*
G75*
G02*
X134043750Y-95820000I243750J0D01*
G01*
X134531250Y-95820000D01*
G75*
G02*
X134775000Y-96063750I0J-243750D01*
G01*
X134775000Y-96976250D01*
G75*
G02*
X134531250Y-97220000I-243750J0D01*
G01*
X134043750Y-97220000D01*
G75*
G02*
X133800000Y-96976250I0J243750D01*
G01*
G37*
%TD*%
%TO.C,J1*%
G36*
G01*
X172640000Y-105100000D02*
X169640000Y-105100000D01*
G75*
G02*
X169390000Y-104850000I0J250000D01*
G01*
X169390000Y-104350000D01*
G75*
G02*
X169640000Y-104100000I250000J0D01*
G01*
X172640000Y-104100000D01*
G75*
G02*
X172890000Y-104350000I0J-250000D01*
G01*
X172890000Y-104850000D01*
G75*
G02*
X172640000Y-105100000I-250000J0D01*
G01*
G37*
G36*
G01*
X172640000Y-103100000D02*
X169640000Y-103100000D01*
G75*
G02*
X169390000Y-102850000I0J250000D01*
G01*
X169390000Y-102350000D01*
G75*
G02*
X169640000Y-102100000I250000J0D01*
G01*
X172640000Y-102100000D01*
G75*
G02*
X172890000Y-102350000I0J-250000D01*
G01*
X172890000Y-102850000D01*
G75*
G02*
X172640000Y-103100000I-250000J0D01*
G01*
G37*
G36*
G01*
X172640000Y-101100000D02*
X169640000Y-101100000D01*
G75*
G02*
X169390000Y-100850000I0J250000D01*
G01*
X169390000Y-100350000D01*
G75*
G02*
X169640000Y-100100000I250000J0D01*
G01*
X172640000Y-100100000D01*
G75*
G02*
X172890000Y-100350000I0J-250000D01*
G01*
X172890000Y-100850000D01*
G75*
G02*
X172640000Y-101100000I-250000J0D01*
G01*
G37*
G36*
G01*
X172640000Y-99100000D02*
X169640000Y-99100000D01*
G75*
G02*
X169390000Y-98850000I0J250000D01*
G01*
X169390000Y-98350000D01*
G75*
G02*
X169640000Y-98100000I250000J0D01*
G01*
X172640000Y-98100000D01*
G75*
G02*
X172890000Y-98350000I0J-250000D01*
G01*
X172890000Y-98850000D01*
G75*
G02*
X172640000Y-99100000I-250000J0D01*
G01*
G37*
G36*
G01*
X178340000Y-107700000D02*
X175440000Y-107700000D01*
G75*
G02*
X175190000Y-107450000I0J250000D01*
G01*
X175190000Y-106450000D01*
G75*
G02*
X175440000Y-106200000I250000J0D01*
G01*
X178340000Y-106200000D01*
G75*
G02*
X178590000Y-106450000I0J-250000D01*
G01*
X178590000Y-107450000D01*
G75*
G02*
X178340000Y-107700000I-250000J0D01*
G01*
G37*
G36*
G01*
X178340000Y-97000000D02*
X175440000Y-97000000D01*
G75*
G02*
X175190000Y-96750000I0J250000D01*
G01*
X175190000Y-95750000D01*
G75*
G02*
X175440000Y-95500000I250000J0D01*
G01*
X178340000Y-95500000D01*
G75*
G02*
X178590000Y-95750000I0J-250000D01*
G01*
X178590000Y-96750000D01*
G75*
G02*
X178340000Y-97000000I-250000J0D01*
G01*
G37*
%TD*%
%TO.C,J3*%
G36*
G01*
X132947000Y-99800000D02*
X134197000Y-99800000D01*
G75*
G02*
X134347000Y-99950000I0J-150000D01*
G01*
X134347000Y-100250000D01*
G75*
G02*
X134197000Y-100400000I-150000J0D01*
G01*
X132947000Y-100400000D01*
G75*
G02*
X132797000Y-100250000I0J150000D01*
G01*
X132797000Y-99950000D01*
G75*
G02*
X132947000Y-99800000I150000J0D01*
G01*
G37*
G36*
G01*
X132947000Y-100800000D02*
X134197000Y-100800000D01*
G75*
G02*
X134347000Y-100950000I0J-150000D01*
G01*
X134347000Y-101250000D01*
G75*
G02*
X134197000Y-101400000I-150000J0D01*
G01*
X132947000Y-101400000D01*
G75*
G02*
X132797000Y-101250000I0J150000D01*
G01*
X132797000Y-100950000D01*
G75*
G02*
X132947000Y-100800000I150000J0D01*
G01*
G37*
G36*
G01*
X132947000Y-101800000D02*
X134197000Y-101800000D01*
G75*
G02*
X134347000Y-101950000I0J-150000D01*
G01*
X134347000Y-102250000D01*
G75*
G02*
X134197000Y-102400000I-150000J0D01*
G01*
X132947000Y-102400000D01*
G75*
G02*
X132797000Y-102250000I0J150000D01*
G01*
X132797000Y-101950000D01*
G75*
G02*
X132947000Y-101800000I150000J0D01*
G01*
G37*
G36*
G01*
X132947000Y-102800000D02*
X134197000Y-102800000D01*
G75*
G02*
X134347000Y-102950000I0J-150000D01*
G01*
X134347000Y-103250000D01*
G75*
G02*
X134197000Y-103400000I-150000J0D01*
G01*
X132947000Y-103400000D01*
G75*
G02*
X132797000Y-103250000I0J150000D01*
G01*
X132797000Y-102950000D01*
G75*
G02*
X132947000Y-102800000I150000J0D01*
G01*
G37*
G36*
G01*
X129046999Y-98200000D02*
X130347001Y-98200000D01*
G75*
G02*
X130597000Y-98449999I0J-249999D01*
G01*
X130597000Y-99150001D01*
G75*
G02*
X130347001Y-99400000I-249999J0D01*
G01*
X129046999Y-99400000D01*
G75*
G02*
X128797000Y-99150001I0J249999D01*
G01*
X128797000Y-98449999D01*
G75*
G02*
X129046999Y-98200000I249999J0D01*
G01*
G37*
G36*
G01*
X129046999Y-103800000D02*
X130347001Y-103800000D01*
G75*
G02*
X130597000Y-104049999I0J-249999D01*
G01*
X130597000Y-104750001D01*
G75*
G02*
X130347001Y-105000000I-249999J0D01*
G01*
X129046999Y-105000000D01*
G75*
G02*
X128797000Y-104750001I0J249999D01*
G01*
X128797000Y-104049999D01*
G75*
G02*
X129046999Y-103800000I249999J0D01*
G01*
G37*
%TD*%
%TO.C,R1*%
G36*
G01*
X163675000Y-105866250D02*
X163675000Y-104953750D01*
G75*
G02*
X163918750Y-104710000I243750J0D01*
G01*
X164406250Y-104710000D01*
G75*
G02*
X164650000Y-104953750I0J-243750D01*
G01*
X164650000Y-105866250D01*
G75*
G02*
X164406250Y-106110000I-243750J0D01*
G01*
X163918750Y-106110000D01*
G75*
G02*
X163675000Y-105866250I0J243750D01*
G01*
G37*
G36*
G01*
X165550000Y-105866250D02*
X165550000Y-104953750D01*
G75*
G02*
X165793750Y-104710000I243750J0D01*
G01*
X166281250Y-104710000D01*
G75*
G02*
X166525000Y-104953750I0J-243750D01*
G01*
X166525000Y-105866250D01*
G75*
G02*
X166281250Y-106110000I-243750J0D01*
G01*
X165793750Y-106110000D01*
G75*
G02*
X165550000Y-105866250I0J243750D01*
G01*
G37*
%TD*%
%TO.C,R2*%
G36*
G01*
X165550000Y-103580250D02*
X165550000Y-102667750D01*
G75*
G02*
X165793750Y-102424000I243750J0D01*
G01*
X166281250Y-102424000D01*
G75*
G02*
X166525000Y-102667750I0J-243750D01*
G01*
X166525000Y-103580250D01*
G75*
G02*
X166281250Y-103824000I-243750J0D01*
G01*
X165793750Y-103824000D01*
G75*
G02*
X165550000Y-103580250I0J243750D01*
G01*
G37*
G36*
G01*
X163675000Y-103580250D02*
X163675000Y-102667750D01*
G75*
G02*
X163918750Y-102424000I243750J0D01*
G01*
X164406250Y-102424000D01*
G75*
G02*
X164650000Y-102667750I0J-243750D01*
G01*
X164650000Y-103580250D01*
G75*
G02*
X164406250Y-103824000I-243750J0D01*
G01*
X163918750Y-103824000D01*
G75*
G02*
X163675000Y-103580250I0J243750D01*
G01*
G37*
%TD*%
%TO.C,R3*%
G36*
G01*
X163675000Y-100278250D02*
X163675000Y-99365750D01*
G75*
G02*
X163918750Y-99122000I243750J0D01*
G01*
X164406250Y-99122000D01*
G75*
G02*
X164650000Y-99365750I0J-243750D01*
G01*
X164650000Y-100278250D01*
G75*
G02*
X164406250Y-100522000I-243750J0D01*
G01*
X163918750Y-100522000D01*
G75*
G02*
X163675000Y-100278250I0J243750D01*
G01*
G37*
G36*
G01*
X165550000Y-100278250D02*
X165550000Y-99365750D01*
G75*
G02*
X165793750Y-99122000I243750J0D01*
G01*
X166281250Y-99122000D01*
G75*
G02*
X166525000Y-99365750I0J-243750D01*
G01*
X166525000Y-100278250D01*
G75*
G02*
X166281250Y-100522000I-243750J0D01*
G01*
X165793750Y-100522000D01*
G75*
G02*
X165550000Y-100278250I0J243750D01*
G01*
G37*
%TD*%
%TO.C,R4*%
G36*
G01*
X165550000Y-97992250D02*
X165550000Y-97079750D01*
G75*
G02*
X165793750Y-96836000I243750J0D01*
G01*
X166281250Y-96836000D01*
G75*
G02*
X166525000Y-97079750I0J-243750D01*
G01*
X166525000Y-97992250D01*
G75*
G02*
X166281250Y-98236000I-243750J0D01*
G01*
X165793750Y-98236000D01*
G75*
G02*
X165550000Y-97992250I0J243750D01*
G01*
G37*
G36*
G01*
X163675000Y-97992250D02*
X163675000Y-97079750D01*
G75*
G02*
X163918750Y-96836000I243750J0D01*
G01*
X164406250Y-96836000D01*
G75*
G02*
X164650000Y-97079750I0J-243750D01*
G01*
X164650000Y-97992250D01*
G75*
G02*
X164406250Y-98236000I-243750J0D01*
G01*
X163918750Y-98236000D01*
G75*
G02*
X163675000Y-97992250I0J243750D01*
G01*
G37*
%TD*%
%TO.C,R5*%
G36*
G01*
X136703750Y-95857000D02*
X137616250Y-95857000D01*
G75*
G02*
X137860000Y-96100750I0J-243750D01*
G01*
X137860000Y-96588250D01*
G75*
G02*
X137616250Y-96832000I-243750J0D01*
G01*
X136703750Y-96832000D01*
G75*
G02*
X136460000Y-96588250I0J243750D01*
G01*
X136460000Y-96100750D01*
G75*
G02*
X136703750Y-95857000I243750J0D01*
G01*
G37*
G36*
G01*
X136703750Y-97732000D02*
X137616250Y-97732000D01*
G75*
G02*
X137860000Y-97975750I0J-243750D01*
G01*
X137860000Y-98463250D01*
G75*
G02*
X137616250Y-98707000I-243750J0D01*
G01*
X136703750Y-98707000D01*
G75*
G02*
X136460000Y-98463250I0J243750D01*
G01*
X136460000Y-97975750D01*
G75*
G02*
X136703750Y-97732000I243750J0D01*
G01*
G37*
%TD*%
%TO.C,R6*%
G36*
G01*
X143053750Y-95857000D02*
X143966250Y-95857000D01*
G75*
G02*
X144210000Y-96100750I0J-243750D01*
G01*
X144210000Y-96588250D01*
G75*
G02*
X143966250Y-96832000I-243750J0D01*
G01*
X143053750Y-96832000D01*
G75*
G02*
X142810000Y-96588250I0J243750D01*
G01*
X142810000Y-96100750D01*
G75*
G02*
X143053750Y-95857000I243750J0D01*
G01*
G37*
G36*
G01*
X143053750Y-97732000D02*
X143966250Y-97732000D01*
G75*
G02*
X144210000Y-97975750I0J-243750D01*
G01*
X144210000Y-98463250D01*
G75*
G02*
X143966250Y-98707000I-243750J0D01*
G01*
X143053750Y-98707000D01*
G75*
G02*
X142810000Y-98463250I0J243750D01*
G01*
X142810000Y-97975750D01*
G75*
G02*
X143053750Y-97732000I243750J0D01*
G01*
G37*
%TD*%
%TO.C,R7*%
G36*
G01*
X140005750Y-97732000D02*
X140918250Y-97732000D01*
G75*
G02*
X141162000Y-97975750I0J-243750D01*
G01*
X141162000Y-98463250D01*
G75*
G02*
X140918250Y-98707000I-243750J0D01*
G01*
X140005750Y-98707000D01*
G75*
G02*
X139762000Y-98463250I0J243750D01*
G01*
X139762000Y-97975750D01*
G75*
G02*
X140005750Y-97732000I243750J0D01*
G01*
G37*
G36*
G01*
X140005750Y-95857000D02*
X140918250Y-95857000D01*
G75*
G02*
X141162000Y-96100750I0J-243750D01*
G01*
X141162000Y-96588250D01*
G75*
G02*
X140918250Y-96832000I-243750J0D01*
G01*
X140005750Y-96832000D01*
G75*
G02*
X139762000Y-96588250I0J243750D01*
G01*
X139762000Y-96100750D01*
G75*
G02*
X140005750Y-95857000I243750J0D01*
G01*
G37*
%TD*%
M02*
