M48
; DRILL file {KiCad (5.1.6-0-10_14)} date Thursday, November 26, 2020 at 05:35:30 PM
; FORMAT={-:-/ absolute / inch / decimal}
; #@! TF.CreationDate,2020-11-26T17:35:30-08:00
; #@! TF.GenerationSoftware,Kicad,Pcbnew,(5.1.6-0-10_14)
; #@! TF.FileFunction,Plated,1,2,PTH
FMAT,2
INCH
T1C0.0130
T2C0.0200
T3C0.0394
%
G90
G05
T1
X5.13Y-4.0
X5.3Y-3.7
X5.3Y-4.3
X5.48Y-3.98
X5.53Y-3.69
X5.53Y-3.98
X5.65Y-3.72
X5.72Y-4.21
X5.72Y-4.33
X5.85Y-4.21
X5.85Y-4.33
X5.89Y-3.72
X5.94Y-3.69
X5.9952Y-3.7648
X6.083Y-3.767
X6.2Y-3.995
X6.39Y-4.02
X6.54Y-4.23
X6.59Y-3.84
X6.6Y-3.88
X6.8Y-4.3
X6.85Y-3.7
X6.87Y-4.12
X7.0Y-3.9
X7.0Y-4.1
T2
X5.4Y-3.98
T3
X5.3Y-4.4
X5.4Y-4.4
X5.5Y-4.4
X5.6Y-4.4
X5.7Y-3.6
X5.7Y-4.4
X5.8Y-3.6
X5.8Y-4.4
X5.9Y-3.6
X5.9Y-4.4
X6.0Y-3.6
X6.0Y-4.4
X6.1Y-3.6
X6.1Y-4.4
X6.2Y-3.6
X6.2Y-4.4
X6.3Y-3.6
X6.3Y-4.4
X6.4Y-3.6
X6.4Y-4.4
X6.5Y-3.6
X6.5Y-4.4
X6.6Y-3.6
X6.6Y-4.4
X6.7Y-3.6
X6.7Y-4.4
X6.8Y-3.6
X6.8Y-4.4
T0
M30
