%TF.GenerationSoftware,KiCad,Pcbnew,(5.1.6-0-10_14)*%
%TF.CreationDate,2020-11-28T13:39:01-08:00*%
%TF.ProjectId,NAU7802_Dual_24-bit_ADC,4e415537-3830-4325-9f44-75616c5f3234,v02*%
%TF.SameCoordinates,Original*%
%TF.FileFunction,Soldermask,Top*%
%TF.FilePolarity,Negative*%
%FSLAX46Y46*%
G04 Gerber Fmt 4.6, Leading zero omitted, Abs format (unit mm)*
G04 Created by KiCad (PCBNEW (5.1.6-0-10_14)) date 2020-11-28 13:39:01*
%MOMM*%
%LPD*%
G01*
G04 APERTURE LIST*
%ADD10C,1.801600*%
%ADD11C,2.601600*%
G04 APERTURE END LIST*
%TO.C,U1*%
G36*
G01*
X147368400Y-99515800D02*
X147017600Y-99515800D01*
G75*
G02*
X146842200Y-99340400I0J175400D01*
G01*
X146842200Y-97639600D01*
G75*
G02*
X147017600Y-97464200I175400J0D01*
G01*
X147368400Y-97464200D01*
G75*
G02*
X147543800Y-97639600I0J-175400D01*
G01*
X147543800Y-99340400D01*
G75*
G02*
X147368400Y-99515800I-175400J0D01*
G01*
G37*
G36*
G01*
X148638400Y-99515800D02*
X148287600Y-99515800D01*
G75*
G02*
X148112200Y-99340400I0J175400D01*
G01*
X148112200Y-97639600D01*
G75*
G02*
X148287600Y-97464200I175400J0D01*
G01*
X148638400Y-97464200D01*
G75*
G02*
X148813800Y-97639600I0J-175400D01*
G01*
X148813800Y-99340400D01*
G75*
G02*
X148638400Y-99515800I-175400J0D01*
G01*
G37*
G36*
G01*
X149908400Y-99515800D02*
X149557600Y-99515800D01*
G75*
G02*
X149382200Y-99340400I0J175400D01*
G01*
X149382200Y-97639600D01*
G75*
G02*
X149557600Y-97464200I175400J0D01*
G01*
X149908400Y-97464200D01*
G75*
G02*
X150083800Y-97639600I0J-175400D01*
G01*
X150083800Y-99340400D01*
G75*
G02*
X149908400Y-99515800I-175400J0D01*
G01*
G37*
G36*
G01*
X151178400Y-99515800D02*
X150827600Y-99515800D01*
G75*
G02*
X150652200Y-99340400I0J175400D01*
G01*
X150652200Y-97639600D01*
G75*
G02*
X150827600Y-97464200I175400J0D01*
G01*
X151178400Y-97464200D01*
G75*
G02*
X151353800Y-97639600I0J-175400D01*
G01*
X151353800Y-99340400D01*
G75*
G02*
X151178400Y-99515800I-175400J0D01*
G01*
G37*
G36*
G01*
X152448400Y-99515800D02*
X152097600Y-99515800D01*
G75*
G02*
X151922200Y-99340400I0J175400D01*
G01*
X151922200Y-97639600D01*
G75*
G02*
X152097600Y-97464200I175400J0D01*
G01*
X152448400Y-97464200D01*
G75*
G02*
X152623800Y-97639600I0J-175400D01*
G01*
X152623800Y-99340400D01*
G75*
G02*
X152448400Y-99515800I-175400J0D01*
G01*
G37*
G36*
G01*
X153718400Y-99515800D02*
X153367600Y-99515800D01*
G75*
G02*
X153192200Y-99340400I0J175400D01*
G01*
X153192200Y-97639600D01*
G75*
G02*
X153367600Y-97464200I175400J0D01*
G01*
X153718400Y-97464200D01*
G75*
G02*
X153893800Y-97639600I0J-175400D01*
G01*
X153893800Y-99340400D01*
G75*
G02*
X153718400Y-99515800I-175400J0D01*
G01*
G37*
G36*
G01*
X154988400Y-99515800D02*
X154637600Y-99515800D01*
G75*
G02*
X154462200Y-99340400I0J175400D01*
G01*
X154462200Y-97639600D01*
G75*
G02*
X154637600Y-97464200I175400J0D01*
G01*
X154988400Y-97464200D01*
G75*
G02*
X155163800Y-97639600I0J-175400D01*
G01*
X155163800Y-99340400D01*
G75*
G02*
X154988400Y-99515800I-175400J0D01*
G01*
G37*
G36*
G01*
X156258400Y-99515800D02*
X155907600Y-99515800D01*
G75*
G02*
X155732200Y-99340400I0J175400D01*
G01*
X155732200Y-97639600D01*
G75*
G02*
X155907600Y-97464200I175400J0D01*
G01*
X156258400Y-97464200D01*
G75*
G02*
X156433800Y-97639600I0J-175400D01*
G01*
X156433800Y-99340400D01*
G75*
G02*
X156258400Y-99515800I-175400J0D01*
G01*
G37*
G36*
G01*
X156258400Y-104465800D02*
X155907600Y-104465800D01*
G75*
G02*
X155732200Y-104290400I0J175400D01*
G01*
X155732200Y-102589600D01*
G75*
G02*
X155907600Y-102414200I175400J0D01*
G01*
X156258400Y-102414200D01*
G75*
G02*
X156433800Y-102589600I0J-175400D01*
G01*
X156433800Y-104290400D01*
G75*
G02*
X156258400Y-104465800I-175400J0D01*
G01*
G37*
G36*
G01*
X154988400Y-104465800D02*
X154637600Y-104465800D01*
G75*
G02*
X154462200Y-104290400I0J175400D01*
G01*
X154462200Y-102589600D01*
G75*
G02*
X154637600Y-102414200I175400J0D01*
G01*
X154988400Y-102414200D01*
G75*
G02*
X155163800Y-102589600I0J-175400D01*
G01*
X155163800Y-104290400D01*
G75*
G02*
X154988400Y-104465800I-175400J0D01*
G01*
G37*
G36*
G01*
X153718400Y-104465800D02*
X153367600Y-104465800D01*
G75*
G02*
X153192200Y-104290400I0J175400D01*
G01*
X153192200Y-102589600D01*
G75*
G02*
X153367600Y-102414200I175400J0D01*
G01*
X153718400Y-102414200D01*
G75*
G02*
X153893800Y-102589600I0J-175400D01*
G01*
X153893800Y-104290400D01*
G75*
G02*
X153718400Y-104465800I-175400J0D01*
G01*
G37*
G36*
G01*
X152448400Y-104465800D02*
X152097600Y-104465800D01*
G75*
G02*
X151922200Y-104290400I0J175400D01*
G01*
X151922200Y-102589600D01*
G75*
G02*
X152097600Y-102414200I175400J0D01*
G01*
X152448400Y-102414200D01*
G75*
G02*
X152623800Y-102589600I0J-175400D01*
G01*
X152623800Y-104290400D01*
G75*
G02*
X152448400Y-104465800I-175400J0D01*
G01*
G37*
G36*
G01*
X151178400Y-104465800D02*
X150827600Y-104465800D01*
G75*
G02*
X150652200Y-104290400I0J175400D01*
G01*
X150652200Y-102589600D01*
G75*
G02*
X150827600Y-102414200I175400J0D01*
G01*
X151178400Y-102414200D01*
G75*
G02*
X151353800Y-102589600I0J-175400D01*
G01*
X151353800Y-104290400D01*
G75*
G02*
X151178400Y-104465800I-175400J0D01*
G01*
G37*
G36*
G01*
X149908400Y-104465800D02*
X149557600Y-104465800D01*
G75*
G02*
X149382200Y-104290400I0J175400D01*
G01*
X149382200Y-102589600D01*
G75*
G02*
X149557600Y-102414200I175400J0D01*
G01*
X149908400Y-102414200D01*
G75*
G02*
X150083800Y-102589600I0J-175400D01*
G01*
X150083800Y-104290400D01*
G75*
G02*
X149908400Y-104465800I-175400J0D01*
G01*
G37*
G36*
G01*
X148638400Y-104465800D02*
X148287600Y-104465800D01*
G75*
G02*
X148112200Y-104290400I0J175400D01*
G01*
X148112200Y-102589600D01*
G75*
G02*
X148287600Y-102414200I175400J0D01*
G01*
X148638400Y-102414200D01*
G75*
G02*
X148813800Y-102589600I0J-175400D01*
G01*
X148813800Y-104290400D01*
G75*
G02*
X148638400Y-104465800I-175400J0D01*
G01*
G37*
G36*
G01*
X147368400Y-104465800D02*
X147017600Y-104465800D01*
G75*
G02*
X146842200Y-104290400I0J175400D01*
G01*
X146842200Y-102589600D01*
G75*
G02*
X147017600Y-102414200I175400J0D01*
G01*
X147368400Y-102414200D01*
G75*
G02*
X147543800Y-102589600I0J-175400D01*
G01*
X147543800Y-104290400D01*
G75*
G02*
X147368400Y-104465800I-175400J0D01*
G01*
G37*
%TD*%
D10*
%TO.C,M1*%
X172720000Y-91440000D03*
X170180000Y-91440000D03*
X167640000Y-91440000D03*
X165100000Y-91440000D03*
X162560000Y-91440000D03*
X160020000Y-91440000D03*
X157480000Y-91440000D03*
X154940000Y-91440000D03*
X152400000Y-91440000D03*
X149860000Y-91440000D03*
X147320000Y-91440000D03*
X144780000Y-91440000D03*
X172720000Y-111760000D03*
X170180000Y-111760000D03*
X167640000Y-111760000D03*
X165100000Y-111760000D03*
X162560000Y-111760000D03*
X160020000Y-111760000D03*
X157480000Y-111760000D03*
X154940000Y-111760000D03*
X152400000Y-111760000D03*
X149860000Y-111760000D03*
X147320000Y-111760000D03*
X144780000Y-111760000D03*
X142240000Y-111760000D03*
X139700000Y-111760000D03*
X137160000Y-111760000D03*
X134620000Y-111760000D03*
%TD*%
D11*
%TO.C,REF\u002A\u002A*%
X130810000Y-110490000D03*
%TD*%
%TO.C,REF\u002A\u002A*%
X176530000Y-92710000D03*
%TD*%
%TO.C,REF*%
X176530000Y-110490000D03*
%TD*%
%TO.C,REF\u002A\u002A*%
X130810000Y-92710000D03*
%TD*%
%TO.C,C1*%
G36*
G01*
X160554350Y-103299200D02*
X161517650Y-103299200D01*
G75*
G02*
X161786800Y-103568350I0J-269150D01*
G01*
X161786800Y-104106650D01*
G75*
G02*
X161517650Y-104375800I-269150J0D01*
G01*
X160554350Y-104375800D01*
G75*
G02*
X160285200Y-104106650I0J269150D01*
G01*
X160285200Y-103568350D01*
G75*
G02*
X160554350Y-103299200I269150J0D01*
G01*
G37*
G36*
G01*
X160554350Y-105174200D02*
X161517650Y-105174200D01*
G75*
G02*
X161786800Y-105443350I0J-269150D01*
G01*
X161786800Y-105981650D01*
G75*
G02*
X161517650Y-106250800I-269150J0D01*
G01*
X160554350Y-106250800D01*
G75*
G02*
X160285200Y-105981650I0J269150D01*
G01*
X160285200Y-105443350D01*
G75*
G02*
X160554350Y-105174200I269150J0D01*
G01*
G37*
%TD*%
%TO.C,C2*%
G36*
G01*
X161517650Y-100438800D02*
X160554350Y-100438800D01*
G75*
G02*
X160285200Y-100169650I0J269150D01*
G01*
X160285200Y-99631350D01*
G75*
G02*
X160554350Y-99362200I269150J0D01*
G01*
X161517650Y-99362200D01*
G75*
G02*
X161786800Y-99631350I0J-269150D01*
G01*
X161786800Y-100169650D01*
G75*
G02*
X161517650Y-100438800I-269150J0D01*
G01*
G37*
G36*
G01*
X161517650Y-102313800D02*
X160554350Y-102313800D01*
G75*
G02*
X160285200Y-102044650I0J269150D01*
G01*
X160285200Y-101506350D01*
G75*
G02*
X160554350Y-101237200I269150J0D01*
G01*
X161517650Y-101237200D01*
G75*
G02*
X161786800Y-101506350I0J-269150D01*
G01*
X161786800Y-102044650D01*
G75*
G02*
X161517650Y-102313800I-269150J0D01*
G01*
G37*
%TD*%
%TO.C,C3*%
G36*
G01*
X139980350Y-108349200D02*
X140943650Y-108349200D01*
G75*
G02*
X141212800Y-108618350I0J-269150D01*
G01*
X141212800Y-109156650D01*
G75*
G02*
X140943650Y-109425800I-269150J0D01*
G01*
X139980350Y-109425800D01*
G75*
G02*
X139711200Y-109156650I0J269150D01*
G01*
X139711200Y-108618350D01*
G75*
G02*
X139980350Y-108349200I269150J0D01*
G01*
G37*
G36*
G01*
X139980350Y-106474200D02*
X140943650Y-106474200D01*
G75*
G02*
X141212800Y-106743350I0J-269150D01*
G01*
X141212800Y-107281650D01*
G75*
G02*
X140943650Y-107550800I-269150J0D01*
G01*
X139980350Y-107550800D01*
G75*
G02*
X139711200Y-107281650I0J269150D01*
G01*
X139711200Y-106743350D01*
G75*
G02*
X139980350Y-106474200I269150J0D01*
G01*
G37*
%TD*%
%TO.C,C4*%
G36*
G01*
X136678350Y-106474200D02*
X137641650Y-106474200D01*
G75*
G02*
X137910800Y-106743350I0J-269150D01*
G01*
X137910800Y-107281650D01*
G75*
G02*
X137641650Y-107550800I-269150J0D01*
G01*
X136678350Y-107550800D01*
G75*
G02*
X136409200Y-107281650I0J269150D01*
G01*
X136409200Y-106743350D01*
G75*
G02*
X136678350Y-106474200I269150J0D01*
G01*
G37*
G36*
G01*
X136678350Y-108349200D02*
X137641650Y-108349200D01*
G75*
G02*
X137910800Y-108618350I0J-269150D01*
G01*
X137910800Y-109156650D01*
G75*
G02*
X137641650Y-109425800I-269150J0D01*
G01*
X136678350Y-109425800D01*
G75*
G02*
X136409200Y-109156650I0J269150D01*
G01*
X136409200Y-108618350D01*
G75*
G02*
X136678350Y-108349200I269150J0D01*
G01*
G37*
%TD*%
%TO.C,C5*%
G36*
G01*
X168547200Y-109701650D02*
X168547200Y-108738350D01*
G75*
G02*
X168816350Y-108469200I269150J0D01*
G01*
X169354650Y-108469200D01*
G75*
G02*
X169623800Y-108738350I0J-269150D01*
G01*
X169623800Y-109701650D01*
G75*
G02*
X169354650Y-109970800I-269150J0D01*
G01*
X168816350Y-109970800D01*
G75*
G02*
X168547200Y-109701650I0J269150D01*
G01*
G37*
G36*
G01*
X166672200Y-109701650D02*
X166672200Y-108738350D01*
G75*
G02*
X166941350Y-108469200I269150J0D01*
G01*
X167479650Y-108469200D01*
G75*
G02*
X167748800Y-108738350I0J-269150D01*
G01*
X167748800Y-109701650D01*
G75*
G02*
X167479650Y-109970800I-269150J0D01*
G01*
X166941350Y-109970800D01*
G75*
G02*
X166672200Y-109701650I0J269150D01*
G01*
G37*
%TD*%
%TO.C,C6*%
G36*
G01*
X165305800Y-108738350D02*
X165305800Y-109701650D01*
G75*
G02*
X165036650Y-109970800I-269150J0D01*
G01*
X164498350Y-109970800D01*
G75*
G02*
X164229200Y-109701650I0J269150D01*
G01*
X164229200Y-108738350D01*
G75*
G02*
X164498350Y-108469200I269150J0D01*
G01*
X165036650Y-108469200D01*
G75*
G02*
X165305800Y-108738350I0J-269150D01*
G01*
G37*
G36*
G01*
X163430800Y-108738350D02*
X163430800Y-109701650D01*
G75*
G02*
X163161650Y-109970800I-269150J0D01*
G01*
X162623350Y-109970800D01*
G75*
G02*
X162354200Y-109701650I0J269150D01*
G01*
X162354200Y-108738350D01*
G75*
G02*
X162623350Y-108469200I269150J0D01*
G01*
X163161650Y-108469200D01*
G75*
G02*
X163430800Y-108738350I0J-269150D01*
G01*
G37*
%TD*%
%TO.C,C7*%
G36*
G01*
X159306200Y-98017650D02*
X159306200Y-97054350D01*
G75*
G02*
X159575350Y-96785200I269150J0D01*
G01*
X160113650Y-96785200D01*
G75*
G02*
X160382800Y-97054350I0J-269150D01*
G01*
X160382800Y-98017650D01*
G75*
G02*
X160113650Y-98286800I-269150J0D01*
G01*
X159575350Y-98286800D01*
G75*
G02*
X159306200Y-98017650I0J269150D01*
G01*
G37*
G36*
G01*
X161181200Y-98017650D02*
X161181200Y-97054350D01*
G75*
G02*
X161450350Y-96785200I269150J0D01*
G01*
X161988650Y-96785200D01*
G75*
G02*
X162257800Y-97054350I0J-269150D01*
G01*
X162257800Y-98017650D01*
G75*
G02*
X161988650Y-98286800I-269150J0D01*
G01*
X161450350Y-98286800D01*
G75*
G02*
X161181200Y-98017650I0J269150D01*
G01*
G37*
%TD*%
%TO.C,D1*%
G36*
G01*
X131874200Y-97001650D02*
X131874200Y-96038350D01*
G75*
G02*
X132143350Y-95769200I269150J0D01*
G01*
X132681650Y-95769200D01*
G75*
G02*
X132950800Y-96038350I0J-269150D01*
G01*
X132950800Y-97001650D01*
G75*
G02*
X132681650Y-97270800I-269150J0D01*
G01*
X132143350Y-97270800D01*
G75*
G02*
X131874200Y-97001650I0J269150D01*
G01*
G37*
G36*
G01*
X133749200Y-97001650D02*
X133749200Y-96038350D01*
G75*
G02*
X134018350Y-95769200I269150J0D01*
G01*
X134556650Y-95769200D01*
G75*
G02*
X134825800Y-96038350I0J-269150D01*
G01*
X134825800Y-97001650D01*
G75*
G02*
X134556650Y-97270800I-269150J0D01*
G01*
X134018350Y-97270800D01*
G75*
G02*
X133749200Y-97001650I0J269150D01*
G01*
G37*
%TD*%
%TO.C,J1*%
G36*
G01*
X172665400Y-105150800D02*
X169614600Y-105150800D01*
G75*
G02*
X169339200Y-104875400I0J275400D01*
G01*
X169339200Y-104324600D01*
G75*
G02*
X169614600Y-104049200I275400J0D01*
G01*
X172665400Y-104049200D01*
G75*
G02*
X172940800Y-104324600I0J-275400D01*
G01*
X172940800Y-104875400D01*
G75*
G02*
X172665400Y-105150800I-275400J0D01*
G01*
G37*
G36*
G01*
X172665400Y-103150800D02*
X169614600Y-103150800D01*
G75*
G02*
X169339200Y-102875400I0J275400D01*
G01*
X169339200Y-102324600D01*
G75*
G02*
X169614600Y-102049200I275400J0D01*
G01*
X172665400Y-102049200D01*
G75*
G02*
X172940800Y-102324600I0J-275400D01*
G01*
X172940800Y-102875400D01*
G75*
G02*
X172665400Y-103150800I-275400J0D01*
G01*
G37*
G36*
G01*
X172665400Y-101150800D02*
X169614600Y-101150800D01*
G75*
G02*
X169339200Y-100875400I0J275400D01*
G01*
X169339200Y-100324600D01*
G75*
G02*
X169614600Y-100049200I275400J0D01*
G01*
X172665400Y-100049200D01*
G75*
G02*
X172940800Y-100324600I0J-275400D01*
G01*
X172940800Y-100875400D01*
G75*
G02*
X172665400Y-101150800I-275400J0D01*
G01*
G37*
G36*
G01*
X172665400Y-99150800D02*
X169614600Y-99150800D01*
G75*
G02*
X169339200Y-98875400I0J275400D01*
G01*
X169339200Y-98324600D01*
G75*
G02*
X169614600Y-98049200I275400J0D01*
G01*
X172665400Y-98049200D01*
G75*
G02*
X172940800Y-98324600I0J-275400D01*
G01*
X172940800Y-98875400D01*
G75*
G02*
X172665400Y-99150800I-275400J0D01*
G01*
G37*
G36*
G01*
X178373867Y-107750800D02*
X175406133Y-107750800D01*
G75*
G02*
X175139200Y-107483867I0J266933D01*
G01*
X175139200Y-106416133D01*
G75*
G02*
X175406133Y-106149200I266933J0D01*
G01*
X178373867Y-106149200D01*
G75*
G02*
X178640800Y-106416133I0J-266933D01*
G01*
X178640800Y-107483867D01*
G75*
G02*
X178373867Y-107750800I-266933J0D01*
G01*
G37*
G36*
G01*
X178373867Y-97050800D02*
X175406133Y-97050800D01*
G75*
G02*
X175139200Y-96783867I0J266933D01*
G01*
X175139200Y-95716133D01*
G75*
G02*
X175406133Y-95449200I266933J0D01*
G01*
X178373867Y-95449200D01*
G75*
G02*
X178640800Y-95716133I0J-266933D01*
G01*
X178640800Y-96783867D01*
G75*
G02*
X178373867Y-97050800I-266933J0D01*
G01*
G37*
%TD*%
%TO.C,J3*%
G36*
G01*
X132921600Y-99749200D02*
X134222400Y-99749200D01*
G75*
G02*
X134397800Y-99924600I0J-175400D01*
G01*
X134397800Y-100275400D01*
G75*
G02*
X134222400Y-100450800I-175400J0D01*
G01*
X132921600Y-100450800D01*
G75*
G02*
X132746200Y-100275400I0J175400D01*
G01*
X132746200Y-99924600D01*
G75*
G02*
X132921600Y-99749200I175400J0D01*
G01*
G37*
G36*
G01*
X132921600Y-100749200D02*
X134222400Y-100749200D01*
G75*
G02*
X134397800Y-100924600I0J-175400D01*
G01*
X134397800Y-101275400D01*
G75*
G02*
X134222400Y-101450800I-175400J0D01*
G01*
X132921600Y-101450800D01*
G75*
G02*
X132746200Y-101275400I0J175400D01*
G01*
X132746200Y-100924600D01*
G75*
G02*
X132921600Y-100749200I175400J0D01*
G01*
G37*
G36*
G01*
X132921600Y-101749200D02*
X134222400Y-101749200D01*
G75*
G02*
X134397800Y-101924600I0J-175400D01*
G01*
X134397800Y-102275400D01*
G75*
G02*
X134222400Y-102450800I-175400J0D01*
G01*
X132921600Y-102450800D01*
G75*
G02*
X132746200Y-102275400I0J175400D01*
G01*
X132746200Y-101924600D01*
G75*
G02*
X132921600Y-101749200I175400J0D01*
G01*
G37*
G36*
G01*
X132921600Y-102749200D02*
X134222400Y-102749200D01*
G75*
G02*
X134397800Y-102924600I0J-175400D01*
G01*
X134397800Y-103275400D01*
G75*
G02*
X134222400Y-103450800I-175400J0D01*
G01*
X132921600Y-103450800D01*
G75*
G02*
X132746200Y-103275400I0J175400D01*
G01*
X132746200Y-102924600D01*
G75*
G02*
X132921600Y-102749200I175400J0D01*
G01*
G37*
G36*
G01*
X129017366Y-98149200D02*
X130376634Y-98149200D01*
G75*
G02*
X130647800Y-98420366I0J-271166D01*
G01*
X130647800Y-99179634D01*
G75*
G02*
X130376634Y-99450800I-271166J0D01*
G01*
X129017366Y-99450800D01*
G75*
G02*
X128746200Y-99179634I0J271166D01*
G01*
X128746200Y-98420366D01*
G75*
G02*
X129017366Y-98149200I271166J0D01*
G01*
G37*
G36*
G01*
X129017366Y-103749200D02*
X130376634Y-103749200D01*
G75*
G02*
X130647800Y-104020366I0J-271166D01*
G01*
X130647800Y-104779634D01*
G75*
G02*
X130376634Y-105050800I-271166J0D01*
G01*
X129017366Y-105050800D01*
G75*
G02*
X128746200Y-104779634I0J271166D01*
G01*
X128746200Y-104020366D01*
G75*
G02*
X129017366Y-103749200I271166J0D01*
G01*
G37*
%TD*%
%TO.C,R1*%
G36*
G01*
X163624200Y-103605650D02*
X163624200Y-102642350D01*
G75*
G02*
X163893350Y-102373200I269150J0D01*
G01*
X164431650Y-102373200D01*
G75*
G02*
X164700800Y-102642350I0J-269150D01*
G01*
X164700800Y-103605650D01*
G75*
G02*
X164431650Y-103874800I-269150J0D01*
G01*
X163893350Y-103874800D01*
G75*
G02*
X163624200Y-103605650I0J269150D01*
G01*
G37*
G36*
G01*
X165499200Y-103605650D02*
X165499200Y-102642350D01*
G75*
G02*
X165768350Y-102373200I269150J0D01*
G01*
X166306650Y-102373200D01*
G75*
G02*
X166575800Y-102642350I0J-269150D01*
G01*
X166575800Y-103605650D01*
G75*
G02*
X166306650Y-103874800I-269150J0D01*
G01*
X165768350Y-103874800D01*
G75*
G02*
X165499200Y-103605650I0J269150D01*
G01*
G37*
%TD*%
%TO.C,R2*%
G36*
G01*
X165499200Y-105891650D02*
X165499200Y-104928350D01*
G75*
G02*
X165768350Y-104659200I269150J0D01*
G01*
X166306650Y-104659200D01*
G75*
G02*
X166575800Y-104928350I0J-269150D01*
G01*
X166575800Y-105891650D01*
G75*
G02*
X166306650Y-106160800I-269150J0D01*
G01*
X165768350Y-106160800D01*
G75*
G02*
X165499200Y-105891650I0J269150D01*
G01*
G37*
G36*
G01*
X163624200Y-105891650D02*
X163624200Y-104928350D01*
G75*
G02*
X163893350Y-104659200I269150J0D01*
G01*
X164431650Y-104659200D01*
G75*
G02*
X164700800Y-104928350I0J-269150D01*
G01*
X164700800Y-105891650D01*
G75*
G02*
X164431650Y-106160800I-269150J0D01*
G01*
X163893350Y-106160800D01*
G75*
G02*
X163624200Y-105891650I0J269150D01*
G01*
G37*
%TD*%
%TO.C,R3*%
G36*
G01*
X163624200Y-100303650D02*
X163624200Y-99340350D01*
G75*
G02*
X163893350Y-99071200I269150J0D01*
G01*
X164431650Y-99071200D01*
G75*
G02*
X164700800Y-99340350I0J-269150D01*
G01*
X164700800Y-100303650D01*
G75*
G02*
X164431650Y-100572800I-269150J0D01*
G01*
X163893350Y-100572800D01*
G75*
G02*
X163624200Y-100303650I0J269150D01*
G01*
G37*
G36*
G01*
X165499200Y-100303650D02*
X165499200Y-99340350D01*
G75*
G02*
X165768350Y-99071200I269150J0D01*
G01*
X166306650Y-99071200D01*
G75*
G02*
X166575800Y-99340350I0J-269150D01*
G01*
X166575800Y-100303650D01*
G75*
G02*
X166306650Y-100572800I-269150J0D01*
G01*
X165768350Y-100572800D01*
G75*
G02*
X165499200Y-100303650I0J269150D01*
G01*
G37*
%TD*%
%TO.C,R4*%
G36*
G01*
X165499200Y-98017650D02*
X165499200Y-97054350D01*
G75*
G02*
X165768350Y-96785200I269150J0D01*
G01*
X166306650Y-96785200D01*
G75*
G02*
X166575800Y-97054350I0J-269150D01*
G01*
X166575800Y-98017650D01*
G75*
G02*
X166306650Y-98286800I-269150J0D01*
G01*
X165768350Y-98286800D01*
G75*
G02*
X165499200Y-98017650I0J269150D01*
G01*
G37*
G36*
G01*
X163624200Y-98017650D02*
X163624200Y-97054350D01*
G75*
G02*
X163893350Y-96785200I269150J0D01*
G01*
X164431650Y-96785200D01*
G75*
G02*
X164700800Y-97054350I0J-269150D01*
G01*
X164700800Y-98017650D01*
G75*
G02*
X164431650Y-98286800I-269150J0D01*
G01*
X163893350Y-98286800D01*
G75*
G02*
X163624200Y-98017650I0J269150D01*
G01*
G37*
%TD*%
%TO.C,R5*%
G36*
G01*
X136678350Y-95806200D02*
X137641650Y-95806200D01*
G75*
G02*
X137910800Y-96075350I0J-269150D01*
G01*
X137910800Y-96613650D01*
G75*
G02*
X137641650Y-96882800I-269150J0D01*
G01*
X136678350Y-96882800D01*
G75*
G02*
X136409200Y-96613650I0J269150D01*
G01*
X136409200Y-96075350D01*
G75*
G02*
X136678350Y-95806200I269150J0D01*
G01*
G37*
G36*
G01*
X136678350Y-97681200D02*
X137641650Y-97681200D01*
G75*
G02*
X137910800Y-97950350I0J-269150D01*
G01*
X137910800Y-98488650D01*
G75*
G02*
X137641650Y-98757800I-269150J0D01*
G01*
X136678350Y-98757800D01*
G75*
G02*
X136409200Y-98488650I0J269150D01*
G01*
X136409200Y-97950350D01*
G75*
G02*
X136678350Y-97681200I269150J0D01*
G01*
G37*
%TD*%
%TO.C,R6*%
G36*
G01*
X143028350Y-95806200D02*
X143991650Y-95806200D01*
G75*
G02*
X144260800Y-96075350I0J-269150D01*
G01*
X144260800Y-96613650D01*
G75*
G02*
X143991650Y-96882800I-269150J0D01*
G01*
X143028350Y-96882800D01*
G75*
G02*
X142759200Y-96613650I0J269150D01*
G01*
X142759200Y-96075350D01*
G75*
G02*
X143028350Y-95806200I269150J0D01*
G01*
G37*
G36*
G01*
X143028350Y-97681200D02*
X143991650Y-97681200D01*
G75*
G02*
X144260800Y-97950350I0J-269150D01*
G01*
X144260800Y-98488650D01*
G75*
G02*
X143991650Y-98757800I-269150J0D01*
G01*
X143028350Y-98757800D01*
G75*
G02*
X142759200Y-98488650I0J269150D01*
G01*
X142759200Y-97950350D01*
G75*
G02*
X143028350Y-97681200I269150J0D01*
G01*
G37*
%TD*%
%TO.C,R7*%
G36*
G01*
X139980350Y-97681200D02*
X140943650Y-97681200D01*
G75*
G02*
X141212800Y-97950350I0J-269150D01*
G01*
X141212800Y-98488650D01*
G75*
G02*
X140943650Y-98757800I-269150J0D01*
G01*
X139980350Y-98757800D01*
G75*
G02*
X139711200Y-98488650I0J269150D01*
G01*
X139711200Y-97950350D01*
G75*
G02*
X139980350Y-97681200I269150J0D01*
G01*
G37*
G36*
G01*
X139980350Y-95806200D02*
X140943650Y-95806200D01*
G75*
G02*
X141212800Y-96075350I0J-269150D01*
G01*
X141212800Y-96613650D01*
G75*
G02*
X140943650Y-96882800I-269150J0D01*
G01*
X139980350Y-96882800D01*
G75*
G02*
X139711200Y-96613650I0J269150D01*
G01*
X139711200Y-96075350D01*
G75*
G02*
X139980350Y-95806200I269150J0D01*
G01*
G37*
%TD*%
M02*
