%TF.GenerationSoftware,KiCad,Pcbnew,(5.1.6-0-10_14)*%
%TF.CreationDate,2021-12-01T19:00:34-08:00*%
%TF.ProjectId,NAU7802_Dual_24-bit_ADC_DIP,4e415537-3830-4325-9f44-75616c5f3234,v02_DIP*%
%TF.SameCoordinates,Original*%
%TF.FileFunction,Copper,L2,Bot*%
%TF.FilePolarity,Positive*%
%FSLAX46Y46*%
G04 Gerber Fmt 4.6, Leading zero omitted, Abs format (unit mm)*
G04 Created by KiCad (PCBNEW (5.1.6-0-10_14)) date 2021-12-01 19:00:34*
%MOMM*%
%LPD*%
G01*
G04 APERTURE LIST*
%TA.AperFunction,ComponentPad*%
%ADD10C,1.700000*%
%TD*%
%TA.AperFunction,SMDPad,CuDef*%
%ADD11R,1.800000X1.300000*%
%TD*%
%TA.AperFunction,ComponentPad*%
%ADD12R,1.600000X1.600000*%
%TD*%
%TA.AperFunction,ComponentPad*%
%ADD13O,1.600000X1.600000*%
%TD*%
%TA.AperFunction,ViaPad*%
%ADD14C,0.685800*%
%TD*%
%TA.AperFunction,ViaPad*%
%ADD15C,0.812800*%
%TD*%
%TA.AperFunction,Conductor*%
%ADD16C,0.152400*%
%TD*%
%TA.AperFunction,Conductor*%
%ADD17C,0.203200*%
%TD*%
%TA.AperFunction,Conductor*%
%ADD18C,0.254000*%
%TD*%
G04 APERTURE END LIST*
D10*
%TO.P,M1,28*%
%TO.N,/SDA*%
X172720000Y-91440000D03*
%TO.P,M1,27*%
%TO.N,/SCL*%
X170180000Y-91440000D03*
%TO.P,M1,26*%
%TO.N,Net-(M1-Pad26)*%
X167640000Y-91440000D03*
%TO.P,M1,25*%
%TO.N,Net-(M1-Pad25)*%
X165100000Y-91440000D03*
%TO.P,M1,24*%
%TO.N,Net-(M1-Pad24)*%
X162560000Y-91440000D03*
%TO.P,M1,23*%
%TO.N,Net-(M1-Pad23)*%
X160020000Y-91440000D03*
%TO.P,M1,22*%
%TO.N,Net-(M1-Pad22)*%
X157480000Y-91440000D03*
%TO.P,M1,21*%
%TO.N,/DRDY*%
X154940000Y-91440000D03*
%TO.P,M1,20*%
%TO.N,Net-(M1-Pad20)*%
X152400000Y-91440000D03*
%TO.P,M1,19*%
%TO.N,Net-(M1-Pad19)*%
X149860000Y-91440000D03*
%TO.P,M1,18*%
%TO.N,Net-(M1-Pad18)*%
X147320000Y-91440000D03*
%TO.P,M1,17*%
%TO.N,Net-(M1-Pad17)*%
X144780000Y-91440000D03*
%TO.P,M1,16*%
%TO.N,Net-(M1-Pad16)*%
X172720000Y-111760000D03*
%TO.P,M1,15*%
%TO.N,Net-(M1-Pad15)*%
X170180000Y-111760000D03*
%TO.P,M1,14*%
%TO.N,Net-(M1-Pad14)*%
X167640000Y-111760000D03*
%TO.P,M1,13*%
%TO.N,Net-(M1-Pad13)*%
X165100000Y-111760000D03*
%TO.P,M1,12*%
%TO.N,Net-(M1-Pad12)*%
X162560000Y-111760000D03*
%TO.P,M1,11*%
%TO.N,Net-(M1-Pad11)*%
X160020000Y-111760000D03*
%TO.P,M1,10*%
%TO.N,Net-(M1-Pad10)*%
X157480000Y-111760000D03*
%TO.P,M1,9*%
%TO.N,Net-(M1-Pad9)*%
X154940000Y-111760000D03*
%TO.P,M1,8*%
%TO.N,Net-(M1-Pad8)*%
X152400000Y-111760000D03*
%TO.P,M1,7*%
%TO.N,Net-(M1-Pad7)*%
X149860000Y-111760000D03*
%TO.P,M1,6*%
%TO.N,Net-(M1-Pad6)*%
X147320000Y-111760000D03*
%TO.P,M1,5*%
%TO.N,Net-(M1-Pad5)*%
X144780000Y-111760000D03*
%TO.P,M1,4*%
%TO.N,GND*%
X142240000Y-111760000D03*
%TO.P,M1,3*%
%TO.N,Net-(M1-Pad3)*%
X139700000Y-111760000D03*
%TO.P,M1,2*%
%TO.N,+3V3*%
X137160000Y-111760000D03*
%TO.P,M1,1*%
%TO.N,Net-(M1-Pad1)*%
X134620000Y-111760000D03*
%TD*%
%TO.P,J2,MP*%
%TO.N,N/C*%
%TA.AperFunction,SMDPad,CuDef*%
G36*
G01*
X175440000Y-106200000D02*
X178340000Y-106200000D01*
G75*
G02*
X178590000Y-106450000I0J-250000D01*
G01*
X178590000Y-107450000D01*
G75*
G02*
X178340000Y-107700000I-250000J0D01*
G01*
X175440000Y-107700000D01*
G75*
G02*
X175190000Y-107450000I0J250000D01*
G01*
X175190000Y-106450000D01*
G75*
G02*
X175440000Y-106200000I250000J0D01*
G01*
G37*
%TD.AperFunction*%
%TA.AperFunction,SMDPad,CuDef*%
G36*
G01*
X175440000Y-95500000D02*
X178340000Y-95500000D01*
G75*
G02*
X178590000Y-95750000I0J-250000D01*
G01*
X178590000Y-96750000D01*
G75*
G02*
X178340000Y-97000000I-250000J0D01*
G01*
X175440000Y-97000000D01*
G75*
G02*
X175190000Y-96750000I0J250000D01*
G01*
X175190000Y-95750000D01*
G75*
G02*
X175440000Y-95500000I250000J0D01*
G01*
G37*
%TD.AperFunction*%
%TO.P,J2,4*%
%TO.N,GND*%
%TA.AperFunction,SMDPad,CuDef*%
G36*
G01*
X169640000Y-104100000D02*
X172640000Y-104100000D01*
G75*
G02*
X172890000Y-104350000I0J-250000D01*
G01*
X172890000Y-104850000D01*
G75*
G02*
X172640000Y-105100000I-250000J0D01*
G01*
X169640000Y-105100000D01*
G75*
G02*
X169390000Y-104850000I0J250000D01*
G01*
X169390000Y-104350000D01*
G75*
G02*
X169640000Y-104100000I250000J0D01*
G01*
G37*
%TD.AperFunction*%
%TO.P,J2,3*%
%TO.N,/AVDD*%
%TA.AperFunction,SMDPad,CuDef*%
G36*
G01*
X169640000Y-102100000D02*
X172640000Y-102100000D01*
G75*
G02*
X172890000Y-102350000I0J-250000D01*
G01*
X172890000Y-102850000D01*
G75*
G02*
X172640000Y-103100000I-250000J0D01*
G01*
X169640000Y-103100000D01*
G75*
G02*
X169390000Y-102850000I0J250000D01*
G01*
X169390000Y-102350000D01*
G75*
G02*
X169640000Y-102100000I250000J0D01*
G01*
G37*
%TD.AperFunction*%
%TO.P,J2,2*%
%TO.N,/CELL_B-*%
%TA.AperFunction,SMDPad,CuDef*%
G36*
G01*
X169640000Y-100100000D02*
X172640000Y-100100000D01*
G75*
G02*
X172890000Y-100350000I0J-250000D01*
G01*
X172890000Y-100850000D01*
G75*
G02*
X172640000Y-101100000I-250000J0D01*
G01*
X169640000Y-101100000D01*
G75*
G02*
X169390000Y-100850000I0J250000D01*
G01*
X169390000Y-100350000D01*
G75*
G02*
X169640000Y-100100000I250000J0D01*
G01*
G37*
%TD.AperFunction*%
%TO.P,J2,1*%
%TO.N,/CELL_B+*%
%TA.AperFunction,SMDPad,CuDef*%
G36*
G01*
X169640000Y-98100000D02*
X172640000Y-98100000D01*
G75*
G02*
X172890000Y-98350000I0J-250000D01*
G01*
X172890000Y-98850000D01*
G75*
G02*
X172640000Y-99100000I-250000J0D01*
G01*
X169640000Y-99100000D01*
G75*
G02*
X169390000Y-98850000I0J250000D01*
G01*
X169390000Y-98350000D01*
G75*
G02*
X169640000Y-98100000I250000J0D01*
G01*
G37*
%TD.AperFunction*%
%TD*%
%TO.P,J4,1*%
%TO.N,GND*%
%TA.AperFunction,SMDPad,CuDef*%
G36*
G01*
X134197000Y-103400000D02*
X132947000Y-103400000D01*
G75*
G02*
X132797000Y-103250000I0J150000D01*
G01*
X132797000Y-102950000D01*
G75*
G02*
X132947000Y-102800000I150000J0D01*
G01*
X134197000Y-102800000D01*
G75*
G02*
X134347000Y-102950000I0J-150000D01*
G01*
X134347000Y-103250000D01*
G75*
G02*
X134197000Y-103400000I-150000J0D01*
G01*
G37*
%TD.AperFunction*%
%TO.P,J4,2*%
%TO.N,+3V3*%
%TA.AperFunction,SMDPad,CuDef*%
G36*
G01*
X134197000Y-102400000D02*
X132947000Y-102400000D01*
G75*
G02*
X132797000Y-102250000I0J150000D01*
G01*
X132797000Y-101950000D01*
G75*
G02*
X132947000Y-101800000I150000J0D01*
G01*
X134197000Y-101800000D01*
G75*
G02*
X134347000Y-101950000I0J-150000D01*
G01*
X134347000Y-102250000D01*
G75*
G02*
X134197000Y-102400000I-150000J0D01*
G01*
G37*
%TD.AperFunction*%
%TO.P,J4,3*%
%TO.N,/SDA*%
%TA.AperFunction,SMDPad,CuDef*%
G36*
G01*
X134197000Y-101400000D02*
X132947000Y-101400000D01*
G75*
G02*
X132797000Y-101250000I0J150000D01*
G01*
X132797000Y-100950000D01*
G75*
G02*
X132947000Y-100800000I150000J0D01*
G01*
X134197000Y-100800000D01*
G75*
G02*
X134347000Y-100950000I0J-150000D01*
G01*
X134347000Y-101250000D01*
G75*
G02*
X134197000Y-101400000I-150000J0D01*
G01*
G37*
%TD.AperFunction*%
%TO.P,J4,4*%
%TO.N,/SCL*%
%TA.AperFunction,SMDPad,CuDef*%
G36*
G01*
X134197000Y-100400000D02*
X132947000Y-100400000D01*
G75*
G02*
X132797000Y-100250000I0J150000D01*
G01*
X132797000Y-99950000D01*
G75*
G02*
X132947000Y-99800000I150000J0D01*
G01*
X134197000Y-99800000D01*
G75*
G02*
X134347000Y-99950000I0J-150000D01*
G01*
X134347000Y-100250000D01*
G75*
G02*
X134197000Y-100400000I-150000J0D01*
G01*
G37*
%TD.AperFunction*%
%TO.P,J4,MP*%
%TO.N,N/C*%
%TA.AperFunction,SMDPad,CuDef*%
G36*
G01*
X130347001Y-105000000D02*
X129046999Y-105000000D01*
G75*
G02*
X128797000Y-104750001I0J249999D01*
G01*
X128797000Y-104049999D01*
G75*
G02*
X129046999Y-103800000I249999J0D01*
G01*
X130347001Y-103800000D01*
G75*
G02*
X130597000Y-104049999I0J-249999D01*
G01*
X130597000Y-104750001D01*
G75*
G02*
X130347001Y-105000000I-249999J0D01*
G01*
G37*
%TD.AperFunction*%
%TA.AperFunction,SMDPad,CuDef*%
G36*
G01*
X130347001Y-99400000D02*
X129046999Y-99400000D01*
G75*
G02*
X128797000Y-99150001I0J249999D01*
G01*
X128797000Y-98449999D01*
G75*
G02*
X129046999Y-98200000I249999J0D01*
G01*
X130347001Y-98200000D01*
G75*
G02*
X130597000Y-98449999I0J-249999D01*
G01*
X130597000Y-99150001D01*
G75*
G02*
X130347001Y-99400000I-249999J0D01*
G01*
G37*
%TD.AperFunction*%
%TD*%
D11*
%TO.P,SJ1,2*%
%TO.N,/DRDY*%
X152323800Y-97282000D03*
%TO.P,SJ1,1*%
X154508200Y-97282000D03*
%TD*%
D12*
%TO.P,U1,1*%
%TO.N,/AVDD*%
X139446000Y-107188000D03*
D13*
%TO.P,U1,9*%
%TO.N,GND*%
X157226000Y-99568000D03*
%TO.P,U1,2*%
%TO.N,/A-*%
X141986000Y-107188000D03*
%TO.P,U1,10*%
%TO.N,Net-(U1-Pad10)*%
X154686000Y-99568000D03*
%TO.P,U1,3*%
%TO.N,/A+*%
X144526000Y-107188000D03*
%TO.P,U1,11*%
%TO.N,Net-(U1-Pad11)*%
X152146000Y-99568000D03*
%TO.P,U1,4*%
%TO.N,/B-*%
X147066000Y-107188000D03*
%TO.P,U1,12*%
%TO.N,/DRDY*%
X149606000Y-99568000D03*
%TO.P,U1,5*%
%TO.N,/B+*%
X149606000Y-107188000D03*
%TO.P,U1,13*%
%TO.N,/SCL*%
X147066000Y-99568000D03*
%TO.P,U1,6*%
%TO.N,Net-(C7-Pad1)*%
X152146000Y-107188000D03*
%TO.P,U1,14*%
%TO.N,/SDA*%
X144526000Y-99568000D03*
%TO.P,U1,7*%
%TO.N,GND*%
X154686000Y-107188000D03*
%TO.P,U1,15*%
%TO.N,+3V3*%
X141986000Y-99568000D03*
%TO.P,U1,8*%
%TO.N,GND*%
X157226000Y-107188000D03*
%TO.P,U1,16*%
%TO.N,/AVDD*%
X139446000Y-99568000D03*
%TD*%
D14*
%TO.N,GND*%
X137160000Y-104648000D03*
X130302000Y-101600000D03*
X177800000Y-104140000D03*
X177800000Y-99060000D03*
X173990000Y-93980000D03*
X134620000Y-92837000D03*
X132080000Y-106680000D03*
X172720000Y-109220000D03*
X138430000Y-104648000D03*
X166116000Y-107442000D03*
X163195000Y-101473000D03*
X148590000Y-102870000D03*
X140462000Y-102870000D03*
D15*
%TO.N,+3V3*%
X133604000Y-98552000D03*
D14*
%TO.N,/SCL*%
X135890000Y-100076000D03*
%TO.N,/SDA*%
X135382000Y-102108000D03*
%TO.N,GND*%
X159258000Y-99568000D03*
X159766000Y-107442000D03*
X137160000Y-98806000D03*
%TO.N,Net-(C7-Pad1)*%
X163068000Y-96012000D03*
%TO.N,/SCL*%
X147066000Y-94742000D03*
D15*
%TO.N,/DRDY*%
X154508200Y-95681800D03*
D14*
%TO.N,/B+*%
X157429190Y-103124000D03*
%TO.N,/B-*%
X156210000Y-103124000D03*
%TO.N,/AVDD*%
X174625000Y-102870000D03*
%TO.N,/CELL_B+*%
X167386000Y-97536000D03*
%TO.N,/CELL_B-*%
X167640000Y-98552000D03*
%TD*%
D16*
%TO.N,/SCL*%
X134104000Y-100076000D02*
X134080000Y-100100000D01*
%TO.N,/DRDY*%
X152278000Y-97236200D02*
X152323800Y-97282000D01*
X154508200Y-97282000D02*
X154508200Y-95681800D01*
X152323800Y-97282000D02*
X154508200Y-97282000D01*
D17*
%TO.N,+3V3*%
X133572000Y-102100000D02*
X132072000Y-102100000D01*
X132072000Y-102100000D02*
X131572000Y-101600000D01*
X131572000Y-101600000D02*
X131572000Y-99060000D01*
X132080000Y-98552000D02*
X133604000Y-98552000D01*
X131572000Y-99060000D02*
X132080000Y-98552000D01*
D16*
%TO.N,Net-(C7-Pad1)*%
X152908000Y-105156000D02*
X152146000Y-105918000D01*
X152146000Y-105918000D02*
X152146000Y-107188000D01*
X161798000Y-104648000D02*
X161290000Y-105156000D01*
X161798000Y-96520000D02*
X161798000Y-104648000D01*
X161290000Y-105156000D02*
X152908000Y-105156000D01*
X162306000Y-96012000D02*
X161798000Y-96520000D01*
X163068000Y-96012000D02*
X162306000Y-96012000D01*
%TO.N,/SCL*%
X133596000Y-100076000D02*
X133572000Y-100100000D01*
X135890000Y-100076000D02*
X133596000Y-100076000D01*
%TO.N,/SDA*%
X135382000Y-102108000D02*
X135382000Y-101346000D01*
X135136000Y-101100000D02*
X133572000Y-101100000D01*
X135382000Y-101346000D02*
X135136000Y-101100000D01*
%TO.N,/SCL*%
X146812000Y-99314000D02*
X147066000Y-99568000D01*
X170180000Y-92964000D02*
X170180000Y-91440000D01*
X148920934Y-93726000D02*
X169418000Y-93726000D01*
X169418000Y-93726000D02*
X170180000Y-92964000D01*
X135890000Y-98120934D02*
X136779743Y-97231191D01*
X135890000Y-100076000D02*
X135890000Y-98120934D01*
X147980381Y-94666553D02*
X148120467Y-94526467D01*
X147904934Y-94742000D02*
X148120467Y-94526467D01*
X147066000Y-94742000D02*
X147904934Y-94742000D01*
X136779743Y-97231191D02*
X146507191Y-97231191D01*
X147624809Y-97231191D02*
X148031190Y-96824810D01*
X146507191Y-97231191D02*
X147624809Y-97231191D01*
X148031190Y-96824810D02*
X148031190Y-94615744D01*
X148247467Y-94399467D02*
X148920934Y-93726000D01*
X148031190Y-94615744D02*
X148247467Y-94399467D01*
X148120467Y-94526467D02*
X148247467Y-94399467D01*
%TO.N,/SDA*%
X172339000Y-92837000D02*
X172720000Y-92456000D01*
X169621190Y-94030810D02*
X170815000Y-92837000D01*
X170815000Y-92837000D02*
X172339000Y-92837000D01*
X149047190Y-94030810D02*
X169621190Y-94030810D01*
X172720000Y-92456000D02*
X172720000Y-91440000D01*
X144526000Y-99568000D02*
X144526000Y-100330000D01*
X148336000Y-94742000D02*
X149047190Y-94030810D01*
X135711822Y-101100000D02*
X136461501Y-100350321D01*
X136461501Y-99801679D02*
X136194810Y-99534988D01*
X136194810Y-98247190D02*
X136906000Y-97536000D01*
X136194810Y-99534988D02*
X136194810Y-98247190D01*
X136461501Y-100350321D02*
X136461501Y-99801679D01*
X135136000Y-101100000D02*
X135711822Y-101100000D01*
X144526000Y-97790002D02*
X144271999Y-97536001D01*
X144526000Y-99568000D02*
X144526000Y-97790002D01*
X144271999Y-97536001D02*
X146633447Y-97536001D01*
X136906000Y-97536000D02*
X144271999Y-97536001D01*
X146633447Y-97536001D02*
X147827999Y-97536001D01*
X147827999Y-97536001D02*
X148336000Y-97028000D01*
X148336000Y-94742000D02*
X148844000Y-94234000D01*
X148336000Y-97028000D02*
X148336000Y-94742000D01*
X148844000Y-94234000D02*
X149047190Y-94030810D01*
%TO.N,/DRDY*%
X149606000Y-99568000D02*
X149606000Y-97790000D01*
X150114000Y-97282000D02*
X152323800Y-97282000D01*
X149606000Y-97790000D02*
X150114000Y-97282000D01*
X154508200Y-95681800D02*
X154508200Y-95681800D01*
%TO.N,/B+*%
X149606000Y-107188000D02*
X149606000Y-104317066D01*
X149606000Y-104317066D02*
X150240256Y-103682810D01*
X154901881Y-103695501D02*
X156857689Y-103695501D01*
X156857689Y-103695501D02*
X157429190Y-103124000D01*
X154889190Y-103682810D02*
X154901881Y-103695501D01*
X150240256Y-103682810D02*
X154889190Y-103682810D01*
%TO.N,/B-*%
X147066000Y-107188000D02*
X148590000Y-105664000D01*
X148590000Y-105664000D02*
X148590000Y-104902000D01*
X148590000Y-104902000D02*
X150114000Y-103378000D01*
X150114000Y-103378000D02*
X154686000Y-103378000D01*
X154940000Y-103124000D02*
X156210000Y-103124000D01*
X154686000Y-103378000D02*
X154940000Y-103124000D01*
%TO.N,/AVDD*%
X174355000Y-102600000D02*
X174625000Y-102870000D01*
X171140000Y-102600000D02*
X174355000Y-102600000D01*
%TO.N,/CELL_B+*%
X170076000Y-97536000D02*
X167386000Y-97536000D01*
X171140000Y-98600000D02*
X170076000Y-97536000D01*
%TO.N,/CELL_B-*%
X167640000Y-98552000D02*
X167640000Y-100076000D01*
X168164000Y-100600000D02*
X171140000Y-100600000D01*
X167640000Y-100076000D02*
X168164000Y-100600000D01*
%TD*%
D18*
%TO.N,GND*%
G36*
X162700755Y-95386758D02*
G01*
X162606540Y-95449710D01*
X162505710Y-95550540D01*
X162502864Y-95554800D01*
X162328449Y-95554800D01*
X162305999Y-95552589D01*
X162283549Y-95554800D01*
X162283540Y-95554800D01*
X162216373Y-95561415D01*
X162130191Y-95587559D01*
X162121559Y-95592173D01*
X162050763Y-95630013D01*
X162015029Y-95659340D01*
X161981147Y-95687147D01*
X161966830Y-95704592D01*
X161490597Y-96180826D01*
X161473147Y-96195147D01*
X161416013Y-96264765D01*
X161373559Y-96344192D01*
X161347415Y-96430374D01*
X161340800Y-96497541D01*
X161340800Y-96497550D01*
X161338589Y-96520000D01*
X161340800Y-96542450D01*
X161340801Y-104458621D01*
X161100623Y-104698800D01*
X152930450Y-104698800D01*
X152908000Y-104696589D01*
X152885550Y-104698800D01*
X152885540Y-104698800D01*
X152818373Y-104705415D01*
X152752249Y-104725474D01*
X152732190Y-104731559D01*
X152652764Y-104774013D01*
X152600592Y-104816829D01*
X152600586Y-104816835D01*
X152583147Y-104831147D01*
X152568835Y-104848587D01*
X151838597Y-105578826D01*
X151821147Y-105593147D01*
X151764013Y-105662765D01*
X151721559Y-105742192D01*
X151695415Y-105828374D01*
X151688800Y-105895541D01*
X151688800Y-105895550D01*
X151686589Y-105918000D01*
X151688800Y-105940450D01*
X151688800Y-106099074D01*
X151586587Y-106141412D01*
X151393157Y-106270658D01*
X151228658Y-106435157D01*
X151099412Y-106628587D01*
X151010386Y-106843515D01*
X150965000Y-107071682D01*
X150965000Y-107304318D01*
X151010386Y-107532485D01*
X151099412Y-107747413D01*
X151228658Y-107940843D01*
X151393157Y-108105342D01*
X151586587Y-108234588D01*
X151801515Y-108323614D01*
X152029682Y-108369000D01*
X152262318Y-108369000D01*
X152490485Y-108323614D01*
X152705413Y-108234588D01*
X152898843Y-108105342D01*
X153063342Y-107940843D01*
X153192588Y-107747413D01*
X153281614Y-107532485D01*
X153288649Y-107497115D01*
X153546165Y-107497115D01*
X153628372Y-107713546D01*
X153751223Y-107909781D01*
X153909997Y-108078278D01*
X154098592Y-108212562D01*
X154309761Y-108307473D01*
X154376886Y-108327829D01*
X154559000Y-108266297D01*
X154559000Y-107315000D01*
X154813000Y-107315000D01*
X154813000Y-108266297D01*
X154995114Y-108327829D01*
X155062239Y-108307473D01*
X155273408Y-108212562D01*
X155462003Y-108078278D01*
X155620777Y-107909781D01*
X155743628Y-107713546D01*
X155825835Y-107497115D01*
X156086165Y-107497115D01*
X156168372Y-107713546D01*
X156291223Y-107909781D01*
X156449997Y-108078278D01*
X156638592Y-108212562D01*
X156849761Y-108307473D01*
X156916886Y-108327829D01*
X157099000Y-108266297D01*
X157099000Y-107315000D01*
X157353000Y-107315000D01*
X157353000Y-108266297D01*
X157535114Y-108327829D01*
X157602239Y-108307473D01*
X157813408Y-108212562D01*
X158002003Y-108078278D01*
X158160777Y-107909781D01*
X158283628Y-107713546D01*
X158365835Y-107497115D01*
X158304908Y-107315000D01*
X157353000Y-107315000D01*
X157099000Y-107315000D01*
X156147092Y-107315000D01*
X156086165Y-107497115D01*
X155825835Y-107497115D01*
X155764908Y-107315000D01*
X154813000Y-107315000D01*
X154559000Y-107315000D01*
X153607092Y-107315000D01*
X153546165Y-107497115D01*
X153288649Y-107497115D01*
X153327000Y-107304318D01*
X153327000Y-107071682D01*
X153288650Y-106878885D01*
X153546165Y-106878885D01*
X153607092Y-107061000D01*
X154559000Y-107061000D01*
X154559000Y-106109703D01*
X154813000Y-106109703D01*
X154813000Y-107061000D01*
X155764908Y-107061000D01*
X155825835Y-106878885D01*
X156086165Y-106878885D01*
X156147092Y-107061000D01*
X157099000Y-107061000D01*
X157099000Y-106109703D01*
X157353000Y-106109703D01*
X157353000Y-107061000D01*
X158304908Y-107061000D01*
X158365835Y-106878885D01*
X158283628Y-106662454D01*
X158160777Y-106466219D01*
X158002003Y-106297722D01*
X157813408Y-106163438D01*
X157602239Y-106068527D01*
X157535114Y-106048171D01*
X157353000Y-106109703D01*
X157099000Y-106109703D01*
X156916886Y-106048171D01*
X156849761Y-106068527D01*
X156638592Y-106163438D01*
X156449997Y-106297722D01*
X156291223Y-106466219D01*
X156168372Y-106662454D01*
X156086165Y-106878885D01*
X155825835Y-106878885D01*
X155743628Y-106662454D01*
X155620777Y-106466219D01*
X155462003Y-106297722D01*
X155273408Y-106163438D01*
X155062239Y-106068527D01*
X154995114Y-106048171D01*
X154813000Y-106109703D01*
X154559000Y-106109703D01*
X154376886Y-106048171D01*
X154309761Y-106068527D01*
X154098592Y-106163438D01*
X153909997Y-106297722D01*
X153751223Y-106466219D01*
X153628372Y-106662454D01*
X153546165Y-106878885D01*
X153288650Y-106878885D01*
X153281614Y-106843515D01*
X153192588Y-106628587D01*
X153063342Y-106435157D01*
X152898843Y-106270658D01*
X152705413Y-106141412D01*
X152609071Y-106101506D01*
X153097379Y-105613200D01*
X161267550Y-105613200D01*
X161290000Y-105615411D01*
X161312450Y-105613200D01*
X161312460Y-105613200D01*
X161379627Y-105606585D01*
X161465809Y-105580441D01*
X161545236Y-105537987D01*
X161614853Y-105480853D01*
X161629174Y-105463403D01*
X161992577Y-105100000D01*
X169007157Y-105100000D01*
X169014513Y-105174689D01*
X169036299Y-105246508D01*
X169071678Y-105312696D01*
X169119289Y-105370711D01*
X169177304Y-105418322D01*
X169243492Y-105453701D01*
X169315311Y-105475487D01*
X169390000Y-105482843D01*
X170917750Y-105481000D01*
X171013000Y-105385750D01*
X171013000Y-104727000D01*
X171267000Y-104727000D01*
X171267000Y-105385750D01*
X171362250Y-105481000D01*
X172890000Y-105482843D01*
X172964689Y-105475487D01*
X173036508Y-105453701D01*
X173102696Y-105418322D01*
X173160711Y-105370711D01*
X173208322Y-105312696D01*
X173243701Y-105246508D01*
X173265487Y-105174689D01*
X173272843Y-105100000D01*
X173271000Y-104822250D01*
X173175750Y-104727000D01*
X171267000Y-104727000D01*
X171013000Y-104727000D01*
X169104250Y-104727000D01*
X169009000Y-104822250D01*
X169007157Y-105100000D01*
X161992577Y-105100000D01*
X162105408Y-104987170D01*
X162122853Y-104972853D01*
X162137170Y-104955408D01*
X162179987Y-104903237D01*
X162209194Y-104848593D01*
X162222441Y-104823809D01*
X162248585Y-104737627D01*
X162255200Y-104670460D01*
X162255200Y-104670451D01*
X162257411Y-104648001D01*
X162255200Y-104625551D01*
X162255200Y-104100000D01*
X169007157Y-104100000D01*
X169009000Y-104377750D01*
X169104250Y-104473000D01*
X171013000Y-104473000D01*
X171013000Y-103814250D01*
X171267000Y-103814250D01*
X171267000Y-104473000D01*
X173175750Y-104473000D01*
X173271000Y-104377750D01*
X173272843Y-104100000D01*
X173265487Y-104025311D01*
X173243701Y-103953492D01*
X173208322Y-103887304D01*
X173160711Y-103829289D01*
X173102696Y-103781678D01*
X173036508Y-103746299D01*
X172964689Y-103724513D01*
X172890000Y-103717157D01*
X171362250Y-103719000D01*
X171267000Y-103814250D01*
X171013000Y-103814250D01*
X170917750Y-103719000D01*
X169390000Y-103717157D01*
X169315311Y-103724513D01*
X169243492Y-103746299D01*
X169177304Y-103781678D01*
X169119289Y-103829289D01*
X169071678Y-103887304D01*
X169036299Y-103953492D01*
X169014513Y-104025311D01*
X169007157Y-104100000D01*
X162255200Y-104100000D01*
X162255200Y-102350000D01*
X169007157Y-102350000D01*
X169007157Y-102850000D01*
X169019317Y-102973462D01*
X169055329Y-103092179D01*
X169113810Y-103201589D01*
X169192512Y-103297488D01*
X169288411Y-103376190D01*
X169397821Y-103434671D01*
X169516538Y-103470683D01*
X169640000Y-103482843D01*
X172640000Y-103482843D01*
X172763462Y-103470683D01*
X172882179Y-103434671D01*
X172991589Y-103376190D01*
X173087488Y-103297488D01*
X173166190Y-103201589D01*
X173224671Y-103092179D01*
X173235282Y-103057200D01*
X173924154Y-103057200D01*
X173928919Y-103081154D01*
X173983488Y-103212895D01*
X174062710Y-103331460D01*
X174163540Y-103432290D01*
X174282105Y-103511512D01*
X174413846Y-103566081D01*
X174553702Y-103593900D01*
X174696298Y-103593900D01*
X174836154Y-103566081D01*
X174967895Y-103511512D01*
X175086460Y-103432290D01*
X175187290Y-103331460D01*
X175266512Y-103212895D01*
X175321081Y-103081154D01*
X175348900Y-102941298D01*
X175348900Y-102798702D01*
X175321081Y-102658846D01*
X175266512Y-102527105D01*
X175187290Y-102408540D01*
X175086460Y-102307710D01*
X174967895Y-102228488D01*
X174836154Y-102173919D01*
X174696298Y-102146100D01*
X174553702Y-102146100D01*
X174481223Y-102160517D01*
X174444627Y-102149415D01*
X174377460Y-102142800D01*
X174377450Y-102142800D01*
X174355000Y-102140589D01*
X174332550Y-102142800D01*
X173235282Y-102142800D01*
X173224671Y-102107821D01*
X173166190Y-101998411D01*
X173087488Y-101902512D01*
X172991589Y-101823810D01*
X172882179Y-101765329D01*
X172763462Y-101729317D01*
X172640000Y-101717157D01*
X169640000Y-101717157D01*
X169516538Y-101729317D01*
X169397821Y-101765329D01*
X169288411Y-101823810D01*
X169192512Y-101902512D01*
X169113810Y-101998411D01*
X169055329Y-102107821D01*
X169019317Y-102226538D01*
X169007157Y-102350000D01*
X162255200Y-102350000D01*
X162255200Y-97464702D01*
X166662100Y-97464702D01*
X166662100Y-97607298D01*
X166689919Y-97747154D01*
X166744488Y-97878895D01*
X166823710Y-97997460D01*
X166924540Y-98098290D01*
X167026853Y-98166653D01*
X166998488Y-98209105D01*
X166943919Y-98340846D01*
X166916100Y-98480702D01*
X166916100Y-98623298D01*
X166943919Y-98763154D01*
X166998488Y-98894895D01*
X167077710Y-99013460D01*
X167178540Y-99114290D01*
X167182800Y-99117137D01*
X167182801Y-100053540D01*
X167180589Y-100076000D01*
X167182801Y-100098460D01*
X167185653Y-100127413D01*
X167189416Y-100165626D01*
X167215560Y-100251809D01*
X167237359Y-100292592D01*
X167258014Y-100331236D01*
X167315148Y-100400853D01*
X167332592Y-100415169D01*
X167824830Y-100907408D01*
X167839147Y-100924853D01*
X167908764Y-100981987D01*
X167988191Y-101024441D01*
X168074373Y-101050585D01*
X168141540Y-101057200D01*
X168141550Y-101057200D01*
X168164000Y-101059411D01*
X168186450Y-101057200D01*
X169044718Y-101057200D01*
X169055329Y-101092179D01*
X169113810Y-101201589D01*
X169192512Y-101297488D01*
X169288411Y-101376190D01*
X169397821Y-101434671D01*
X169516538Y-101470683D01*
X169640000Y-101482843D01*
X172640000Y-101482843D01*
X172763462Y-101470683D01*
X172882179Y-101434671D01*
X172991589Y-101376190D01*
X173087488Y-101297488D01*
X173166190Y-101201589D01*
X173224671Y-101092179D01*
X173260683Y-100973462D01*
X173272843Y-100850000D01*
X173272843Y-100350000D01*
X173260683Y-100226538D01*
X173224671Y-100107821D01*
X173166190Y-99998411D01*
X173087488Y-99902512D01*
X172991589Y-99823810D01*
X172882179Y-99765329D01*
X172763462Y-99729317D01*
X172640000Y-99717157D01*
X169640000Y-99717157D01*
X169516538Y-99729317D01*
X169397821Y-99765329D01*
X169288411Y-99823810D01*
X169192512Y-99902512D01*
X169113810Y-99998411D01*
X169055329Y-100107821D01*
X169044718Y-100142800D01*
X168353378Y-100142800D01*
X168097200Y-99886623D01*
X168097200Y-99117136D01*
X168101460Y-99114290D01*
X168202290Y-99013460D01*
X168281512Y-98894895D01*
X168336081Y-98763154D01*
X168363900Y-98623298D01*
X168363900Y-98480702D01*
X168336081Y-98340846D01*
X168281512Y-98209105D01*
X168202290Y-98090540D01*
X168104950Y-97993200D01*
X169118087Y-97993200D01*
X169113810Y-97998411D01*
X169055329Y-98107821D01*
X169019317Y-98226538D01*
X169007157Y-98350000D01*
X169007157Y-98850000D01*
X169019317Y-98973462D01*
X169055329Y-99092179D01*
X169113810Y-99201589D01*
X169192512Y-99297488D01*
X169288411Y-99376190D01*
X169397821Y-99434671D01*
X169516538Y-99470683D01*
X169640000Y-99482843D01*
X172640000Y-99482843D01*
X172763462Y-99470683D01*
X172882179Y-99434671D01*
X172991589Y-99376190D01*
X173087488Y-99297488D01*
X173166190Y-99201589D01*
X173224671Y-99092179D01*
X173260683Y-98973462D01*
X173272843Y-98850000D01*
X173272843Y-98350000D01*
X173260683Y-98226538D01*
X173224671Y-98107821D01*
X173166190Y-97998411D01*
X173087488Y-97902512D01*
X172991589Y-97823810D01*
X172882179Y-97765329D01*
X172763462Y-97729317D01*
X172640000Y-97717157D01*
X170903734Y-97717157D01*
X170415174Y-97228597D01*
X170400853Y-97211147D01*
X170331236Y-97154013D01*
X170251809Y-97111559D01*
X170165627Y-97085415D01*
X170098460Y-97078800D01*
X170098450Y-97078800D01*
X170076000Y-97076589D01*
X170053550Y-97078800D01*
X167951136Y-97078800D01*
X167948290Y-97074540D01*
X167847460Y-96973710D01*
X167728895Y-96894488D01*
X167597154Y-96839919D01*
X167457298Y-96812100D01*
X167314702Y-96812100D01*
X167174846Y-96839919D01*
X167043105Y-96894488D01*
X166924540Y-96973710D01*
X166823710Y-97074540D01*
X166744488Y-97193105D01*
X166689919Y-97324846D01*
X166662100Y-97464702D01*
X162255200Y-97464702D01*
X162255200Y-96709377D01*
X162495378Y-96469200D01*
X162502864Y-96469200D01*
X162505710Y-96473460D01*
X162606540Y-96574290D01*
X162725105Y-96653512D01*
X162856846Y-96708081D01*
X162996702Y-96735900D01*
X163139298Y-96735900D01*
X163279154Y-96708081D01*
X163410895Y-96653512D01*
X163529460Y-96574290D01*
X163630290Y-96473460D01*
X163709512Y-96354895D01*
X163764081Y-96223154D01*
X163791900Y-96083298D01*
X163791900Y-95940702D01*
X163764081Y-95800846D01*
X163709512Y-95669105D01*
X163630290Y-95550540D01*
X163529460Y-95449710D01*
X163437805Y-95388469D01*
X174904900Y-95415081D01*
X174855329Y-95507821D01*
X174819317Y-95626538D01*
X174807157Y-95750000D01*
X174807157Y-96750000D01*
X174819317Y-96873462D01*
X174855329Y-96992179D01*
X174913810Y-97101589D01*
X174992512Y-97197488D01*
X175088411Y-97276190D01*
X175197821Y-97334671D01*
X175316538Y-97370683D01*
X175440000Y-97382843D01*
X178340000Y-97382843D01*
X178463462Y-97370683D01*
X178582179Y-97334671D01*
X178664000Y-97290937D01*
X178664001Y-105909064D01*
X178582179Y-105865329D01*
X178463462Y-105829317D01*
X178340000Y-105817157D01*
X175440000Y-105817157D01*
X175316538Y-105829317D01*
X175197821Y-105865329D01*
X175088411Y-105923810D01*
X174992512Y-106002512D01*
X174913810Y-106098411D01*
X174855329Y-106207821D01*
X174819317Y-106326538D01*
X174807157Y-106450000D01*
X174807157Y-107450000D01*
X174819317Y-107573462D01*
X174855329Y-107692179D01*
X174913810Y-107801589D01*
X174992512Y-107897488D01*
X175088411Y-107976190D01*
X175197821Y-108034671D01*
X175316538Y-108070683D01*
X175440000Y-108082843D01*
X178340000Y-108082843D01*
X178463462Y-108070683D01*
X178582179Y-108034671D01*
X178664001Y-107990936D01*
X178664001Y-110470136D01*
X178621449Y-110904115D01*
X178501181Y-111302464D01*
X178305831Y-111669862D01*
X178042845Y-111992315D01*
X177722226Y-112257554D01*
X177356204Y-112455461D01*
X176958708Y-112578506D01*
X176525863Y-112624000D01*
X173596897Y-112624000D01*
X173676180Y-112544717D01*
X173810898Y-112343097D01*
X173903693Y-112119069D01*
X173951000Y-111881243D01*
X173951000Y-111638757D01*
X173903693Y-111400931D01*
X173810898Y-111176903D01*
X173676180Y-110975283D01*
X173504717Y-110803820D01*
X173303097Y-110669102D01*
X173079069Y-110576307D01*
X172841243Y-110529000D01*
X172598757Y-110529000D01*
X172360931Y-110576307D01*
X172136903Y-110669102D01*
X171935283Y-110803820D01*
X171763820Y-110975283D01*
X171629102Y-111176903D01*
X171536307Y-111400931D01*
X171489000Y-111638757D01*
X171489000Y-111881243D01*
X171536307Y-112119069D01*
X171629102Y-112343097D01*
X171763820Y-112544717D01*
X171843103Y-112624000D01*
X171056897Y-112624000D01*
X171136180Y-112544717D01*
X171270898Y-112343097D01*
X171363693Y-112119069D01*
X171411000Y-111881243D01*
X171411000Y-111638757D01*
X171363693Y-111400931D01*
X171270898Y-111176903D01*
X171136180Y-110975283D01*
X170964717Y-110803820D01*
X170763097Y-110669102D01*
X170539069Y-110576307D01*
X170301243Y-110529000D01*
X170058757Y-110529000D01*
X169820931Y-110576307D01*
X169596903Y-110669102D01*
X169395283Y-110803820D01*
X169223820Y-110975283D01*
X169089102Y-111176903D01*
X168996307Y-111400931D01*
X168949000Y-111638757D01*
X168949000Y-111881243D01*
X168996307Y-112119069D01*
X169089102Y-112343097D01*
X169223820Y-112544717D01*
X169303103Y-112624000D01*
X168516897Y-112624000D01*
X168596180Y-112544717D01*
X168730898Y-112343097D01*
X168823693Y-112119069D01*
X168871000Y-111881243D01*
X168871000Y-111638757D01*
X168823693Y-111400931D01*
X168730898Y-111176903D01*
X168596180Y-110975283D01*
X168424717Y-110803820D01*
X168223097Y-110669102D01*
X167999069Y-110576307D01*
X167761243Y-110529000D01*
X167518757Y-110529000D01*
X167280931Y-110576307D01*
X167056903Y-110669102D01*
X166855283Y-110803820D01*
X166683820Y-110975283D01*
X166549102Y-111176903D01*
X166456307Y-111400931D01*
X166409000Y-111638757D01*
X166409000Y-111881243D01*
X166456307Y-112119069D01*
X166549102Y-112343097D01*
X166683820Y-112544717D01*
X166763103Y-112624000D01*
X165976897Y-112624000D01*
X166056180Y-112544717D01*
X166190898Y-112343097D01*
X166283693Y-112119069D01*
X166331000Y-111881243D01*
X166331000Y-111638757D01*
X166283693Y-111400931D01*
X166190898Y-111176903D01*
X166056180Y-110975283D01*
X165884717Y-110803820D01*
X165683097Y-110669102D01*
X165459069Y-110576307D01*
X165221243Y-110529000D01*
X164978757Y-110529000D01*
X164740931Y-110576307D01*
X164516903Y-110669102D01*
X164315283Y-110803820D01*
X164143820Y-110975283D01*
X164009102Y-111176903D01*
X163916307Y-111400931D01*
X163869000Y-111638757D01*
X163869000Y-111881243D01*
X163916307Y-112119069D01*
X164009102Y-112343097D01*
X164143820Y-112544717D01*
X164223103Y-112624000D01*
X163436897Y-112624000D01*
X163516180Y-112544717D01*
X163650898Y-112343097D01*
X163743693Y-112119069D01*
X163791000Y-111881243D01*
X163791000Y-111638757D01*
X163743693Y-111400931D01*
X163650898Y-111176903D01*
X163516180Y-110975283D01*
X163344717Y-110803820D01*
X163143097Y-110669102D01*
X162919069Y-110576307D01*
X162681243Y-110529000D01*
X162438757Y-110529000D01*
X162200931Y-110576307D01*
X161976903Y-110669102D01*
X161775283Y-110803820D01*
X161603820Y-110975283D01*
X161469102Y-111176903D01*
X161376307Y-111400931D01*
X161329000Y-111638757D01*
X161329000Y-111881243D01*
X161376307Y-112119069D01*
X161469102Y-112343097D01*
X161603820Y-112544717D01*
X161683103Y-112624000D01*
X160896897Y-112624000D01*
X160976180Y-112544717D01*
X161110898Y-112343097D01*
X161203693Y-112119069D01*
X161251000Y-111881243D01*
X161251000Y-111638757D01*
X161203693Y-111400931D01*
X161110898Y-111176903D01*
X160976180Y-110975283D01*
X160804717Y-110803820D01*
X160603097Y-110669102D01*
X160379069Y-110576307D01*
X160141243Y-110529000D01*
X159898757Y-110529000D01*
X159660931Y-110576307D01*
X159436903Y-110669102D01*
X159235283Y-110803820D01*
X159063820Y-110975283D01*
X158929102Y-111176903D01*
X158836307Y-111400931D01*
X158789000Y-111638757D01*
X158789000Y-111881243D01*
X158836307Y-112119069D01*
X158929102Y-112343097D01*
X159063820Y-112544717D01*
X159143103Y-112624000D01*
X158356897Y-112624000D01*
X158436180Y-112544717D01*
X158570898Y-112343097D01*
X158663693Y-112119069D01*
X158711000Y-111881243D01*
X158711000Y-111638757D01*
X158663693Y-111400931D01*
X158570898Y-111176903D01*
X158436180Y-110975283D01*
X158264717Y-110803820D01*
X158063097Y-110669102D01*
X157839069Y-110576307D01*
X157601243Y-110529000D01*
X157358757Y-110529000D01*
X157120931Y-110576307D01*
X156896903Y-110669102D01*
X156695283Y-110803820D01*
X156523820Y-110975283D01*
X156389102Y-111176903D01*
X156296307Y-111400931D01*
X156249000Y-111638757D01*
X156249000Y-111881243D01*
X156296307Y-112119069D01*
X156389102Y-112343097D01*
X156523820Y-112544717D01*
X156603103Y-112624000D01*
X155816897Y-112624000D01*
X155896180Y-112544717D01*
X156030898Y-112343097D01*
X156123693Y-112119069D01*
X156171000Y-111881243D01*
X156171000Y-111638757D01*
X156123693Y-111400931D01*
X156030898Y-111176903D01*
X155896180Y-110975283D01*
X155724717Y-110803820D01*
X155523097Y-110669102D01*
X155299069Y-110576307D01*
X155061243Y-110529000D01*
X154818757Y-110529000D01*
X154580931Y-110576307D01*
X154356903Y-110669102D01*
X154155283Y-110803820D01*
X153983820Y-110975283D01*
X153849102Y-111176903D01*
X153756307Y-111400931D01*
X153709000Y-111638757D01*
X153709000Y-111881243D01*
X153756307Y-112119069D01*
X153849102Y-112343097D01*
X153983820Y-112544717D01*
X154063103Y-112624000D01*
X153276897Y-112624000D01*
X153356180Y-112544717D01*
X153490898Y-112343097D01*
X153583693Y-112119069D01*
X153631000Y-111881243D01*
X153631000Y-111638757D01*
X153583693Y-111400931D01*
X153490898Y-111176903D01*
X153356180Y-110975283D01*
X153184717Y-110803820D01*
X152983097Y-110669102D01*
X152759069Y-110576307D01*
X152521243Y-110529000D01*
X152278757Y-110529000D01*
X152040931Y-110576307D01*
X151816903Y-110669102D01*
X151615283Y-110803820D01*
X151443820Y-110975283D01*
X151309102Y-111176903D01*
X151216307Y-111400931D01*
X151169000Y-111638757D01*
X151169000Y-111881243D01*
X151216307Y-112119069D01*
X151309102Y-112343097D01*
X151443820Y-112544717D01*
X151523103Y-112624000D01*
X150736897Y-112624000D01*
X150816180Y-112544717D01*
X150950898Y-112343097D01*
X151043693Y-112119069D01*
X151091000Y-111881243D01*
X151091000Y-111638757D01*
X151043693Y-111400931D01*
X150950898Y-111176903D01*
X150816180Y-110975283D01*
X150644717Y-110803820D01*
X150443097Y-110669102D01*
X150219069Y-110576307D01*
X149981243Y-110529000D01*
X149738757Y-110529000D01*
X149500931Y-110576307D01*
X149276903Y-110669102D01*
X149075283Y-110803820D01*
X148903820Y-110975283D01*
X148769102Y-111176903D01*
X148676307Y-111400931D01*
X148629000Y-111638757D01*
X148629000Y-111881243D01*
X148676307Y-112119069D01*
X148769102Y-112343097D01*
X148903820Y-112544717D01*
X148983103Y-112624000D01*
X148196897Y-112624000D01*
X148276180Y-112544717D01*
X148410898Y-112343097D01*
X148503693Y-112119069D01*
X148551000Y-111881243D01*
X148551000Y-111638757D01*
X148503693Y-111400931D01*
X148410898Y-111176903D01*
X148276180Y-110975283D01*
X148104717Y-110803820D01*
X147903097Y-110669102D01*
X147679069Y-110576307D01*
X147441243Y-110529000D01*
X147198757Y-110529000D01*
X146960931Y-110576307D01*
X146736903Y-110669102D01*
X146535283Y-110803820D01*
X146363820Y-110975283D01*
X146229102Y-111176903D01*
X146136307Y-111400931D01*
X146089000Y-111638757D01*
X146089000Y-111881243D01*
X146136307Y-112119069D01*
X146229102Y-112343097D01*
X146363820Y-112544717D01*
X146443103Y-112624000D01*
X145656897Y-112624000D01*
X145736180Y-112544717D01*
X145870898Y-112343097D01*
X145963693Y-112119069D01*
X146011000Y-111881243D01*
X146011000Y-111638757D01*
X145963693Y-111400931D01*
X145870898Y-111176903D01*
X145736180Y-110975283D01*
X145564717Y-110803820D01*
X145363097Y-110669102D01*
X145139069Y-110576307D01*
X144901243Y-110529000D01*
X144658757Y-110529000D01*
X144420931Y-110576307D01*
X144196903Y-110669102D01*
X143995283Y-110803820D01*
X143823820Y-110975283D01*
X143689102Y-111176903D01*
X143596307Y-111400931D01*
X143549000Y-111638757D01*
X143549000Y-111881243D01*
X143596307Y-112119069D01*
X143689102Y-112343097D01*
X143823820Y-112544717D01*
X143903103Y-112624000D01*
X143124452Y-112624000D01*
X143204030Y-112544422D01*
X143132102Y-112472494D01*
X143310078Y-112380477D01*
X143410566Y-112159793D01*
X143466069Y-111923745D01*
X143474456Y-111681404D01*
X143435402Y-111442083D01*
X143350411Y-111214980D01*
X143310078Y-111139523D01*
X143132100Y-111047505D01*
X142419605Y-111760000D01*
X142433748Y-111774143D01*
X142254143Y-111953748D01*
X142240000Y-111939605D01*
X142225858Y-111953748D01*
X142046253Y-111774143D01*
X142060395Y-111760000D01*
X141347900Y-111047505D01*
X141169922Y-111139523D01*
X141069434Y-111360207D01*
X141013931Y-111596255D01*
X141005544Y-111838596D01*
X141044598Y-112077917D01*
X141129589Y-112305020D01*
X141169922Y-112380477D01*
X141347898Y-112472494D01*
X141275970Y-112544422D01*
X141355548Y-112624000D01*
X140576897Y-112624000D01*
X140656180Y-112544717D01*
X140790898Y-112343097D01*
X140883693Y-112119069D01*
X140931000Y-111881243D01*
X140931000Y-111638757D01*
X140883693Y-111400931D01*
X140790898Y-111176903D01*
X140656180Y-110975283D01*
X140548797Y-110867900D01*
X141527505Y-110867900D01*
X142240000Y-111580395D01*
X142952495Y-110867900D01*
X142860477Y-110689922D01*
X142639793Y-110589434D01*
X142403745Y-110533931D01*
X142161404Y-110525544D01*
X141922083Y-110564598D01*
X141694980Y-110649589D01*
X141619523Y-110689922D01*
X141527505Y-110867900D01*
X140548797Y-110867900D01*
X140484717Y-110803820D01*
X140283097Y-110669102D01*
X140059069Y-110576307D01*
X139821243Y-110529000D01*
X139578757Y-110529000D01*
X139340931Y-110576307D01*
X139116903Y-110669102D01*
X138915283Y-110803820D01*
X138743820Y-110975283D01*
X138609102Y-111176903D01*
X138516307Y-111400931D01*
X138469000Y-111638757D01*
X138469000Y-111881243D01*
X138516307Y-112119069D01*
X138609102Y-112343097D01*
X138743820Y-112544717D01*
X138823103Y-112624000D01*
X138049000Y-112624000D01*
X138049000Y-112611897D01*
X138116180Y-112544717D01*
X138250898Y-112343097D01*
X138343693Y-112119069D01*
X138391000Y-111881243D01*
X138391000Y-111638757D01*
X138343693Y-111400931D01*
X138250898Y-111176903D01*
X138116180Y-110975283D01*
X138049000Y-110908103D01*
X138049000Y-110329360D01*
X174899000Y-110329360D01*
X174899000Y-110650640D01*
X174961678Y-110965745D01*
X175084626Y-111262568D01*
X175263119Y-111529702D01*
X175490298Y-111756881D01*
X175757432Y-111935374D01*
X176054255Y-112058322D01*
X176369360Y-112121000D01*
X176690640Y-112121000D01*
X177005745Y-112058322D01*
X177302568Y-111935374D01*
X177569702Y-111756881D01*
X177796881Y-111529702D01*
X177975374Y-111262568D01*
X178098322Y-110965745D01*
X178161000Y-110650640D01*
X178161000Y-110329360D01*
X178098322Y-110014255D01*
X177975374Y-109717432D01*
X177796881Y-109450298D01*
X177569702Y-109223119D01*
X177302568Y-109044626D01*
X177005745Y-108921678D01*
X176690640Y-108859000D01*
X176369360Y-108859000D01*
X176054255Y-108921678D01*
X175757432Y-109044626D01*
X175490298Y-109223119D01*
X175263119Y-109450298D01*
X175084626Y-109717432D01*
X174961678Y-110014255D01*
X174899000Y-110329360D01*
X138049000Y-110329360D01*
X138049000Y-106388000D01*
X138263157Y-106388000D01*
X138263157Y-107988000D01*
X138270513Y-108062689D01*
X138292299Y-108134508D01*
X138327678Y-108200696D01*
X138375289Y-108258711D01*
X138433304Y-108306322D01*
X138499492Y-108341701D01*
X138571311Y-108363487D01*
X138646000Y-108370843D01*
X140246000Y-108370843D01*
X140320689Y-108363487D01*
X140392508Y-108341701D01*
X140458696Y-108306322D01*
X140516711Y-108258711D01*
X140564322Y-108200696D01*
X140599701Y-108134508D01*
X140621487Y-108062689D01*
X140628843Y-107988000D01*
X140628843Y-107071682D01*
X140805000Y-107071682D01*
X140805000Y-107304318D01*
X140850386Y-107532485D01*
X140939412Y-107747413D01*
X141068658Y-107940843D01*
X141233157Y-108105342D01*
X141426587Y-108234588D01*
X141641515Y-108323614D01*
X141869682Y-108369000D01*
X142102318Y-108369000D01*
X142330485Y-108323614D01*
X142545413Y-108234588D01*
X142738843Y-108105342D01*
X142903342Y-107940843D01*
X143032588Y-107747413D01*
X143121614Y-107532485D01*
X143167000Y-107304318D01*
X143167000Y-107071682D01*
X143345000Y-107071682D01*
X143345000Y-107304318D01*
X143390386Y-107532485D01*
X143479412Y-107747413D01*
X143608658Y-107940843D01*
X143773157Y-108105342D01*
X143966587Y-108234588D01*
X144181515Y-108323614D01*
X144409682Y-108369000D01*
X144642318Y-108369000D01*
X144870485Y-108323614D01*
X145085413Y-108234588D01*
X145278843Y-108105342D01*
X145443342Y-107940843D01*
X145572588Y-107747413D01*
X145661614Y-107532485D01*
X145707000Y-107304318D01*
X145707000Y-107071682D01*
X145885000Y-107071682D01*
X145885000Y-107304318D01*
X145930386Y-107532485D01*
X146019412Y-107747413D01*
X146148658Y-107940843D01*
X146313157Y-108105342D01*
X146506587Y-108234588D01*
X146721515Y-108323614D01*
X146949682Y-108369000D01*
X147182318Y-108369000D01*
X147410485Y-108323614D01*
X147625413Y-108234588D01*
X147818843Y-108105342D01*
X147983342Y-107940843D01*
X148112588Y-107747413D01*
X148201614Y-107532485D01*
X148247000Y-107304318D01*
X148247000Y-107071682D01*
X148201614Y-106843515D01*
X148159276Y-106741302D01*
X148897409Y-106003169D01*
X148914853Y-105988853D01*
X148929170Y-105971408D01*
X148971987Y-105919237D01*
X149014440Y-105839810D01*
X149014441Y-105839809D01*
X149040585Y-105753627D01*
X149047200Y-105686460D01*
X149047200Y-105686451D01*
X149049411Y-105664001D01*
X149047200Y-105641551D01*
X149047200Y-105091377D01*
X149148801Y-104989776D01*
X149148800Y-106099074D01*
X149046587Y-106141412D01*
X148853157Y-106270658D01*
X148688658Y-106435157D01*
X148559412Y-106628587D01*
X148470386Y-106843515D01*
X148425000Y-107071682D01*
X148425000Y-107304318D01*
X148470386Y-107532485D01*
X148559412Y-107747413D01*
X148688658Y-107940843D01*
X148853157Y-108105342D01*
X149046587Y-108234588D01*
X149261515Y-108323614D01*
X149489682Y-108369000D01*
X149722318Y-108369000D01*
X149950485Y-108323614D01*
X150165413Y-108234588D01*
X150358843Y-108105342D01*
X150523342Y-107940843D01*
X150652588Y-107747413D01*
X150741614Y-107532485D01*
X150787000Y-107304318D01*
X150787000Y-107071682D01*
X150741614Y-106843515D01*
X150652588Y-106628587D01*
X150523342Y-106435157D01*
X150358843Y-106270658D01*
X150165413Y-106141412D01*
X150063200Y-106099074D01*
X150063200Y-104506443D01*
X150429634Y-104140010D01*
X154792225Y-104140010D01*
X154812254Y-104146086D01*
X154879421Y-104152701D01*
X154879431Y-104152701D01*
X154901881Y-104154912D01*
X154924331Y-104152701D01*
X156835239Y-104152701D01*
X156857689Y-104154912D01*
X156880139Y-104152701D01*
X156880149Y-104152701D01*
X156947316Y-104146086D01*
X157033498Y-104119942D01*
X157112925Y-104077488D01*
X157182542Y-104020354D01*
X157196863Y-104002904D01*
X157352867Y-103846900D01*
X157357892Y-103847900D01*
X157500488Y-103847900D01*
X157640344Y-103820081D01*
X157772085Y-103765512D01*
X157890650Y-103686290D01*
X157991480Y-103585460D01*
X158070702Y-103466895D01*
X158125271Y-103335154D01*
X158153090Y-103195298D01*
X158153090Y-103052702D01*
X158125271Y-102912846D01*
X158070702Y-102781105D01*
X157991480Y-102662540D01*
X157890650Y-102561710D01*
X157772085Y-102482488D01*
X157640344Y-102427919D01*
X157500488Y-102400100D01*
X157357892Y-102400100D01*
X157218036Y-102427919D01*
X157086295Y-102482488D01*
X156967730Y-102561710D01*
X156866900Y-102662540D01*
X156819595Y-102733337D01*
X156772290Y-102662540D01*
X156671460Y-102561710D01*
X156552895Y-102482488D01*
X156421154Y-102427919D01*
X156281298Y-102400100D01*
X156138702Y-102400100D01*
X155998846Y-102427919D01*
X155867105Y-102482488D01*
X155748540Y-102561710D01*
X155647710Y-102662540D01*
X155644864Y-102666800D01*
X154962449Y-102666800D01*
X154939999Y-102664589D01*
X154917549Y-102666800D01*
X154917540Y-102666800D01*
X154850373Y-102673415D01*
X154764191Y-102699559D01*
X154684764Y-102742013D01*
X154615147Y-102799147D01*
X154600826Y-102816597D01*
X154496623Y-102920800D01*
X150136449Y-102920800D01*
X150113999Y-102918589D01*
X150091549Y-102920800D01*
X150091540Y-102920800D01*
X150024373Y-102927415D01*
X149938191Y-102953559D01*
X149901217Y-102973322D01*
X149858763Y-102996013D01*
X149806592Y-103038830D01*
X149789147Y-103053147D01*
X149774830Y-103070592D01*
X148282593Y-104562830D01*
X148265148Y-104577147D01*
X148250831Y-104594592D01*
X148250830Y-104594593D01*
X148208013Y-104646765D01*
X148180065Y-104699053D01*
X148165560Y-104726191D01*
X148150306Y-104776477D01*
X148139416Y-104812374D01*
X148130589Y-104902000D01*
X148132801Y-104924459D01*
X148132800Y-105474622D01*
X147512698Y-106094724D01*
X147410485Y-106052386D01*
X147182318Y-106007000D01*
X146949682Y-106007000D01*
X146721515Y-106052386D01*
X146506587Y-106141412D01*
X146313157Y-106270658D01*
X146148658Y-106435157D01*
X146019412Y-106628587D01*
X145930386Y-106843515D01*
X145885000Y-107071682D01*
X145707000Y-107071682D01*
X145661614Y-106843515D01*
X145572588Y-106628587D01*
X145443342Y-106435157D01*
X145278843Y-106270658D01*
X145085413Y-106141412D01*
X144870485Y-106052386D01*
X144642318Y-106007000D01*
X144409682Y-106007000D01*
X144181515Y-106052386D01*
X143966587Y-106141412D01*
X143773157Y-106270658D01*
X143608658Y-106435157D01*
X143479412Y-106628587D01*
X143390386Y-106843515D01*
X143345000Y-107071682D01*
X143167000Y-107071682D01*
X143121614Y-106843515D01*
X143032588Y-106628587D01*
X142903342Y-106435157D01*
X142738843Y-106270658D01*
X142545413Y-106141412D01*
X142330485Y-106052386D01*
X142102318Y-106007000D01*
X141869682Y-106007000D01*
X141641515Y-106052386D01*
X141426587Y-106141412D01*
X141233157Y-106270658D01*
X141068658Y-106435157D01*
X140939412Y-106628587D01*
X140850386Y-106843515D01*
X140805000Y-107071682D01*
X140628843Y-107071682D01*
X140628843Y-106388000D01*
X140621487Y-106313311D01*
X140599701Y-106241492D01*
X140564322Y-106175304D01*
X140516711Y-106117289D01*
X140458696Y-106069678D01*
X140392508Y-106034299D01*
X140320689Y-106012513D01*
X140246000Y-106005157D01*
X138646000Y-106005157D01*
X138571311Y-106012513D01*
X138499492Y-106034299D01*
X138433304Y-106069678D01*
X138375289Y-106117289D01*
X138327678Y-106175304D01*
X138292299Y-106241492D01*
X138270513Y-106313311D01*
X138263157Y-106388000D01*
X138049000Y-106388000D01*
X138049000Y-102197748D01*
X158495534Y-102272717D01*
X158520320Y-102270368D01*
X158544170Y-102263228D01*
X158566170Y-102251573D01*
X158585473Y-102235849D01*
X158601337Y-102216662D01*
X158613154Y-102194749D01*
X158620468Y-102170951D01*
X158623000Y-102145718D01*
X158623000Y-95377295D01*
X162700755Y-95386758D01*
G37*
X162700755Y-95386758D02*
X162606540Y-95449710D01*
X162505710Y-95550540D01*
X162502864Y-95554800D01*
X162328449Y-95554800D01*
X162305999Y-95552589D01*
X162283549Y-95554800D01*
X162283540Y-95554800D01*
X162216373Y-95561415D01*
X162130191Y-95587559D01*
X162121559Y-95592173D01*
X162050763Y-95630013D01*
X162015029Y-95659340D01*
X161981147Y-95687147D01*
X161966830Y-95704592D01*
X161490597Y-96180826D01*
X161473147Y-96195147D01*
X161416013Y-96264765D01*
X161373559Y-96344192D01*
X161347415Y-96430374D01*
X161340800Y-96497541D01*
X161340800Y-96497550D01*
X161338589Y-96520000D01*
X161340800Y-96542450D01*
X161340801Y-104458621D01*
X161100623Y-104698800D01*
X152930450Y-104698800D01*
X152908000Y-104696589D01*
X152885550Y-104698800D01*
X152885540Y-104698800D01*
X152818373Y-104705415D01*
X152752249Y-104725474D01*
X152732190Y-104731559D01*
X152652764Y-104774013D01*
X152600592Y-104816829D01*
X152600586Y-104816835D01*
X152583147Y-104831147D01*
X152568835Y-104848587D01*
X151838597Y-105578826D01*
X151821147Y-105593147D01*
X151764013Y-105662765D01*
X151721559Y-105742192D01*
X151695415Y-105828374D01*
X151688800Y-105895541D01*
X151688800Y-105895550D01*
X151686589Y-105918000D01*
X151688800Y-105940450D01*
X151688800Y-106099074D01*
X151586587Y-106141412D01*
X151393157Y-106270658D01*
X151228658Y-106435157D01*
X151099412Y-106628587D01*
X151010386Y-106843515D01*
X150965000Y-107071682D01*
X150965000Y-107304318D01*
X151010386Y-107532485D01*
X151099412Y-107747413D01*
X151228658Y-107940843D01*
X151393157Y-108105342D01*
X151586587Y-108234588D01*
X151801515Y-108323614D01*
X152029682Y-108369000D01*
X152262318Y-108369000D01*
X152490485Y-108323614D01*
X152705413Y-108234588D01*
X152898843Y-108105342D01*
X153063342Y-107940843D01*
X153192588Y-107747413D01*
X153281614Y-107532485D01*
X153288649Y-107497115D01*
X153546165Y-107497115D01*
X153628372Y-107713546D01*
X153751223Y-107909781D01*
X153909997Y-108078278D01*
X154098592Y-108212562D01*
X154309761Y-108307473D01*
X154376886Y-108327829D01*
X154559000Y-108266297D01*
X154559000Y-107315000D01*
X154813000Y-107315000D01*
X154813000Y-108266297D01*
X154995114Y-108327829D01*
X155062239Y-108307473D01*
X155273408Y-108212562D01*
X155462003Y-108078278D01*
X155620777Y-107909781D01*
X155743628Y-107713546D01*
X155825835Y-107497115D01*
X156086165Y-107497115D01*
X156168372Y-107713546D01*
X156291223Y-107909781D01*
X156449997Y-108078278D01*
X156638592Y-108212562D01*
X156849761Y-108307473D01*
X156916886Y-108327829D01*
X157099000Y-108266297D01*
X157099000Y-107315000D01*
X157353000Y-107315000D01*
X157353000Y-108266297D01*
X157535114Y-108327829D01*
X157602239Y-108307473D01*
X157813408Y-108212562D01*
X158002003Y-108078278D01*
X158160777Y-107909781D01*
X158283628Y-107713546D01*
X158365835Y-107497115D01*
X158304908Y-107315000D01*
X157353000Y-107315000D01*
X157099000Y-107315000D01*
X156147092Y-107315000D01*
X156086165Y-107497115D01*
X155825835Y-107497115D01*
X155764908Y-107315000D01*
X154813000Y-107315000D01*
X154559000Y-107315000D01*
X153607092Y-107315000D01*
X153546165Y-107497115D01*
X153288649Y-107497115D01*
X153327000Y-107304318D01*
X153327000Y-107071682D01*
X153288650Y-106878885D01*
X153546165Y-106878885D01*
X153607092Y-107061000D01*
X154559000Y-107061000D01*
X154559000Y-106109703D01*
X154813000Y-106109703D01*
X154813000Y-107061000D01*
X155764908Y-107061000D01*
X155825835Y-106878885D01*
X156086165Y-106878885D01*
X156147092Y-107061000D01*
X157099000Y-107061000D01*
X157099000Y-106109703D01*
X157353000Y-106109703D01*
X157353000Y-107061000D01*
X158304908Y-107061000D01*
X158365835Y-106878885D01*
X158283628Y-106662454D01*
X158160777Y-106466219D01*
X158002003Y-106297722D01*
X157813408Y-106163438D01*
X157602239Y-106068527D01*
X157535114Y-106048171D01*
X157353000Y-106109703D01*
X157099000Y-106109703D01*
X156916886Y-106048171D01*
X156849761Y-106068527D01*
X156638592Y-106163438D01*
X156449997Y-106297722D01*
X156291223Y-106466219D01*
X156168372Y-106662454D01*
X156086165Y-106878885D01*
X155825835Y-106878885D01*
X155743628Y-106662454D01*
X155620777Y-106466219D01*
X155462003Y-106297722D01*
X155273408Y-106163438D01*
X155062239Y-106068527D01*
X154995114Y-106048171D01*
X154813000Y-106109703D01*
X154559000Y-106109703D01*
X154376886Y-106048171D01*
X154309761Y-106068527D01*
X154098592Y-106163438D01*
X153909997Y-106297722D01*
X153751223Y-106466219D01*
X153628372Y-106662454D01*
X153546165Y-106878885D01*
X153288650Y-106878885D01*
X153281614Y-106843515D01*
X153192588Y-106628587D01*
X153063342Y-106435157D01*
X152898843Y-106270658D01*
X152705413Y-106141412D01*
X152609071Y-106101506D01*
X153097379Y-105613200D01*
X161267550Y-105613200D01*
X161290000Y-105615411D01*
X161312450Y-105613200D01*
X161312460Y-105613200D01*
X161379627Y-105606585D01*
X161465809Y-105580441D01*
X161545236Y-105537987D01*
X161614853Y-105480853D01*
X161629174Y-105463403D01*
X161992577Y-105100000D01*
X169007157Y-105100000D01*
X169014513Y-105174689D01*
X169036299Y-105246508D01*
X169071678Y-105312696D01*
X169119289Y-105370711D01*
X169177304Y-105418322D01*
X169243492Y-105453701D01*
X169315311Y-105475487D01*
X169390000Y-105482843D01*
X170917750Y-105481000D01*
X171013000Y-105385750D01*
X171013000Y-104727000D01*
X171267000Y-104727000D01*
X171267000Y-105385750D01*
X171362250Y-105481000D01*
X172890000Y-105482843D01*
X172964689Y-105475487D01*
X173036508Y-105453701D01*
X173102696Y-105418322D01*
X173160711Y-105370711D01*
X173208322Y-105312696D01*
X173243701Y-105246508D01*
X173265487Y-105174689D01*
X173272843Y-105100000D01*
X173271000Y-104822250D01*
X173175750Y-104727000D01*
X171267000Y-104727000D01*
X171013000Y-104727000D01*
X169104250Y-104727000D01*
X169009000Y-104822250D01*
X169007157Y-105100000D01*
X161992577Y-105100000D01*
X162105408Y-104987170D01*
X162122853Y-104972853D01*
X162137170Y-104955408D01*
X162179987Y-104903237D01*
X162209194Y-104848593D01*
X162222441Y-104823809D01*
X162248585Y-104737627D01*
X162255200Y-104670460D01*
X162255200Y-104670451D01*
X162257411Y-104648001D01*
X162255200Y-104625551D01*
X162255200Y-104100000D01*
X169007157Y-104100000D01*
X169009000Y-104377750D01*
X169104250Y-104473000D01*
X171013000Y-104473000D01*
X171013000Y-103814250D01*
X171267000Y-103814250D01*
X171267000Y-104473000D01*
X173175750Y-104473000D01*
X173271000Y-104377750D01*
X173272843Y-104100000D01*
X173265487Y-104025311D01*
X173243701Y-103953492D01*
X173208322Y-103887304D01*
X173160711Y-103829289D01*
X173102696Y-103781678D01*
X173036508Y-103746299D01*
X172964689Y-103724513D01*
X172890000Y-103717157D01*
X171362250Y-103719000D01*
X171267000Y-103814250D01*
X171013000Y-103814250D01*
X170917750Y-103719000D01*
X169390000Y-103717157D01*
X169315311Y-103724513D01*
X169243492Y-103746299D01*
X169177304Y-103781678D01*
X169119289Y-103829289D01*
X169071678Y-103887304D01*
X169036299Y-103953492D01*
X169014513Y-104025311D01*
X169007157Y-104100000D01*
X162255200Y-104100000D01*
X162255200Y-102350000D01*
X169007157Y-102350000D01*
X169007157Y-102850000D01*
X169019317Y-102973462D01*
X169055329Y-103092179D01*
X169113810Y-103201589D01*
X169192512Y-103297488D01*
X169288411Y-103376190D01*
X169397821Y-103434671D01*
X169516538Y-103470683D01*
X169640000Y-103482843D01*
X172640000Y-103482843D01*
X172763462Y-103470683D01*
X172882179Y-103434671D01*
X172991589Y-103376190D01*
X173087488Y-103297488D01*
X173166190Y-103201589D01*
X173224671Y-103092179D01*
X173235282Y-103057200D01*
X173924154Y-103057200D01*
X173928919Y-103081154D01*
X173983488Y-103212895D01*
X174062710Y-103331460D01*
X174163540Y-103432290D01*
X174282105Y-103511512D01*
X174413846Y-103566081D01*
X174553702Y-103593900D01*
X174696298Y-103593900D01*
X174836154Y-103566081D01*
X174967895Y-103511512D01*
X175086460Y-103432290D01*
X175187290Y-103331460D01*
X175266512Y-103212895D01*
X175321081Y-103081154D01*
X175348900Y-102941298D01*
X175348900Y-102798702D01*
X175321081Y-102658846D01*
X175266512Y-102527105D01*
X175187290Y-102408540D01*
X175086460Y-102307710D01*
X174967895Y-102228488D01*
X174836154Y-102173919D01*
X174696298Y-102146100D01*
X174553702Y-102146100D01*
X174481223Y-102160517D01*
X174444627Y-102149415D01*
X174377460Y-102142800D01*
X174377450Y-102142800D01*
X174355000Y-102140589D01*
X174332550Y-102142800D01*
X173235282Y-102142800D01*
X173224671Y-102107821D01*
X173166190Y-101998411D01*
X173087488Y-101902512D01*
X172991589Y-101823810D01*
X172882179Y-101765329D01*
X172763462Y-101729317D01*
X172640000Y-101717157D01*
X169640000Y-101717157D01*
X169516538Y-101729317D01*
X169397821Y-101765329D01*
X169288411Y-101823810D01*
X169192512Y-101902512D01*
X169113810Y-101998411D01*
X169055329Y-102107821D01*
X169019317Y-102226538D01*
X169007157Y-102350000D01*
X162255200Y-102350000D01*
X162255200Y-97464702D01*
X166662100Y-97464702D01*
X166662100Y-97607298D01*
X166689919Y-97747154D01*
X166744488Y-97878895D01*
X166823710Y-97997460D01*
X166924540Y-98098290D01*
X167026853Y-98166653D01*
X166998488Y-98209105D01*
X166943919Y-98340846D01*
X166916100Y-98480702D01*
X166916100Y-98623298D01*
X166943919Y-98763154D01*
X166998488Y-98894895D01*
X167077710Y-99013460D01*
X167178540Y-99114290D01*
X167182800Y-99117137D01*
X167182801Y-100053540D01*
X167180589Y-100076000D01*
X167182801Y-100098460D01*
X167185653Y-100127413D01*
X167189416Y-100165626D01*
X167215560Y-100251809D01*
X167237359Y-100292592D01*
X167258014Y-100331236D01*
X167315148Y-100400853D01*
X167332592Y-100415169D01*
X167824830Y-100907408D01*
X167839147Y-100924853D01*
X167908764Y-100981987D01*
X167988191Y-101024441D01*
X168074373Y-101050585D01*
X168141540Y-101057200D01*
X168141550Y-101057200D01*
X168164000Y-101059411D01*
X168186450Y-101057200D01*
X169044718Y-101057200D01*
X169055329Y-101092179D01*
X169113810Y-101201589D01*
X169192512Y-101297488D01*
X169288411Y-101376190D01*
X169397821Y-101434671D01*
X169516538Y-101470683D01*
X169640000Y-101482843D01*
X172640000Y-101482843D01*
X172763462Y-101470683D01*
X172882179Y-101434671D01*
X172991589Y-101376190D01*
X173087488Y-101297488D01*
X173166190Y-101201589D01*
X173224671Y-101092179D01*
X173260683Y-100973462D01*
X173272843Y-100850000D01*
X173272843Y-100350000D01*
X173260683Y-100226538D01*
X173224671Y-100107821D01*
X173166190Y-99998411D01*
X173087488Y-99902512D01*
X172991589Y-99823810D01*
X172882179Y-99765329D01*
X172763462Y-99729317D01*
X172640000Y-99717157D01*
X169640000Y-99717157D01*
X169516538Y-99729317D01*
X169397821Y-99765329D01*
X169288411Y-99823810D01*
X169192512Y-99902512D01*
X169113810Y-99998411D01*
X169055329Y-100107821D01*
X169044718Y-100142800D01*
X168353378Y-100142800D01*
X168097200Y-99886623D01*
X168097200Y-99117136D01*
X168101460Y-99114290D01*
X168202290Y-99013460D01*
X168281512Y-98894895D01*
X168336081Y-98763154D01*
X168363900Y-98623298D01*
X168363900Y-98480702D01*
X168336081Y-98340846D01*
X168281512Y-98209105D01*
X168202290Y-98090540D01*
X168104950Y-97993200D01*
X169118087Y-97993200D01*
X169113810Y-97998411D01*
X169055329Y-98107821D01*
X169019317Y-98226538D01*
X169007157Y-98350000D01*
X169007157Y-98850000D01*
X169019317Y-98973462D01*
X169055329Y-99092179D01*
X169113810Y-99201589D01*
X169192512Y-99297488D01*
X169288411Y-99376190D01*
X169397821Y-99434671D01*
X169516538Y-99470683D01*
X169640000Y-99482843D01*
X172640000Y-99482843D01*
X172763462Y-99470683D01*
X172882179Y-99434671D01*
X172991589Y-99376190D01*
X173087488Y-99297488D01*
X173166190Y-99201589D01*
X173224671Y-99092179D01*
X173260683Y-98973462D01*
X173272843Y-98850000D01*
X173272843Y-98350000D01*
X173260683Y-98226538D01*
X173224671Y-98107821D01*
X173166190Y-97998411D01*
X173087488Y-97902512D01*
X172991589Y-97823810D01*
X172882179Y-97765329D01*
X172763462Y-97729317D01*
X172640000Y-97717157D01*
X170903734Y-97717157D01*
X170415174Y-97228597D01*
X170400853Y-97211147D01*
X170331236Y-97154013D01*
X170251809Y-97111559D01*
X170165627Y-97085415D01*
X170098460Y-97078800D01*
X170098450Y-97078800D01*
X170076000Y-97076589D01*
X170053550Y-97078800D01*
X167951136Y-97078800D01*
X167948290Y-97074540D01*
X167847460Y-96973710D01*
X167728895Y-96894488D01*
X167597154Y-96839919D01*
X167457298Y-96812100D01*
X167314702Y-96812100D01*
X167174846Y-96839919D01*
X167043105Y-96894488D01*
X166924540Y-96973710D01*
X166823710Y-97074540D01*
X166744488Y-97193105D01*
X166689919Y-97324846D01*
X166662100Y-97464702D01*
X162255200Y-97464702D01*
X162255200Y-96709377D01*
X162495378Y-96469200D01*
X162502864Y-96469200D01*
X162505710Y-96473460D01*
X162606540Y-96574290D01*
X162725105Y-96653512D01*
X162856846Y-96708081D01*
X162996702Y-96735900D01*
X163139298Y-96735900D01*
X163279154Y-96708081D01*
X163410895Y-96653512D01*
X163529460Y-96574290D01*
X163630290Y-96473460D01*
X163709512Y-96354895D01*
X163764081Y-96223154D01*
X163791900Y-96083298D01*
X163791900Y-95940702D01*
X163764081Y-95800846D01*
X163709512Y-95669105D01*
X163630290Y-95550540D01*
X163529460Y-95449710D01*
X163437805Y-95388469D01*
X174904900Y-95415081D01*
X174855329Y-95507821D01*
X174819317Y-95626538D01*
X174807157Y-95750000D01*
X174807157Y-96750000D01*
X174819317Y-96873462D01*
X174855329Y-96992179D01*
X174913810Y-97101589D01*
X174992512Y-97197488D01*
X175088411Y-97276190D01*
X175197821Y-97334671D01*
X175316538Y-97370683D01*
X175440000Y-97382843D01*
X178340000Y-97382843D01*
X178463462Y-97370683D01*
X178582179Y-97334671D01*
X178664000Y-97290937D01*
X178664001Y-105909064D01*
X178582179Y-105865329D01*
X178463462Y-105829317D01*
X178340000Y-105817157D01*
X175440000Y-105817157D01*
X175316538Y-105829317D01*
X175197821Y-105865329D01*
X175088411Y-105923810D01*
X174992512Y-106002512D01*
X174913810Y-106098411D01*
X174855329Y-106207821D01*
X174819317Y-106326538D01*
X174807157Y-106450000D01*
X174807157Y-107450000D01*
X174819317Y-107573462D01*
X174855329Y-107692179D01*
X174913810Y-107801589D01*
X174992512Y-107897488D01*
X175088411Y-107976190D01*
X175197821Y-108034671D01*
X175316538Y-108070683D01*
X175440000Y-108082843D01*
X178340000Y-108082843D01*
X178463462Y-108070683D01*
X178582179Y-108034671D01*
X178664001Y-107990936D01*
X178664001Y-110470136D01*
X178621449Y-110904115D01*
X178501181Y-111302464D01*
X178305831Y-111669862D01*
X178042845Y-111992315D01*
X177722226Y-112257554D01*
X177356204Y-112455461D01*
X176958708Y-112578506D01*
X176525863Y-112624000D01*
X173596897Y-112624000D01*
X173676180Y-112544717D01*
X173810898Y-112343097D01*
X173903693Y-112119069D01*
X173951000Y-111881243D01*
X173951000Y-111638757D01*
X173903693Y-111400931D01*
X173810898Y-111176903D01*
X173676180Y-110975283D01*
X173504717Y-110803820D01*
X173303097Y-110669102D01*
X173079069Y-110576307D01*
X172841243Y-110529000D01*
X172598757Y-110529000D01*
X172360931Y-110576307D01*
X172136903Y-110669102D01*
X171935283Y-110803820D01*
X171763820Y-110975283D01*
X171629102Y-111176903D01*
X171536307Y-111400931D01*
X171489000Y-111638757D01*
X171489000Y-111881243D01*
X171536307Y-112119069D01*
X171629102Y-112343097D01*
X171763820Y-112544717D01*
X171843103Y-112624000D01*
X171056897Y-112624000D01*
X171136180Y-112544717D01*
X171270898Y-112343097D01*
X171363693Y-112119069D01*
X171411000Y-111881243D01*
X171411000Y-111638757D01*
X171363693Y-111400931D01*
X171270898Y-111176903D01*
X171136180Y-110975283D01*
X170964717Y-110803820D01*
X170763097Y-110669102D01*
X170539069Y-110576307D01*
X170301243Y-110529000D01*
X170058757Y-110529000D01*
X169820931Y-110576307D01*
X169596903Y-110669102D01*
X169395283Y-110803820D01*
X169223820Y-110975283D01*
X169089102Y-111176903D01*
X168996307Y-111400931D01*
X168949000Y-111638757D01*
X168949000Y-111881243D01*
X168996307Y-112119069D01*
X169089102Y-112343097D01*
X169223820Y-112544717D01*
X169303103Y-112624000D01*
X168516897Y-112624000D01*
X168596180Y-112544717D01*
X168730898Y-112343097D01*
X168823693Y-112119069D01*
X168871000Y-111881243D01*
X168871000Y-111638757D01*
X168823693Y-111400931D01*
X168730898Y-111176903D01*
X168596180Y-110975283D01*
X168424717Y-110803820D01*
X168223097Y-110669102D01*
X167999069Y-110576307D01*
X167761243Y-110529000D01*
X167518757Y-110529000D01*
X167280931Y-110576307D01*
X167056903Y-110669102D01*
X166855283Y-110803820D01*
X166683820Y-110975283D01*
X166549102Y-111176903D01*
X166456307Y-111400931D01*
X166409000Y-111638757D01*
X166409000Y-111881243D01*
X166456307Y-112119069D01*
X166549102Y-112343097D01*
X166683820Y-112544717D01*
X166763103Y-112624000D01*
X165976897Y-112624000D01*
X166056180Y-112544717D01*
X166190898Y-112343097D01*
X166283693Y-112119069D01*
X166331000Y-111881243D01*
X166331000Y-111638757D01*
X166283693Y-111400931D01*
X166190898Y-111176903D01*
X166056180Y-110975283D01*
X165884717Y-110803820D01*
X165683097Y-110669102D01*
X165459069Y-110576307D01*
X165221243Y-110529000D01*
X164978757Y-110529000D01*
X164740931Y-110576307D01*
X164516903Y-110669102D01*
X164315283Y-110803820D01*
X164143820Y-110975283D01*
X164009102Y-111176903D01*
X163916307Y-111400931D01*
X163869000Y-111638757D01*
X163869000Y-111881243D01*
X163916307Y-112119069D01*
X164009102Y-112343097D01*
X164143820Y-112544717D01*
X164223103Y-112624000D01*
X163436897Y-112624000D01*
X163516180Y-112544717D01*
X163650898Y-112343097D01*
X163743693Y-112119069D01*
X163791000Y-111881243D01*
X163791000Y-111638757D01*
X163743693Y-111400931D01*
X163650898Y-111176903D01*
X163516180Y-110975283D01*
X163344717Y-110803820D01*
X163143097Y-110669102D01*
X162919069Y-110576307D01*
X162681243Y-110529000D01*
X162438757Y-110529000D01*
X162200931Y-110576307D01*
X161976903Y-110669102D01*
X161775283Y-110803820D01*
X161603820Y-110975283D01*
X161469102Y-111176903D01*
X161376307Y-111400931D01*
X161329000Y-111638757D01*
X161329000Y-111881243D01*
X161376307Y-112119069D01*
X161469102Y-112343097D01*
X161603820Y-112544717D01*
X161683103Y-112624000D01*
X160896897Y-112624000D01*
X160976180Y-112544717D01*
X161110898Y-112343097D01*
X161203693Y-112119069D01*
X161251000Y-111881243D01*
X161251000Y-111638757D01*
X161203693Y-111400931D01*
X161110898Y-111176903D01*
X160976180Y-110975283D01*
X160804717Y-110803820D01*
X160603097Y-110669102D01*
X160379069Y-110576307D01*
X160141243Y-110529000D01*
X159898757Y-110529000D01*
X159660931Y-110576307D01*
X159436903Y-110669102D01*
X159235283Y-110803820D01*
X159063820Y-110975283D01*
X158929102Y-111176903D01*
X158836307Y-111400931D01*
X158789000Y-111638757D01*
X158789000Y-111881243D01*
X158836307Y-112119069D01*
X158929102Y-112343097D01*
X159063820Y-112544717D01*
X159143103Y-112624000D01*
X158356897Y-112624000D01*
X158436180Y-112544717D01*
X158570898Y-112343097D01*
X158663693Y-112119069D01*
X158711000Y-111881243D01*
X158711000Y-111638757D01*
X158663693Y-111400931D01*
X158570898Y-111176903D01*
X158436180Y-110975283D01*
X158264717Y-110803820D01*
X158063097Y-110669102D01*
X157839069Y-110576307D01*
X157601243Y-110529000D01*
X157358757Y-110529000D01*
X157120931Y-110576307D01*
X156896903Y-110669102D01*
X156695283Y-110803820D01*
X156523820Y-110975283D01*
X156389102Y-111176903D01*
X156296307Y-111400931D01*
X156249000Y-111638757D01*
X156249000Y-111881243D01*
X156296307Y-112119069D01*
X156389102Y-112343097D01*
X156523820Y-112544717D01*
X156603103Y-112624000D01*
X155816897Y-112624000D01*
X155896180Y-112544717D01*
X156030898Y-112343097D01*
X156123693Y-112119069D01*
X156171000Y-111881243D01*
X156171000Y-111638757D01*
X156123693Y-111400931D01*
X156030898Y-111176903D01*
X155896180Y-110975283D01*
X155724717Y-110803820D01*
X155523097Y-110669102D01*
X155299069Y-110576307D01*
X155061243Y-110529000D01*
X154818757Y-110529000D01*
X154580931Y-110576307D01*
X154356903Y-110669102D01*
X154155283Y-110803820D01*
X153983820Y-110975283D01*
X153849102Y-111176903D01*
X153756307Y-111400931D01*
X153709000Y-111638757D01*
X153709000Y-111881243D01*
X153756307Y-112119069D01*
X153849102Y-112343097D01*
X153983820Y-112544717D01*
X154063103Y-112624000D01*
X153276897Y-112624000D01*
X153356180Y-112544717D01*
X153490898Y-112343097D01*
X153583693Y-112119069D01*
X153631000Y-111881243D01*
X153631000Y-111638757D01*
X153583693Y-111400931D01*
X153490898Y-111176903D01*
X153356180Y-110975283D01*
X153184717Y-110803820D01*
X152983097Y-110669102D01*
X152759069Y-110576307D01*
X152521243Y-110529000D01*
X152278757Y-110529000D01*
X152040931Y-110576307D01*
X151816903Y-110669102D01*
X151615283Y-110803820D01*
X151443820Y-110975283D01*
X151309102Y-111176903D01*
X151216307Y-111400931D01*
X151169000Y-111638757D01*
X151169000Y-111881243D01*
X151216307Y-112119069D01*
X151309102Y-112343097D01*
X151443820Y-112544717D01*
X151523103Y-112624000D01*
X150736897Y-112624000D01*
X150816180Y-112544717D01*
X150950898Y-112343097D01*
X151043693Y-112119069D01*
X151091000Y-111881243D01*
X151091000Y-111638757D01*
X151043693Y-111400931D01*
X150950898Y-111176903D01*
X150816180Y-110975283D01*
X150644717Y-110803820D01*
X150443097Y-110669102D01*
X150219069Y-110576307D01*
X149981243Y-110529000D01*
X149738757Y-110529000D01*
X149500931Y-110576307D01*
X149276903Y-110669102D01*
X149075283Y-110803820D01*
X148903820Y-110975283D01*
X148769102Y-111176903D01*
X148676307Y-111400931D01*
X148629000Y-111638757D01*
X148629000Y-111881243D01*
X148676307Y-112119069D01*
X148769102Y-112343097D01*
X148903820Y-112544717D01*
X148983103Y-112624000D01*
X148196897Y-112624000D01*
X148276180Y-112544717D01*
X148410898Y-112343097D01*
X148503693Y-112119069D01*
X148551000Y-111881243D01*
X148551000Y-111638757D01*
X148503693Y-111400931D01*
X148410898Y-111176903D01*
X148276180Y-110975283D01*
X148104717Y-110803820D01*
X147903097Y-110669102D01*
X147679069Y-110576307D01*
X147441243Y-110529000D01*
X147198757Y-110529000D01*
X146960931Y-110576307D01*
X146736903Y-110669102D01*
X146535283Y-110803820D01*
X146363820Y-110975283D01*
X146229102Y-111176903D01*
X146136307Y-111400931D01*
X146089000Y-111638757D01*
X146089000Y-111881243D01*
X146136307Y-112119069D01*
X146229102Y-112343097D01*
X146363820Y-112544717D01*
X146443103Y-112624000D01*
X145656897Y-112624000D01*
X145736180Y-112544717D01*
X145870898Y-112343097D01*
X145963693Y-112119069D01*
X146011000Y-111881243D01*
X146011000Y-111638757D01*
X145963693Y-111400931D01*
X145870898Y-111176903D01*
X145736180Y-110975283D01*
X145564717Y-110803820D01*
X145363097Y-110669102D01*
X145139069Y-110576307D01*
X144901243Y-110529000D01*
X144658757Y-110529000D01*
X144420931Y-110576307D01*
X144196903Y-110669102D01*
X143995283Y-110803820D01*
X143823820Y-110975283D01*
X143689102Y-111176903D01*
X143596307Y-111400931D01*
X143549000Y-111638757D01*
X143549000Y-111881243D01*
X143596307Y-112119069D01*
X143689102Y-112343097D01*
X143823820Y-112544717D01*
X143903103Y-112624000D01*
X143124452Y-112624000D01*
X143204030Y-112544422D01*
X143132102Y-112472494D01*
X143310078Y-112380477D01*
X143410566Y-112159793D01*
X143466069Y-111923745D01*
X143474456Y-111681404D01*
X143435402Y-111442083D01*
X143350411Y-111214980D01*
X143310078Y-111139523D01*
X143132100Y-111047505D01*
X142419605Y-111760000D01*
X142433748Y-111774143D01*
X142254143Y-111953748D01*
X142240000Y-111939605D01*
X142225858Y-111953748D01*
X142046253Y-111774143D01*
X142060395Y-111760000D01*
X141347900Y-111047505D01*
X141169922Y-111139523D01*
X141069434Y-111360207D01*
X141013931Y-111596255D01*
X141005544Y-111838596D01*
X141044598Y-112077917D01*
X141129589Y-112305020D01*
X141169922Y-112380477D01*
X141347898Y-112472494D01*
X141275970Y-112544422D01*
X141355548Y-112624000D01*
X140576897Y-112624000D01*
X140656180Y-112544717D01*
X140790898Y-112343097D01*
X140883693Y-112119069D01*
X140931000Y-111881243D01*
X140931000Y-111638757D01*
X140883693Y-111400931D01*
X140790898Y-111176903D01*
X140656180Y-110975283D01*
X140548797Y-110867900D01*
X141527505Y-110867900D01*
X142240000Y-111580395D01*
X142952495Y-110867900D01*
X142860477Y-110689922D01*
X142639793Y-110589434D01*
X142403745Y-110533931D01*
X142161404Y-110525544D01*
X141922083Y-110564598D01*
X141694980Y-110649589D01*
X141619523Y-110689922D01*
X141527505Y-110867900D01*
X140548797Y-110867900D01*
X140484717Y-110803820D01*
X140283097Y-110669102D01*
X140059069Y-110576307D01*
X139821243Y-110529000D01*
X139578757Y-110529000D01*
X139340931Y-110576307D01*
X139116903Y-110669102D01*
X138915283Y-110803820D01*
X138743820Y-110975283D01*
X138609102Y-111176903D01*
X138516307Y-111400931D01*
X138469000Y-111638757D01*
X138469000Y-111881243D01*
X138516307Y-112119069D01*
X138609102Y-112343097D01*
X138743820Y-112544717D01*
X138823103Y-112624000D01*
X138049000Y-112624000D01*
X138049000Y-112611897D01*
X138116180Y-112544717D01*
X138250898Y-112343097D01*
X138343693Y-112119069D01*
X138391000Y-111881243D01*
X138391000Y-111638757D01*
X138343693Y-111400931D01*
X138250898Y-111176903D01*
X138116180Y-110975283D01*
X138049000Y-110908103D01*
X138049000Y-110329360D01*
X174899000Y-110329360D01*
X174899000Y-110650640D01*
X174961678Y-110965745D01*
X175084626Y-111262568D01*
X175263119Y-111529702D01*
X175490298Y-111756881D01*
X175757432Y-111935374D01*
X176054255Y-112058322D01*
X176369360Y-112121000D01*
X176690640Y-112121000D01*
X177005745Y-112058322D01*
X177302568Y-111935374D01*
X177569702Y-111756881D01*
X177796881Y-111529702D01*
X177975374Y-111262568D01*
X178098322Y-110965745D01*
X178161000Y-110650640D01*
X178161000Y-110329360D01*
X178098322Y-110014255D01*
X177975374Y-109717432D01*
X177796881Y-109450298D01*
X177569702Y-109223119D01*
X177302568Y-109044626D01*
X177005745Y-108921678D01*
X176690640Y-108859000D01*
X176369360Y-108859000D01*
X176054255Y-108921678D01*
X175757432Y-109044626D01*
X175490298Y-109223119D01*
X175263119Y-109450298D01*
X175084626Y-109717432D01*
X174961678Y-110014255D01*
X174899000Y-110329360D01*
X138049000Y-110329360D01*
X138049000Y-106388000D01*
X138263157Y-106388000D01*
X138263157Y-107988000D01*
X138270513Y-108062689D01*
X138292299Y-108134508D01*
X138327678Y-108200696D01*
X138375289Y-108258711D01*
X138433304Y-108306322D01*
X138499492Y-108341701D01*
X138571311Y-108363487D01*
X138646000Y-108370843D01*
X140246000Y-108370843D01*
X140320689Y-108363487D01*
X140392508Y-108341701D01*
X140458696Y-108306322D01*
X140516711Y-108258711D01*
X140564322Y-108200696D01*
X140599701Y-108134508D01*
X140621487Y-108062689D01*
X140628843Y-107988000D01*
X140628843Y-107071682D01*
X140805000Y-107071682D01*
X140805000Y-107304318D01*
X140850386Y-107532485D01*
X140939412Y-107747413D01*
X141068658Y-107940843D01*
X141233157Y-108105342D01*
X141426587Y-108234588D01*
X141641515Y-108323614D01*
X141869682Y-108369000D01*
X142102318Y-108369000D01*
X142330485Y-108323614D01*
X142545413Y-108234588D01*
X142738843Y-108105342D01*
X142903342Y-107940843D01*
X143032588Y-107747413D01*
X143121614Y-107532485D01*
X143167000Y-107304318D01*
X143167000Y-107071682D01*
X143345000Y-107071682D01*
X143345000Y-107304318D01*
X143390386Y-107532485D01*
X143479412Y-107747413D01*
X143608658Y-107940843D01*
X143773157Y-108105342D01*
X143966587Y-108234588D01*
X144181515Y-108323614D01*
X144409682Y-108369000D01*
X144642318Y-108369000D01*
X144870485Y-108323614D01*
X145085413Y-108234588D01*
X145278843Y-108105342D01*
X145443342Y-107940843D01*
X145572588Y-107747413D01*
X145661614Y-107532485D01*
X145707000Y-107304318D01*
X145707000Y-107071682D01*
X145885000Y-107071682D01*
X145885000Y-107304318D01*
X145930386Y-107532485D01*
X146019412Y-107747413D01*
X146148658Y-107940843D01*
X146313157Y-108105342D01*
X146506587Y-108234588D01*
X146721515Y-108323614D01*
X146949682Y-108369000D01*
X147182318Y-108369000D01*
X147410485Y-108323614D01*
X147625413Y-108234588D01*
X147818843Y-108105342D01*
X147983342Y-107940843D01*
X148112588Y-107747413D01*
X148201614Y-107532485D01*
X148247000Y-107304318D01*
X148247000Y-107071682D01*
X148201614Y-106843515D01*
X148159276Y-106741302D01*
X148897409Y-106003169D01*
X148914853Y-105988853D01*
X148929170Y-105971408D01*
X148971987Y-105919237D01*
X149014440Y-105839810D01*
X149014441Y-105839809D01*
X149040585Y-105753627D01*
X149047200Y-105686460D01*
X149047200Y-105686451D01*
X149049411Y-105664001D01*
X149047200Y-105641551D01*
X149047200Y-105091377D01*
X149148801Y-104989776D01*
X149148800Y-106099074D01*
X149046587Y-106141412D01*
X148853157Y-106270658D01*
X148688658Y-106435157D01*
X148559412Y-106628587D01*
X148470386Y-106843515D01*
X148425000Y-107071682D01*
X148425000Y-107304318D01*
X148470386Y-107532485D01*
X148559412Y-107747413D01*
X148688658Y-107940843D01*
X148853157Y-108105342D01*
X149046587Y-108234588D01*
X149261515Y-108323614D01*
X149489682Y-108369000D01*
X149722318Y-108369000D01*
X149950485Y-108323614D01*
X150165413Y-108234588D01*
X150358843Y-108105342D01*
X150523342Y-107940843D01*
X150652588Y-107747413D01*
X150741614Y-107532485D01*
X150787000Y-107304318D01*
X150787000Y-107071682D01*
X150741614Y-106843515D01*
X150652588Y-106628587D01*
X150523342Y-106435157D01*
X150358843Y-106270658D01*
X150165413Y-106141412D01*
X150063200Y-106099074D01*
X150063200Y-104506443D01*
X150429634Y-104140010D01*
X154792225Y-104140010D01*
X154812254Y-104146086D01*
X154879421Y-104152701D01*
X154879431Y-104152701D01*
X154901881Y-104154912D01*
X154924331Y-104152701D01*
X156835239Y-104152701D01*
X156857689Y-104154912D01*
X156880139Y-104152701D01*
X156880149Y-104152701D01*
X156947316Y-104146086D01*
X157033498Y-104119942D01*
X157112925Y-104077488D01*
X157182542Y-104020354D01*
X157196863Y-104002904D01*
X157352867Y-103846900D01*
X157357892Y-103847900D01*
X157500488Y-103847900D01*
X157640344Y-103820081D01*
X157772085Y-103765512D01*
X157890650Y-103686290D01*
X157991480Y-103585460D01*
X158070702Y-103466895D01*
X158125271Y-103335154D01*
X158153090Y-103195298D01*
X158153090Y-103052702D01*
X158125271Y-102912846D01*
X158070702Y-102781105D01*
X157991480Y-102662540D01*
X157890650Y-102561710D01*
X157772085Y-102482488D01*
X157640344Y-102427919D01*
X157500488Y-102400100D01*
X157357892Y-102400100D01*
X157218036Y-102427919D01*
X157086295Y-102482488D01*
X156967730Y-102561710D01*
X156866900Y-102662540D01*
X156819595Y-102733337D01*
X156772290Y-102662540D01*
X156671460Y-102561710D01*
X156552895Y-102482488D01*
X156421154Y-102427919D01*
X156281298Y-102400100D01*
X156138702Y-102400100D01*
X155998846Y-102427919D01*
X155867105Y-102482488D01*
X155748540Y-102561710D01*
X155647710Y-102662540D01*
X155644864Y-102666800D01*
X154962449Y-102666800D01*
X154939999Y-102664589D01*
X154917549Y-102666800D01*
X154917540Y-102666800D01*
X154850373Y-102673415D01*
X154764191Y-102699559D01*
X154684764Y-102742013D01*
X154615147Y-102799147D01*
X154600826Y-102816597D01*
X154496623Y-102920800D01*
X150136449Y-102920800D01*
X150113999Y-102918589D01*
X150091549Y-102920800D01*
X150091540Y-102920800D01*
X150024373Y-102927415D01*
X149938191Y-102953559D01*
X149901217Y-102973322D01*
X149858763Y-102996013D01*
X149806592Y-103038830D01*
X149789147Y-103053147D01*
X149774830Y-103070592D01*
X148282593Y-104562830D01*
X148265148Y-104577147D01*
X148250831Y-104594592D01*
X148250830Y-104594593D01*
X148208013Y-104646765D01*
X148180065Y-104699053D01*
X148165560Y-104726191D01*
X148150306Y-104776477D01*
X148139416Y-104812374D01*
X148130589Y-104902000D01*
X148132801Y-104924459D01*
X148132800Y-105474622D01*
X147512698Y-106094724D01*
X147410485Y-106052386D01*
X147182318Y-106007000D01*
X146949682Y-106007000D01*
X146721515Y-106052386D01*
X146506587Y-106141412D01*
X146313157Y-106270658D01*
X146148658Y-106435157D01*
X146019412Y-106628587D01*
X145930386Y-106843515D01*
X145885000Y-107071682D01*
X145707000Y-107071682D01*
X145661614Y-106843515D01*
X145572588Y-106628587D01*
X145443342Y-106435157D01*
X145278843Y-106270658D01*
X145085413Y-106141412D01*
X144870485Y-106052386D01*
X144642318Y-106007000D01*
X144409682Y-106007000D01*
X144181515Y-106052386D01*
X143966587Y-106141412D01*
X143773157Y-106270658D01*
X143608658Y-106435157D01*
X143479412Y-106628587D01*
X143390386Y-106843515D01*
X143345000Y-107071682D01*
X143167000Y-107071682D01*
X143121614Y-106843515D01*
X143032588Y-106628587D01*
X142903342Y-106435157D01*
X142738843Y-106270658D01*
X142545413Y-106141412D01*
X142330485Y-106052386D01*
X142102318Y-106007000D01*
X141869682Y-106007000D01*
X141641515Y-106052386D01*
X141426587Y-106141412D01*
X141233157Y-106270658D01*
X141068658Y-106435157D01*
X140939412Y-106628587D01*
X140850386Y-106843515D01*
X140805000Y-107071682D01*
X140628843Y-107071682D01*
X140628843Y-106388000D01*
X140621487Y-106313311D01*
X140599701Y-106241492D01*
X140564322Y-106175304D01*
X140516711Y-106117289D01*
X140458696Y-106069678D01*
X140392508Y-106034299D01*
X140320689Y-106012513D01*
X140246000Y-106005157D01*
X138646000Y-106005157D01*
X138571311Y-106012513D01*
X138499492Y-106034299D01*
X138433304Y-106069678D01*
X138375289Y-106117289D01*
X138327678Y-106175304D01*
X138292299Y-106241492D01*
X138270513Y-106313311D01*
X138263157Y-106388000D01*
X138049000Y-106388000D01*
X138049000Y-102197748D01*
X158495534Y-102272717D01*
X158520320Y-102270368D01*
X158544170Y-102263228D01*
X158566170Y-102251573D01*
X158585473Y-102235849D01*
X158601337Y-102216662D01*
X158613154Y-102194749D01*
X158620468Y-102170951D01*
X158623000Y-102145718D01*
X158623000Y-95377295D01*
X162700755Y-95386758D01*
G36*
X143823820Y-90655283D02*
G01*
X143689102Y-90856903D01*
X143596307Y-91080931D01*
X143549000Y-91318757D01*
X143549000Y-91561243D01*
X143596307Y-91799069D01*
X143689102Y-92023097D01*
X143823820Y-92224717D01*
X143995283Y-92396180D01*
X144196903Y-92530898D01*
X144420931Y-92623693D01*
X144658757Y-92671000D01*
X144901243Y-92671000D01*
X145139069Y-92623693D01*
X145363097Y-92530898D01*
X145564717Y-92396180D01*
X145736180Y-92224717D01*
X145870898Y-92023097D01*
X145963693Y-91799069D01*
X146011000Y-91561243D01*
X146011000Y-91318757D01*
X145963693Y-91080931D01*
X145870898Y-90856903D01*
X145736180Y-90655283D01*
X145656897Y-90576000D01*
X146443103Y-90576000D01*
X146363820Y-90655283D01*
X146229102Y-90856903D01*
X146136307Y-91080931D01*
X146089000Y-91318757D01*
X146089000Y-91561243D01*
X146136307Y-91799069D01*
X146229102Y-92023097D01*
X146363820Y-92224717D01*
X146535283Y-92396180D01*
X146736903Y-92530898D01*
X146960931Y-92623693D01*
X147198757Y-92671000D01*
X147441243Y-92671000D01*
X147679069Y-92623693D01*
X147903097Y-92530898D01*
X148104717Y-92396180D01*
X148276180Y-92224717D01*
X148410898Y-92023097D01*
X148503693Y-91799069D01*
X148551000Y-91561243D01*
X148551000Y-91318757D01*
X148503693Y-91080931D01*
X148410898Y-90856903D01*
X148276180Y-90655283D01*
X148196897Y-90576000D01*
X148983103Y-90576000D01*
X148903820Y-90655283D01*
X148769102Y-90856903D01*
X148676307Y-91080931D01*
X148629000Y-91318757D01*
X148629000Y-91561243D01*
X148676307Y-91799069D01*
X148769102Y-92023097D01*
X148903820Y-92224717D01*
X149075283Y-92396180D01*
X149276903Y-92530898D01*
X149500931Y-92623693D01*
X149738757Y-92671000D01*
X149981243Y-92671000D01*
X150219069Y-92623693D01*
X150443097Y-92530898D01*
X150644717Y-92396180D01*
X150816180Y-92224717D01*
X150950898Y-92023097D01*
X151043693Y-91799069D01*
X151091000Y-91561243D01*
X151091000Y-91318757D01*
X151043693Y-91080931D01*
X150950898Y-90856903D01*
X150816180Y-90655283D01*
X150736897Y-90576000D01*
X151523103Y-90576000D01*
X151443820Y-90655283D01*
X151309102Y-90856903D01*
X151216307Y-91080931D01*
X151169000Y-91318757D01*
X151169000Y-91561243D01*
X151216307Y-91799069D01*
X151309102Y-92023097D01*
X151443820Y-92224717D01*
X151615283Y-92396180D01*
X151816903Y-92530898D01*
X152040931Y-92623693D01*
X152278757Y-92671000D01*
X152521243Y-92671000D01*
X152759069Y-92623693D01*
X152983097Y-92530898D01*
X153184717Y-92396180D01*
X153356180Y-92224717D01*
X153490898Y-92023097D01*
X153583693Y-91799069D01*
X153631000Y-91561243D01*
X153631000Y-91318757D01*
X153583693Y-91080931D01*
X153490898Y-90856903D01*
X153356180Y-90655283D01*
X153276897Y-90576000D01*
X154063103Y-90576000D01*
X153983820Y-90655283D01*
X153849102Y-90856903D01*
X153756307Y-91080931D01*
X153709000Y-91318757D01*
X153709000Y-91561243D01*
X153756307Y-91799069D01*
X153849102Y-92023097D01*
X153983820Y-92224717D01*
X154155283Y-92396180D01*
X154356903Y-92530898D01*
X154580931Y-92623693D01*
X154818757Y-92671000D01*
X155061243Y-92671000D01*
X155299069Y-92623693D01*
X155523097Y-92530898D01*
X155724717Y-92396180D01*
X155896180Y-92224717D01*
X156030898Y-92023097D01*
X156123693Y-91799069D01*
X156171000Y-91561243D01*
X156171000Y-91318757D01*
X156123693Y-91080931D01*
X156030898Y-90856903D01*
X155896180Y-90655283D01*
X155816897Y-90576000D01*
X156603103Y-90576000D01*
X156523820Y-90655283D01*
X156389102Y-90856903D01*
X156296307Y-91080931D01*
X156249000Y-91318757D01*
X156249000Y-91561243D01*
X156296307Y-91799069D01*
X156389102Y-92023097D01*
X156523820Y-92224717D01*
X156695283Y-92396180D01*
X156896903Y-92530898D01*
X157120931Y-92623693D01*
X157358757Y-92671000D01*
X157601243Y-92671000D01*
X157839069Y-92623693D01*
X158063097Y-92530898D01*
X158264717Y-92396180D01*
X158436180Y-92224717D01*
X158570898Y-92023097D01*
X158663693Y-91799069D01*
X158711000Y-91561243D01*
X158711000Y-91318757D01*
X158663693Y-91080931D01*
X158570898Y-90856903D01*
X158436180Y-90655283D01*
X158356897Y-90576000D01*
X159143103Y-90576000D01*
X159063820Y-90655283D01*
X158929102Y-90856903D01*
X158836307Y-91080931D01*
X158789000Y-91318757D01*
X158789000Y-91561243D01*
X158836307Y-91799069D01*
X158929102Y-92023097D01*
X159063820Y-92224717D01*
X159235283Y-92396180D01*
X159436903Y-92530898D01*
X159660931Y-92623693D01*
X159898757Y-92671000D01*
X160141243Y-92671000D01*
X160379069Y-92623693D01*
X160603097Y-92530898D01*
X160804717Y-92396180D01*
X160976180Y-92224717D01*
X161110898Y-92023097D01*
X161203693Y-91799069D01*
X161251000Y-91561243D01*
X161251000Y-91318757D01*
X161203693Y-91080931D01*
X161110898Y-90856903D01*
X160976180Y-90655283D01*
X160896897Y-90576000D01*
X161683103Y-90576000D01*
X161603820Y-90655283D01*
X161469102Y-90856903D01*
X161376307Y-91080931D01*
X161329000Y-91318757D01*
X161329000Y-91561243D01*
X161376307Y-91799069D01*
X161469102Y-92023097D01*
X161603820Y-92224717D01*
X161775283Y-92396180D01*
X161976903Y-92530898D01*
X162200931Y-92623693D01*
X162438757Y-92671000D01*
X162681243Y-92671000D01*
X162919069Y-92623693D01*
X163143097Y-92530898D01*
X163344717Y-92396180D01*
X163516180Y-92224717D01*
X163650898Y-92023097D01*
X163743693Y-91799069D01*
X163791000Y-91561243D01*
X163791000Y-91318757D01*
X163743693Y-91080931D01*
X163650898Y-90856903D01*
X163516180Y-90655283D01*
X163436897Y-90576000D01*
X164223103Y-90576000D01*
X164143820Y-90655283D01*
X164009102Y-90856903D01*
X163916307Y-91080931D01*
X163869000Y-91318757D01*
X163869000Y-91561243D01*
X163916307Y-91799069D01*
X164009102Y-92023097D01*
X164143820Y-92224717D01*
X164315283Y-92396180D01*
X164516903Y-92530898D01*
X164740931Y-92623693D01*
X164978757Y-92671000D01*
X165221243Y-92671000D01*
X165459069Y-92623693D01*
X165683097Y-92530898D01*
X165884717Y-92396180D01*
X166056180Y-92224717D01*
X166190898Y-92023097D01*
X166283693Y-91799069D01*
X166331000Y-91561243D01*
X166331000Y-91318757D01*
X166283693Y-91080931D01*
X166190898Y-90856903D01*
X166056180Y-90655283D01*
X165976897Y-90576000D01*
X166763103Y-90576000D01*
X166683820Y-90655283D01*
X166549102Y-90856903D01*
X166456307Y-91080931D01*
X166409000Y-91318757D01*
X166409000Y-91561243D01*
X166456307Y-91799069D01*
X166549102Y-92023097D01*
X166683820Y-92224717D01*
X166855283Y-92396180D01*
X167056903Y-92530898D01*
X167280931Y-92623693D01*
X167518757Y-92671000D01*
X167761243Y-92671000D01*
X167999069Y-92623693D01*
X168223097Y-92530898D01*
X168424717Y-92396180D01*
X168596180Y-92224717D01*
X168730898Y-92023097D01*
X168823693Y-91799069D01*
X168871000Y-91561243D01*
X168871000Y-91318757D01*
X168823693Y-91080931D01*
X168730898Y-90856903D01*
X168596180Y-90655283D01*
X168516897Y-90576000D01*
X169303103Y-90576000D01*
X169223820Y-90655283D01*
X169089102Y-90856903D01*
X168996307Y-91080931D01*
X168949000Y-91318757D01*
X168949000Y-91561243D01*
X168996307Y-91799069D01*
X169089102Y-92023097D01*
X169223820Y-92224717D01*
X169395283Y-92396180D01*
X169596903Y-92530898D01*
X169722800Y-92583046D01*
X169722800Y-92774621D01*
X169228623Y-93268800D01*
X148943383Y-93268800D01*
X148920933Y-93266589D01*
X148898483Y-93268800D01*
X148898474Y-93268800D01*
X148831307Y-93275415D01*
X148745125Y-93301559D01*
X148665698Y-93344013D01*
X148596081Y-93401147D01*
X148581764Y-93418592D01*
X147940060Y-94060297D01*
X147813066Y-94187291D01*
X147813060Y-94187296D01*
X147723779Y-94276577D01*
X147713760Y-94284800D01*
X147631136Y-94284800D01*
X147628290Y-94280540D01*
X147527460Y-94179710D01*
X147408895Y-94100488D01*
X147277154Y-94045919D01*
X147137298Y-94018100D01*
X146994702Y-94018100D01*
X146854846Y-94045919D01*
X146723105Y-94100488D01*
X146604540Y-94179710D01*
X146503710Y-94280540D01*
X146424488Y-94399105D01*
X146369919Y-94530846D01*
X146342100Y-94670702D01*
X146342100Y-94813298D01*
X146369919Y-94953154D01*
X146424488Y-95084895D01*
X146503710Y-95203460D01*
X146604540Y-95304290D01*
X146723105Y-95383512D01*
X146854846Y-95438081D01*
X146994702Y-95465900D01*
X147137298Y-95465900D01*
X147277154Y-95438081D01*
X147408895Y-95383512D01*
X147527460Y-95304290D01*
X147573991Y-95257759D01*
X147573990Y-96635432D01*
X147435431Y-96773991D01*
X136802193Y-96773991D01*
X136779743Y-96771780D01*
X136757293Y-96773991D01*
X136757283Y-96773991D01*
X136690116Y-96780606D01*
X136623992Y-96800665D01*
X136603933Y-96806750D01*
X136524507Y-96849204D01*
X136472335Y-96892020D01*
X136472329Y-96892026D01*
X136454890Y-96906338D01*
X136440578Y-96923777D01*
X135582592Y-97781765D01*
X135565148Y-97796081D01*
X135550831Y-97813526D01*
X135550830Y-97813527D01*
X135508013Y-97865699D01*
X135480066Y-97917986D01*
X135465560Y-97945125D01*
X135450977Y-97993199D01*
X135439416Y-98031308D01*
X135430589Y-98120934D01*
X135432801Y-98143394D01*
X135432800Y-99510863D01*
X135428540Y-99513710D01*
X135327710Y-99614540D01*
X135324864Y-99618800D01*
X134611181Y-99618800D01*
X134573777Y-99573223D01*
X134493032Y-99506957D01*
X134400910Y-99457717D01*
X134300953Y-99427395D01*
X134197000Y-99417157D01*
X132947000Y-99417157D01*
X132843047Y-99427395D01*
X132743090Y-99457717D01*
X132650968Y-99506957D01*
X132570223Y-99573223D01*
X132503957Y-99653968D01*
X132454717Y-99746090D01*
X132424395Y-99846047D01*
X132414157Y-99950000D01*
X132414157Y-100250000D01*
X132424395Y-100353953D01*
X132454717Y-100453910D01*
X132503957Y-100546032D01*
X132548248Y-100600000D01*
X132503957Y-100653968D01*
X132454717Y-100746090D01*
X132424395Y-100846047D01*
X132414157Y-100950000D01*
X132414157Y-101250000D01*
X132424395Y-101353953D01*
X132454717Y-101453910D01*
X132503957Y-101546032D01*
X132548248Y-101600000D01*
X132533968Y-101617400D01*
X132271900Y-101617400D01*
X132054600Y-101400101D01*
X132054600Y-99259899D01*
X132279899Y-99034600D01*
X132979465Y-99034600D01*
X132992386Y-99053938D01*
X133102062Y-99163614D01*
X133231026Y-99249785D01*
X133374324Y-99309141D01*
X133526448Y-99339400D01*
X133681552Y-99339400D01*
X133833676Y-99309141D01*
X133976974Y-99249785D01*
X134105938Y-99163614D01*
X134215614Y-99053938D01*
X134301785Y-98924974D01*
X134361141Y-98781676D01*
X134391400Y-98629552D01*
X134391400Y-98474448D01*
X134361141Y-98322324D01*
X134301785Y-98179026D01*
X134215614Y-98050062D01*
X134105938Y-97940386D01*
X133976974Y-97854215D01*
X133833676Y-97794859D01*
X133681552Y-97764600D01*
X133526448Y-97764600D01*
X133374324Y-97794859D01*
X133231026Y-97854215D01*
X133102062Y-97940386D01*
X132992386Y-98050062D01*
X132979465Y-98069400D01*
X132103696Y-98069400D01*
X132079999Y-98067066D01*
X132056302Y-98069400D01*
X132056293Y-98069400D01*
X131985394Y-98076383D01*
X131894423Y-98103978D01*
X131810585Y-98148791D01*
X131737099Y-98209099D01*
X131721983Y-98227518D01*
X131247513Y-98701988D01*
X131229100Y-98717099D01*
X131213989Y-98735512D01*
X131213987Y-98735514D01*
X131168792Y-98790585D01*
X131123978Y-98874424D01*
X131096384Y-98965394D01*
X131087065Y-99060000D01*
X131089401Y-99083715D01*
X131089400Y-101576295D01*
X131087065Y-101600000D01*
X131089400Y-101623705D01*
X131089400Y-101623706D01*
X131096383Y-101694605D01*
X131123978Y-101785576D01*
X131168791Y-101869415D01*
X131229099Y-101942901D01*
X131247518Y-101958017D01*
X131713987Y-102424487D01*
X131729099Y-102442901D01*
X131802585Y-102503209D01*
X131882700Y-102546032D01*
X131886423Y-102548022D01*
X131977393Y-102575617D01*
X132072000Y-102584935D01*
X132095707Y-102582600D01*
X132482538Y-102582600D01*
X132478678Y-102587304D01*
X132443299Y-102653492D01*
X132421513Y-102725311D01*
X132414157Y-102800000D01*
X132416000Y-102877750D01*
X132511250Y-102973000D01*
X133445000Y-102973000D01*
X133445000Y-102953000D01*
X133699000Y-102953000D01*
X133699000Y-102973000D01*
X134632750Y-102973000D01*
X134728000Y-102877750D01*
X134729843Y-102800000D01*
X134722487Y-102725311D01*
X134700701Y-102653492D01*
X134665322Y-102587304D01*
X134635747Y-102551266D01*
X134640043Y-102546032D01*
X134689283Y-102453910D01*
X134711458Y-102380810D01*
X134740488Y-102450895D01*
X134819710Y-102569460D01*
X134920540Y-102670290D01*
X135039105Y-102749512D01*
X135170846Y-102804081D01*
X135310702Y-102831900D01*
X135453298Y-102831900D01*
X135593154Y-102804081D01*
X135724895Y-102749512D01*
X135843460Y-102670290D01*
X135944290Y-102569460D01*
X136023512Y-102450895D01*
X136078081Y-102319154D01*
X136105900Y-102179298D01*
X136105900Y-102036702D01*
X136078081Y-101896846D01*
X136023512Y-101765105D01*
X135944290Y-101646540D01*
X135843460Y-101545710D01*
X135839200Y-101542864D01*
X135839200Y-101539133D01*
X135887631Y-101524441D01*
X135967058Y-101481987D01*
X136036675Y-101424853D01*
X136050996Y-101407403D01*
X136768910Y-100689490D01*
X136786354Y-100675174D01*
X136843488Y-100605557D01*
X136885942Y-100526130D01*
X136912086Y-100439948D01*
X136918701Y-100372781D01*
X136918701Y-100372772D01*
X136920912Y-100350322D01*
X136918701Y-100327872D01*
X136918701Y-99824128D01*
X136920912Y-99801678D01*
X136918701Y-99779228D01*
X136918701Y-99779219D01*
X136912086Y-99712052D01*
X136885942Y-99625870D01*
X136843488Y-99546443D01*
X136786354Y-99476826D01*
X136768904Y-99462505D01*
X136758081Y-99451682D01*
X138265000Y-99451682D01*
X138265000Y-99684318D01*
X138310386Y-99912485D01*
X138399412Y-100127413D01*
X138528658Y-100320843D01*
X138693157Y-100485342D01*
X138886587Y-100614588D01*
X139101515Y-100703614D01*
X139329682Y-100749000D01*
X139562318Y-100749000D01*
X139790485Y-100703614D01*
X140005413Y-100614588D01*
X140198843Y-100485342D01*
X140363342Y-100320843D01*
X140492588Y-100127413D01*
X140581614Y-99912485D01*
X140627000Y-99684318D01*
X140627000Y-99451682D01*
X140805000Y-99451682D01*
X140805000Y-99684318D01*
X140850386Y-99912485D01*
X140939412Y-100127413D01*
X141068658Y-100320843D01*
X141233157Y-100485342D01*
X141426587Y-100614588D01*
X141641515Y-100703614D01*
X141869682Y-100749000D01*
X142102318Y-100749000D01*
X142330485Y-100703614D01*
X142545413Y-100614588D01*
X142738843Y-100485342D01*
X142903342Y-100320843D01*
X143032588Y-100127413D01*
X143121614Y-99912485D01*
X143167000Y-99684318D01*
X143167000Y-99451682D01*
X143121614Y-99223515D01*
X143032588Y-99008587D01*
X142903342Y-98815157D01*
X142738843Y-98650658D01*
X142545413Y-98521412D01*
X142330485Y-98432386D01*
X142102318Y-98387000D01*
X141869682Y-98387000D01*
X141641515Y-98432386D01*
X141426587Y-98521412D01*
X141233157Y-98650658D01*
X141068658Y-98815157D01*
X140939412Y-99008587D01*
X140850386Y-99223515D01*
X140805000Y-99451682D01*
X140627000Y-99451682D01*
X140581614Y-99223515D01*
X140492588Y-99008587D01*
X140363342Y-98815157D01*
X140198843Y-98650658D01*
X140005413Y-98521412D01*
X139790485Y-98432386D01*
X139562318Y-98387000D01*
X139329682Y-98387000D01*
X139101515Y-98432386D01*
X138886587Y-98521412D01*
X138693157Y-98650658D01*
X138528658Y-98815157D01*
X138399412Y-99008587D01*
X138310386Y-99223515D01*
X138265000Y-99451682D01*
X136758081Y-99451682D01*
X136652010Y-99345611D01*
X136652010Y-98436567D01*
X137095380Y-97993199D01*
X144068801Y-97993201D01*
X144068801Y-98479074D01*
X143966587Y-98521412D01*
X143773157Y-98650658D01*
X143608658Y-98815157D01*
X143479412Y-99008587D01*
X143390386Y-99223515D01*
X143345000Y-99451682D01*
X143345000Y-99684318D01*
X143390386Y-99912485D01*
X143479412Y-100127413D01*
X143608658Y-100320843D01*
X143773157Y-100485342D01*
X143966587Y-100614588D01*
X144181515Y-100703614D01*
X144298717Y-100726927D01*
X144350192Y-100754441D01*
X144436374Y-100780585D01*
X144526000Y-100789412D01*
X144615627Y-100780585D01*
X144701809Y-100754441D01*
X144753285Y-100726927D01*
X144870485Y-100703614D01*
X145085413Y-100614588D01*
X145278843Y-100485342D01*
X145443342Y-100320843D01*
X145572588Y-100127413D01*
X145661614Y-99912485D01*
X145707000Y-99684318D01*
X145707000Y-99451682D01*
X145885000Y-99451682D01*
X145885000Y-99684318D01*
X145930386Y-99912485D01*
X146019412Y-100127413D01*
X146148658Y-100320843D01*
X146313157Y-100485342D01*
X146506587Y-100614588D01*
X146721515Y-100703614D01*
X146949682Y-100749000D01*
X147182318Y-100749000D01*
X147410485Y-100703614D01*
X147625413Y-100614588D01*
X147818843Y-100485342D01*
X147983342Y-100320843D01*
X148112588Y-100127413D01*
X148201614Y-99912485D01*
X148247000Y-99684318D01*
X148247000Y-99451682D01*
X148425000Y-99451682D01*
X148425000Y-99684318D01*
X148470386Y-99912485D01*
X148559412Y-100127413D01*
X148688658Y-100320843D01*
X148853157Y-100485342D01*
X149046587Y-100614588D01*
X149261515Y-100703614D01*
X149489682Y-100749000D01*
X149722318Y-100749000D01*
X149950485Y-100703614D01*
X150165413Y-100614588D01*
X150358843Y-100485342D01*
X150523342Y-100320843D01*
X150652588Y-100127413D01*
X150741614Y-99912485D01*
X150787000Y-99684318D01*
X150787000Y-99451682D01*
X150965000Y-99451682D01*
X150965000Y-99684318D01*
X151010386Y-99912485D01*
X151099412Y-100127413D01*
X151228658Y-100320843D01*
X151393157Y-100485342D01*
X151586587Y-100614588D01*
X151801515Y-100703614D01*
X152029682Y-100749000D01*
X152262318Y-100749000D01*
X152490485Y-100703614D01*
X152705413Y-100614588D01*
X152898843Y-100485342D01*
X153063342Y-100320843D01*
X153192588Y-100127413D01*
X153281614Y-99912485D01*
X153327000Y-99684318D01*
X153327000Y-99451682D01*
X153505000Y-99451682D01*
X153505000Y-99684318D01*
X153550386Y-99912485D01*
X153639412Y-100127413D01*
X153768658Y-100320843D01*
X153933157Y-100485342D01*
X154126587Y-100614588D01*
X154341515Y-100703614D01*
X154569682Y-100749000D01*
X154802318Y-100749000D01*
X155030485Y-100703614D01*
X155245413Y-100614588D01*
X155438843Y-100485342D01*
X155603342Y-100320843D01*
X155732588Y-100127413D01*
X155821614Y-99912485D01*
X155828649Y-99877115D01*
X156086165Y-99877115D01*
X156168372Y-100093546D01*
X156291223Y-100289781D01*
X156449997Y-100458278D01*
X156638592Y-100592562D01*
X156849761Y-100687473D01*
X156916886Y-100707829D01*
X157099000Y-100646297D01*
X157099000Y-99695000D01*
X156147092Y-99695000D01*
X156086165Y-99877115D01*
X155828649Y-99877115D01*
X155867000Y-99684318D01*
X155867000Y-99451682D01*
X155828650Y-99258885D01*
X156086165Y-99258885D01*
X156147092Y-99441000D01*
X157099000Y-99441000D01*
X157099000Y-98489703D01*
X156916886Y-98428171D01*
X156849761Y-98448527D01*
X156638592Y-98543438D01*
X156449997Y-98677722D01*
X156291223Y-98846219D01*
X156168372Y-99042454D01*
X156086165Y-99258885D01*
X155828650Y-99258885D01*
X155821614Y-99223515D01*
X155732588Y-99008587D01*
X155603342Y-98815157D01*
X155438843Y-98650658D01*
X155245413Y-98521412D01*
X155030485Y-98432386D01*
X154802318Y-98387000D01*
X154569682Y-98387000D01*
X154341515Y-98432386D01*
X154126587Y-98521412D01*
X153933157Y-98650658D01*
X153768658Y-98815157D01*
X153639412Y-99008587D01*
X153550386Y-99223515D01*
X153505000Y-99451682D01*
X153327000Y-99451682D01*
X153281614Y-99223515D01*
X153192588Y-99008587D01*
X153063342Y-98815157D01*
X152898843Y-98650658D01*
X152705413Y-98521412D01*
X152490485Y-98432386D01*
X152262318Y-98387000D01*
X152029682Y-98387000D01*
X151801515Y-98432386D01*
X151586587Y-98521412D01*
X151393157Y-98650658D01*
X151228658Y-98815157D01*
X151099412Y-99008587D01*
X151010386Y-99223515D01*
X150965000Y-99451682D01*
X150787000Y-99451682D01*
X150741614Y-99223515D01*
X150652588Y-99008587D01*
X150523342Y-98815157D01*
X150358843Y-98650658D01*
X150165413Y-98521412D01*
X150063200Y-98479074D01*
X150063200Y-97979377D01*
X150303378Y-97739200D01*
X151040957Y-97739200D01*
X151040957Y-97932000D01*
X151048313Y-98006689D01*
X151070099Y-98078508D01*
X151105478Y-98144696D01*
X151153089Y-98202711D01*
X151211104Y-98250322D01*
X151277292Y-98285701D01*
X151349111Y-98307487D01*
X151423800Y-98314843D01*
X153223800Y-98314843D01*
X153298489Y-98307487D01*
X153370308Y-98285701D01*
X153416000Y-98261278D01*
X153461692Y-98285701D01*
X153533511Y-98307487D01*
X153608200Y-98314843D01*
X155408200Y-98314843D01*
X155482889Y-98307487D01*
X155554708Y-98285701D01*
X155620896Y-98250322D01*
X155678911Y-98202711D01*
X155726522Y-98144696D01*
X155761901Y-98078508D01*
X155783687Y-98006689D01*
X155791043Y-97932000D01*
X155791043Y-96632000D01*
X155783687Y-96557311D01*
X155761901Y-96485492D01*
X155726522Y-96419304D01*
X155678911Y-96361289D01*
X155620896Y-96313678D01*
X155554708Y-96278299D01*
X155482889Y-96256513D01*
X155408200Y-96249157D01*
X155054395Y-96249157D01*
X155119814Y-96183738D01*
X155205985Y-96054774D01*
X155265341Y-95911476D01*
X155295600Y-95759352D01*
X155295600Y-95604248D01*
X155265341Y-95452124D01*
X155205985Y-95308826D01*
X155119814Y-95179862D01*
X155010138Y-95070186D01*
X154881174Y-94984015D01*
X154737876Y-94924659D01*
X154585752Y-94894400D01*
X154430648Y-94894400D01*
X154278524Y-94924659D01*
X154135226Y-94984015D01*
X154006262Y-95070186D01*
X153896586Y-95179862D01*
X153810415Y-95308826D01*
X153751059Y-95452124D01*
X153720800Y-95604248D01*
X153720800Y-95759352D01*
X153751059Y-95911476D01*
X153810415Y-96054774D01*
X153896586Y-96183738D01*
X153962005Y-96249157D01*
X153608200Y-96249157D01*
X153533511Y-96256513D01*
X153461692Y-96278299D01*
X153416000Y-96302722D01*
X153370308Y-96278299D01*
X153298489Y-96256513D01*
X153223800Y-96249157D01*
X151423800Y-96249157D01*
X151349111Y-96256513D01*
X151277292Y-96278299D01*
X151211104Y-96313678D01*
X151153089Y-96361289D01*
X151105478Y-96419304D01*
X151070099Y-96485492D01*
X151048313Y-96557311D01*
X151040957Y-96632000D01*
X151040957Y-96824800D01*
X150136449Y-96824800D01*
X150113999Y-96822589D01*
X150091549Y-96824800D01*
X150091540Y-96824800D01*
X150024373Y-96831415D01*
X149938191Y-96857559D01*
X149908438Y-96873462D01*
X149858763Y-96900013D01*
X149806592Y-96942830D01*
X149789147Y-96957147D01*
X149774830Y-96974592D01*
X149298592Y-97450831D01*
X149281148Y-97465147D01*
X149266831Y-97482592D01*
X149266830Y-97482593D01*
X149224013Y-97534765D01*
X149185482Y-97606853D01*
X149181560Y-97614191D01*
X149155416Y-97700373D01*
X149154818Y-97706441D01*
X149146589Y-97790000D01*
X149148801Y-97812460D01*
X149148801Y-98479074D01*
X149046587Y-98521412D01*
X148853157Y-98650658D01*
X148688658Y-98815157D01*
X148559412Y-99008587D01*
X148470386Y-99223515D01*
X148425000Y-99451682D01*
X148247000Y-99451682D01*
X148201614Y-99223515D01*
X148112588Y-99008587D01*
X147983342Y-98815157D01*
X147818843Y-98650658D01*
X147625413Y-98521412D01*
X147410485Y-98432386D01*
X147182318Y-98387000D01*
X146949682Y-98387000D01*
X146721515Y-98432386D01*
X146506587Y-98521412D01*
X146313157Y-98650658D01*
X146148658Y-98815157D01*
X146019412Y-99008587D01*
X145930386Y-99223515D01*
X145885000Y-99451682D01*
X145707000Y-99451682D01*
X145661614Y-99223515D01*
X145572588Y-99008587D01*
X145443342Y-98815157D01*
X145278843Y-98650658D01*
X145085413Y-98521412D01*
X144983200Y-98479074D01*
X144983200Y-97993201D01*
X147805549Y-97993201D01*
X147827999Y-97995412D01*
X147850449Y-97993201D01*
X147850459Y-97993201D01*
X147917626Y-97986586D01*
X148003808Y-97960442D01*
X148083235Y-97917988D01*
X148152852Y-97860854D01*
X148167173Y-97843404D01*
X148643409Y-97367169D01*
X148660853Y-97352853D01*
X148700570Y-97304459D01*
X148717987Y-97283236D01*
X148747193Y-97228594D01*
X148760441Y-97203809D01*
X148786585Y-97117627D01*
X148793200Y-97050460D01*
X148793200Y-97050450D01*
X148795411Y-97028000D01*
X148793200Y-97005550D01*
X148793200Y-94931377D01*
X149236569Y-94488010D01*
X169598740Y-94488010D01*
X169621190Y-94490221D01*
X169643640Y-94488010D01*
X169643650Y-94488010D01*
X169710817Y-94481395D01*
X169796999Y-94455251D01*
X169876426Y-94412797D01*
X169946043Y-94355663D01*
X169960364Y-94338213D01*
X171004378Y-93294200D01*
X172316550Y-93294200D01*
X172339000Y-93296411D01*
X172361450Y-93294200D01*
X172361460Y-93294200D01*
X172428627Y-93287585D01*
X172514809Y-93261441D01*
X172594236Y-93218987D01*
X172663853Y-93161853D01*
X172678174Y-93144403D01*
X173027409Y-92795169D01*
X173044853Y-92780853D01*
X173059170Y-92763408D01*
X173101987Y-92711237D01*
X173131793Y-92655472D01*
X173144441Y-92631809D01*
X173156652Y-92591557D01*
X173258525Y-92549360D01*
X174899000Y-92549360D01*
X174899000Y-92870640D01*
X174961678Y-93185745D01*
X175084626Y-93482568D01*
X175263119Y-93749702D01*
X175490298Y-93976881D01*
X175757432Y-94155374D01*
X176054255Y-94278322D01*
X176369360Y-94341000D01*
X176690640Y-94341000D01*
X177005745Y-94278322D01*
X177302568Y-94155374D01*
X177569702Y-93976881D01*
X177796881Y-93749702D01*
X177975374Y-93482568D01*
X178098322Y-93185745D01*
X178161000Y-92870640D01*
X178161000Y-92549360D01*
X178098322Y-92234255D01*
X177975374Y-91937432D01*
X177796881Y-91670298D01*
X177569702Y-91443119D01*
X177302568Y-91264626D01*
X177005745Y-91141678D01*
X176690640Y-91079000D01*
X176369360Y-91079000D01*
X176054255Y-91141678D01*
X175757432Y-91264626D01*
X175490298Y-91443119D01*
X175263119Y-91670298D01*
X175084626Y-91937432D01*
X174961678Y-92234255D01*
X174899000Y-92549360D01*
X173258525Y-92549360D01*
X173303097Y-92530898D01*
X173504717Y-92396180D01*
X173676180Y-92224717D01*
X173810898Y-92023097D01*
X173903693Y-91799069D01*
X173951000Y-91561243D01*
X173951000Y-91318757D01*
X173903693Y-91080931D01*
X173810898Y-90856903D01*
X173676180Y-90655283D01*
X173596897Y-90576000D01*
X176510146Y-90576000D01*
X176944115Y-90618551D01*
X177342462Y-90738819D01*
X177709864Y-90934170D01*
X178032317Y-91197157D01*
X178297553Y-91517773D01*
X178495460Y-91883795D01*
X178618506Y-92281291D01*
X178664000Y-92714137D01*
X178664000Y-94869000D01*
X158242000Y-94869000D01*
X158217224Y-94871440D01*
X158193399Y-94878667D01*
X158171443Y-94890403D01*
X158152197Y-94906197D01*
X158136403Y-94925443D01*
X158124667Y-94947399D01*
X158117440Y-94971224D01*
X158115000Y-94996000D01*
X158115000Y-98797639D01*
X158002003Y-98677722D01*
X157813408Y-98543438D01*
X157602239Y-98448527D01*
X157535114Y-98428171D01*
X157353000Y-98489703D01*
X157353000Y-99441000D01*
X157373000Y-99441000D01*
X157373000Y-99695000D01*
X157353000Y-99695000D01*
X157353000Y-100646297D01*
X157535114Y-100707829D01*
X157602239Y-100687473D01*
X157813408Y-100592562D01*
X158002003Y-100458278D01*
X158115000Y-100338361D01*
X158115000Y-101727000D01*
X137668000Y-101727000D01*
X137643224Y-101729440D01*
X137619399Y-101736667D01*
X137597443Y-101748403D01*
X137578197Y-101764197D01*
X137562403Y-101783443D01*
X137550667Y-101805399D01*
X137543440Y-101829224D01*
X137541000Y-101854000D01*
X137541000Y-110585391D01*
X137519069Y-110576307D01*
X137281243Y-110529000D01*
X137038757Y-110529000D01*
X136800931Y-110576307D01*
X136576903Y-110669102D01*
X136375283Y-110803820D01*
X136203820Y-110975283D01*
X136069102Y-111176903D01*
X135976307Y-111400931D01*
X135929000Y-111638757D01*
X135929000Y-111881243D01*
X135976307Y-112119069D01*
X136069102Y-112343097D01*
X136203820Y-112544717D01*
X136283103Y-112624000D01*
X135496897Y-112624000D01*
X135576180Y-112544717D01*
X135710898Y-112343097D01*
X135803693Y-112119069D01*
X135851000Y-111881243D01*
X135851000Y-111638757D01*
X135803693Y-111400931D01*
X135710898Y-111176903D01*
X135576180Y-110975283D01*
X135404717Y-110803820D01*
X135203097Y-110669102D01*
X134979069Y-110576307D01*
X134741243Y-110529000D01*
X134498757Y-110529000D01*
X134260931Y-110576307D01*
X134036903Y-110669102D01*
X133835283Y-110803820D01*
X133663820Y-110975283D01*
X133529102Y-111176903D01*
X133436307Y-111400931D01*
X133389000Y-111638757D01*
X133389000Y-111881243D01*
X133436307Y-112119069D01*
X133529102Y-112343097D01*
X133663820Y-112544717D01*
X133743103Y-112624000D01*
X130829854Y-112624000D01*
X130395885Y-112581449D01*
X129997536Y-112461181D01*
X129630138Y-112265831D01*
X129307685Y-112002845D01*
X129042446Y-111682226D01*
X128844539Y-111316204D01*
X128721494Y-110918708D01*
X128676000Y-110485863D01*
X128676000Y-110329360D01*
X129179000Y-110329360D01*
X129179000Y-110650640D01*
X129241678Y-110965745D01*
X129364626Y-111262568D01*
X129543119Y-111529702D01*
X129770298Y-111756881D01*
X130037432Y-111935374D01*
X130334255Y-112058322D01*
X130649360Y-112121000D01*
X130970640Y-112121000D01*
X131285745Y-112058322D01*
X131582568Y-111935374D01*
X131849702Y-111756881D01*
X132076881Y-111529702D01*
X132255374Y-111262568D01*
X132378322Y-110965745D01*
X132441000Y-110650640D01*
X132441000Y-110329360D01*
X132378322Y-110014255D01*
X132255374Y-109717432D01*
X132076881Y-109450298D01*
X131849702Y-109223119D01*
X131582568Y-109044626D01*
X131285745Y-108921678D01*
X130970640Y-108859000D01*
X130649360Y-108859000D01*
X130334255Y-108921678D01*
X130037432Y-109044626D01*
X129770298Y-109223119D01*
X129543119Y-109450298D01*
X129364626Y-109717432D01*
X129241678Y-110014255D01*
X129179000Y-110329360D01*
X128676000Y-110329360D01*
X128676000Y-105260260D01*
X128695411Y-105276190D01*
X128804821Y-105334671D01*
X128923538Y-105370683D01*
X129046999Y-105382843D01*
X130347001Y-105382843D01*
X130470462Y-105370683D01*
X130589179Y-105334671D01*
X130698589Y-105276190D01*
X130794488Y-105197488D01*
X130873190Y-105101589D01*
X130931671Y-104992179D01*
X130967683Y-104873462D01*
X130979843Y-104750001D01*
X130979843Y-104049999D01*
X130967683Y-103926538D01*
X130931671Y-103807821D01*
X130873190Y-103698411D01*
X130794488Y-103602512D01*
X130698589Y-103523810D01*
X130589179Y-103465329D01*
X130470462Y-103429317D01*
X130347001Y-103417157D01*
X129046999Y-103417157D01*
X128923538Y-103429317D01*
X128804821Y-103465329D01*
X128695411Y-103523810D01*
X128676000Y-103539740D01*
X128676000Y-103400000D01*
X132414157Y-103400000D01*
X132421513Y-103474689D01*
X132443299Y-103546508D01*
X132478678Y-103612696D01*
X132526289Y-103670711D01*
X132584304Y-103718322D01*
X132650492Y-103753701D01*
X132722311Y-103775487D01*
X132797000Y-103782843D01*
X133349750Y-103781000D01*
X133445000Y-103685750D01*
X133445000Y-103227000D01*
X133699000Y-103227000D01*
X133699000Y-103685750D01*
X133794250Y-103781000D01*
X134347000Y-103782843D01*
X134421689Y-103775487D01*
X134493508Y-103753701D01*
X134559696Y-103718322D01*
X134617711Y-103670711D01*
X134665322Y-103612696D01*
X134700701Y-103546508D01*
X134722487Y-103474689D01*
X134729843Y-103400000D01*
X134728000Y-103322250D01*
X134632750Y-103227000D01*
X133699000Y-103227000D01*
X133445000Y-103227000D01*
X132511250Y-103227000D01*
X132416000Y-103322250D01*
X132414157Y-103400000D01*
X128676000Y-103400000D01*
X128676000Y-99660260D01*
X128695411Y-99676190D01*
X128804821Y-99734671D01*
X128923538Y-99770683D01*
X129046999Y-99782843D01*
X130347001Y-99782843D01*
X130470462Y-99770683D01*
X130589179Y-99734671D01*
X130698589Y-99676190D01*
X130794488Y-99597488D01*
X130873190Y-99501589D01*
X130931671Y-99392179D01*
X130967683Y-99273462D01*
X130979843Y-99150001D01*
X130979843Y-98449999D01*
X130967683Y-98326538D01*
X130931671Y-98207821D01*
X130873190Y-98098411D01*
X130794488Y-98002512D01*
X130698589Y-97923810D01*
X130589179Y-97865329D01*
X130470462Y-97829317D01*
X130347001Y-97817157D01*
X129046999Y-97817157D01*
X128923538Y-97829317D01*
X128804821Y-97865329D01*
X128695411Y-97923810D01*
X128676000Y-97939740D01*
X128676000Y-92729854D01*
X128693697Y-92549360D01*
X129179000Y-92549360D01*
X129179000Y-92870640D01*
X129241678Y-93185745D01*
X129364626Y-93482568D01*
X129543119Y-93749702D01*
X129770298Y-93976881D01*
X130037432Y-94155374D01*
X130334255Y-94278322D01*
X130649360Y-94341000D01*
X130970640Y-94341000D01*
X131285745Y-94278322D01*
X131582568Y-94155374D01*
X131849702Y-93976881D01*
X132076881Y-93749702D01*
X132255374Y-93482568D01*
X132378322Y-93185745D01*
X132441000Y-92870640D01*
X132441000Y-92549360D01*
X132378322Y-92234255D01*
X132255374Y-91937432D01*
X132076881Y-91670298D01*
X131849702Y-91443119D01*
X131582568Y-91264626D01*
X131285745Y-91141678D01*
X130970640Y-91079000D01*
X130649360Y-91079000D01*
X130334255Y-91141678D01*
X130037432Y-91264626D01*
X129770298Y-91443119D01*
X129543119Y-91670298D01*
X129364626Y-91937432D01*
X129241678Y-92234255D01*
X129179000Y-92549360D01*
X128693697Y-92549360D01*
X128718551Y-92295885D01*
X128838819Y-91897538D01*
X129034170Y-91530136D01*
X129297157Y-91207683D01*
X129617773Y-90942447D01*
X129983795Y-90744540D01*
X130381291Y-90621494D01*
X130814137Y-90576000D01*
X143903103Y-90576000D01*
X143823820Y-90655283D01*
G37*
X143823820Y-90655283D02*
X143689102Y-90856903D01*
X143596307Y-91080931D01*
X143549000Y-91318757D01*
X143549000Y-91561243D01*
X143596307Y-91799069D01*
X143689102Y-92023097D01*
X143823820Y-92224717D01*
X143995283Y-92396180D01*
X144196903Y-92530898D01*
X144420931Y-92623693D01*
X144658757Y-92671000D01*
X144901243Y-92671000D01*
X145139069Y-92623693D01*
X145363097Y-92530898D01*
X145564717Y-92396180D01*
X145736180Y-92224717D01*
X145870898Y-92023097D01*
X145963693Y-91799069D01*
X146011000Y-91561243D01*
X146011000Y-91318757D01*
X145963693Y-91080931D01*
X145870898Y-90856903D01*
X145736180Y-90655283D01*
X145656897Y-90576000D01*
X146443103Y-90576000D01*
X146363820Y-90655283D01*
X146229102Y-90856903D01*
X146136307Y-91080931D01*
X146089000Y-91318757D01*
X146089000Y-91561243D01*
X146136307Y-91799069D01*
X146229102Y-92023097D01*
X146363820Y-92224717D01*
X146535283Y-92396180D01*
X146736903Y-92530898D01*
X146960931Y-92623693D01*
X147198757Y-92671000D01*
X147441243Y-92671000D01*
X147679069Y-92623693D01*
X147903097Y-92530898D01*
X148104717Y-92396180D01*
X148276180Y-92224717D01*
X148410898Y-92023097D01*
X148503693Y-91799069D01*
X148551000Y-91561243D01*
X148551000Y-91318757D01*
X148503693Y-91080931D01*
X148410898Y-90856903D01*
X148276180Y-90655283D01*
X148196897Y-90576000D01*
X148983103Y-90576000D01*
X148903820Y-90655283D01*
X148769102Y-90856903D01*
X148676307Y-91080931D01*
X148629000Y-91318757D01*
X148629000Y-91561243D01*
X148676307Y-91799069D01*
X148769102Y-92023097D01*
X148903820Y-92224717D01*
X149075283Y-92396180D01*
X149276903Y-92530898D01*
X149500931Y-92623693D01*
X149738757Y-92671000D01*
X149981243Y-92671000D01*
X150219069Y-92623693D01*
X150443097Y-92530898D01*
X150644717Y-92396180D01*
X150816180Y-92224717D01*
X150950898Y-92023097D01*
X151043693Y-91799069D01*
X151091000Y-91561243D01*
X151091000Y-91318757D01*
X151043693Y-91080931D01*
X150950898Y-90856903D01*
X150816180Y-90655283D01*
X150736897Y-90576000D01*
X151523103Y-90576000D01*
X151443820Y-90655283D01*
X151309102Y-90856903D01*
X151216307Y-91080931D01*
X151169000Y-91318757D01*
X151169000Y-91561243D01*
X151216307Y-91799069D01*
X151309102Y-92023097D01*
X151443820Y-92224717D01*
X151615283Y-92396180D01*
X151816903Y-92530898D01*
X152040931Y-92623693D01*
X152278757Y-92671000D01*
X152521243Y-92671000D01*
X152759069Y-92623693D01*
X152983097Y-92530898D01*
X153184717Y-92396180D01*
X153356180Y-92224717D01*
X153490898Y-92023097D01*
X153583693Y-91799069D01*
X153631000Y-91561243D01*
X153631000Y-91318757D01*
X153583693Y-91080931D01*
X153490898Y-90856903D01*
X153356180Y-90655283D01*
X153276897Y-90576000D01*
X154063103Y-90576000D01*
X153983820Y-90655283D01*
X153849102Y-90856903D01*
X153756307Y-91080931D01*
X153709000Y-91318757D01*
X153709000Y-91561243D01*
X153756307Y-91799069D01*
X153849102Y-92023097D01*
X153983820Y-92224717D01*
X154155283Y-92396180D01*
X154356903Y-92530898D01*
X154580931Y-92623693D01*
X154818757Y-92671000D01*
X155061243Y-92671000D01*
X155299069Y-92623693D01*
X155523097Y-92530898D01*
X155724717Y-92396180D01*
X155896180Y-92224717D01*
X156030898Y-92023097D01*
X156123693Y-91799069D01*
X156171000Y-91561243D01*
X156171000Y-91318757D01*
X156123693Y-91080931D01*
X156030898Y-90856903D01*
X155896180Y-90655283D01*
X155816897Y-90576000D01*
X156603103Y-90576000D01*
X156523820Y-90655283D01*
X156389102Y-90856903D01*
X156296307Y-91080931D01*
X156249000Y-91318757D01*
X156249000Y-91561243D01*
X156296307Y-91799069D01*
X156389102Y-92023097D01*
X156523820Y-92224717D01*
X156695283Y-92396180D01*
X156896903Y-92530898D01*
X157120931Y-92623693D01*
X157358757Y-92671000D01*
X157601243Y-92671000D01*
X157839069Y-92623693D01*
X158063097Y-92530898D01*
X158264717Y-92396180D01*
X158436180Y-92224717D01*
X158570898Y-92023097D01*
X158663693Y-91799069D01*
X158711000Y-91561243D01*
X158711000Y-91318757D01*
X158663693Y-91080931D01*
X158570898Y-90856903D01*
X158436180Y-90655283D01*
X158356897Y-90576000D01*
X159143103Y-90576000D01*
X159063820Y-90655283D01*
X158929102Y-90856903D01*
X158836307Y-91080931D01*
X158789000Y-91318757D01*
X158789000Y-91561243D01*
X158836307Y-91799069D01*
X158929102Y-92023097D01*
X159063820Y-92224717D01*
X159235283Y-92396180D01*
X159436903Y-92530898D01*
X159660931Y-92623693D01*
X159898757Y-92671000D01*
X160141243Y-92671000D01*
X160379069Y-92623693D01*
X160603097Y-92530898D01*
X160804717Y-92396180D01*
X160976180Y-92224717D01*
X161110898Y-92023097D01*
X161203693Y-91799069D01*
X161251000Y-91561243D01*
X161251000Y-91318757D01*
X161203693Y-91080931D01*
X161110898Y-90856903D01*
X160976180Y-90655283D01*
X160896897Y-90576000D01*
X161683103Y-90576000D01*
X161603820Y-90655283D01*
X161469102Y-90856903D01*
X161376307Y-91080931D01*
X161329000Y-91318757D01*
X161329000Y-91561243D01*
X161376307Y-91799069D01*
X161469102Y-92023097D01*
X161603820Y-92224717D01*
X161775283Y-92396180D01*
X161976903Y-92530898D01*
X162200931Y-92623693D01*
X162438757Y-92671000D01*
X162681243Y-92671000D01*
X162919069Y-92623693D01*
X163143097Y-92530898D01*
X163344717Y-92396180D01*
X163516180Y-92224717D01*
X163650898Y-92023097D01*
X163743693Y-91799069D01*
X163791000Y-91561243D01*
X163791000Y-91318757D01*
X163743693Y-91080931D01*
X163650898Y-90856903D01*
X163516180Y-90655283D01*
X163436897Y-90576000D01*
X164223103Y-90576000D01*
X164143820Y-90655283D01*
X164009102Y-90856903D01*
X163916307Y-91080931D01*
X163869000Y-91318757D01*
X163869000Y-91561243D01*
X163916307Y-91799069D01*
X164009102Y-92023097D01*
X164143820Y-92224717D01*
X164315283Y-92396180D01*
X164516903Y-92530898D01*
X164740931Y-92623693D01*
X164978757Y-92671000D01*
X165221243Y-92671000D01*
X165459069Y-92623693D01*
X165683097Y-92530898D01*
X165884717Y-92396180D01*
X166056180Y-92224717D01*
X166190898Y-92023097D01*
X166283693Y-91799069D01*
X166331000Y-91561243D01*
X166331000Y-91318757D01*
X166283693Y-91080931D01*
X166190898Y-90856903D01*
X166056180Y-90655283D01*
X165976897Y-90576000D01*
X166763103Y-90576000D01*
X166683820Y-90655283D01*
X166549102Y-90856903D01*
X166456307Y-91080931D01*
X166409000Y-91318757D01*
X166409000Y-91561243D01*
X166456307Y-91799069D01*
X166549102Y-92023097D01*
X166683820Y-92224717D01*
X166855283Y-92396180D01*
X167056903Y-92530898D01*
X167280931Y-92623693D01*
X167518757Y-92671000D01*
X167761243Y-92671000D01*
X167999069Y-92623693D01*
X168223097Y-92530898D01*
X168424717Y-92396180D01*
X168596180Y-92224717D01*
X168730898Y-92023097D01*
X168823693Y-91799069D01*
X168871000Y-91561243D01*
X168871000Y-91318757D01*
X168823693Y-91080931D01*
X168730898Y-90856903D01*
X168596180Y-90655283D01*
X168516897Y-90576000D01*
X169303103Y-90576000D01*
X169223820Y-90655283D01*
X169089102Y-90856903D01*
X168996307Y-91080931D01*
X168949000Y-91318757D01*
X168949000Y-91561243D01*
X168996307Y-91799069D01*
X169089102Y-92023097D01*
X169223820Y-92224717D01*
X169395283Y-92396180D01*
X169596903Y-92530898D01*
X169722800Y-92583046D01*
X169722800Y-92774621D01*
X169228623Y-93268800D01*
X148943383Y-93268800D01*
X148920933Y-93266589D01*
X148898483Y-93268800D01*
X148898474Y-93268800D01*
X148831307Y-93275415D01*
X148745125Y-93301559D01*
X148665698Y-93344013D01*
X148596081Y-93401147D01*
X148581764Y-93418592D01*
X147940060Y-94060297D01*
X147813066Y-94187291D01*
X147813060Y-94187296D01*
X147723779Y-94276577D01*
X147713760Y-94284800D01*
X147631136Y-94284800D01*
X147628290Y-94280540D01*
X147527460Y-94179710D01*
X147408895Y-94100488D01*
X147277154Y-94045919D01*
X147137298Y-94018100D01*
X146994702Y-94018100D01*
X146854846Y-94045919D01*
X146723105Y-94100488D01*
X146604540Y-94179710D01*
X146503710Y-94280540D01*
X146424488Y-94399105D01*
X146369919Y-94530846D01*
X146342100Y-94670702D01*
X146342100Y-94813298D01*
X146369919Y-94953154D01*
X146424488Y-95084895D01*
X146503710Y-95203460D01*
X146604540Y-95304290D01*
X146723105Y-95383512D01*
X146854846Y-95438081D01*
X146994702Y-95465900D01*
X147137298Y-95465900D01*
X147277154Y-95438081D01*
X147408895Y-95383512D01*
X147527460Y-95304290D01*
X147573991Y-95257759D01*
X147573990Y-96635432D01*
X147435431Y-96773991D01*
X136802193Y-96773991D01*
X136779743Y-96771780D01*
X136757293Y-96773991D01*
X136757283Y-96773991D01*
X136690116Y-96780606D01*
X136623992Y-96800665D01*
X136603933Y-96806750D01*
X136524507Y-96849204D01*
X136472335Y-96892020D01*
X136472329Y-96892026D01*
X136454890Y-96906338D01*
X136440578Y-96923777D01*
X135582592Y-97781765D01*
X135565148Y-97796081D01*
X135550831Y-97813526D01*
X135550830Y-97813527D01*
X135508013Y-97865699D01*
X135480066Y-97917986D01*
X135465560Y-97945125D01*
X135450977Y-97993199D01*
X135439416Y-98031308D01*
X135430589Y-98120934D01*
X135432801Y-98143394D01*
X135432800Y-99510863D01*
X135428540Y-99513710D01*
X135327710Y-99614540D01*
X135324864Y-99618800D01*
X134611181Y-99618800D01*
X134573777Y-99573223D01*
X134493032Y-99506957D01*
X134400910Y-99457717D01*
X134300953Y-99427395D01*
X134197000Y-99417157D01*
X132947000Y-99417157D01*
X132843047Y-99427395D01*
X132743090Y-99457717D01*
X132650968Y-99506957D01*
X132570223Y-99573223D01*
X132503957Y-99653968D01*
X132454717Y-99746090D01*
X132424395Y-99846047D01*
X132414157Y-99950000D01*
X132414157Y-100250000D01*
X132424395Y-100353953D01*
X132454717Y-100453910D01*
X132503957Y-100546032D01*
X132548248Y-100600000D01*
X132503957Y-100653968D01*
X132454717Y-100746090D01*
X132424395Y-100846047D01*
X132414157Y-100950000D01*
X132414157Y-101250000D01*
X132424395Y-101353953D01*
X132454717Y-101453910D01*
X132503957Y-101546032D01*
X132548248Y-101600000D01*
X132533968Y-101617400D01*
X132271900Y-101617400D01*
X132054600Y-101400101D01*
X132054600Y-99259899D01*
X132279899Y-99034600D01*
X132979465Y-99034600D01*
X132992386Y-99053938D01*
X133102062Y-99163614D01*
X133231026Y-99249785D01*
X133374324Y-99309141D01*
X133526448Y-99339400D01*
X133681552Y-99339400D01*
X133833676Y-99309141D01*
X133976974Y-99249785D01*
X134105938Y-99163614D01*
X134215614Y-99053938D01*
X134301785Y-98924974D01*
X134361141Y-98781676D01*
X134391400Y-98629552D01*
X134391400Y-98474448D01*
X134361141Y-98322324D01*
X134301785Y-98179026D01*
X134215614Y-98050062D01*
X134105938Y-97940386D01*
X133976974Y-97854215D01*
X133833676Y-97794859D01*
X133681552Y-97764600D01*
X133526448Y-97764600D01*
X133374324Y-97794859D01*
X133231026Y-97854215D01*
X133102062Y-97940386D01*
X132992386Y-98050062D01*
X132979465Y-98069400D01*
X132103696Y-98069400D01*
X132079999Y-98067066D01*
X132056302Y-98069400D01*
X132056293Y-98069400D01*
X131985394Y-98076383D01*
X131894423Y-98103978D01*
X131810585Y-98148791D01*
X131737099Y-98209099D01*
X131721983Y-98227518D01*
X131247513Y-98701988D01*
X131229100Y-98717099D01*
X131213989Y-98735512D01*
X131213987Y-98735514D01*
X131168792Y-98790585D01*
X131123978Y-98874424D01*
X131096384Y-98965394D01*
X131087065Y-99060000D01*
X131089401Y-99083715D01*
X131089400Y-101576295D01*
X131087065Y-101600000D01*
X131089400Y-101623705D01*
X131089400Y-101623706D01*
X131096383Y-101694605D01*
X131123978Y-101785576D01*
X131168791Y-101869415D01*
X131229099Y-101942901D01*
X131247518Y-101958017D01*
X131713987Y-102424487D01*
X131729099Y-102442901D01*
X131802585Y-102503209D01*
X131882700Y-102546032D01*
X131886423Y-102548022D01*
X131977393Y-102575617D01*
X132072000Y-102584935D01*
X132095707Y-102582600D01*
X132482538Y-102582600D01*
X132478678Y-102587304D01*
X132443299Y-102653492D01*
X132421513Y-102725311D01*
X132414157Y-102800000D01*
X132416000Y-102877750D01*
X132511250Y-102973000D01*
X133445000Y-102973000D01*
X133445000Y-102953000D01*
X133699000Y-102953000D01*
X133699000Y-102973000D01*
X134632750Y-102973000D01*
X134728000Y-102877750D01*
X134729843Y-102800000D01*
X134722487Y-102725311D01*
X134700701Y-102653492D01*
X134665322Y-102587304D01*
X134635747Y-102551266D01*
X134640043Y-102546032D01*
X134689283Y-102453910D01*
X134711458Y-102380810D01*
X134740488Y-102450895D01*
X134819710Y-102569460D01*
X134920540Y-102670290D01*
X135039105Y-102749512D01*
X135170846Y-102804081D01*
X135310702Y-102831900D01*
X135453298Y-102831900D01*
X135593154Y-102804081D01*
X135724895Y-102749512D01*
X135843460Y-102670290D01*
X135944290Y-102569460D01*
X136023512Y-102450895D01*
X136078081Y-102319154D01*
X136105900Y-102179298D01*
X136105900Y-102036702D01*
X136078081Y-101896846D01*
X136023512Y-101765105D01*
X135944290Y-101646540D01*
X135843460Y-101545710D01*
X135839200Y-101542864D01*
X135839200Y-101539133D01*
X135887631Y-101524441D01*
X135967058Y-101481987D01*
X136036675Y-101424853D01*
X136050996Y-101407403D01*
X136768910Y-100689490D01*
X136786354Y-100675174D01*
X136843488Y-100605557D01*
X136885942Y-100526130D01*
X136912086Y-100439948D01*
X136918701Y-100372781D01*
X136918701Y-100372772D01*
X136920912Y-100350322D01*
X136918701Y-100327872D01*
X136918701Y-99824128D01*
X136920912Y-99801678D01*
X136918701Y-99779228D01*
X136918701Y-99779219D01*
X136912086Y-99712052D01*
X136885942Y-99625870D01*
X136843488Y-99546443D01*
X136786354Y-99476826D01*
X136768904Y-99462505D01*
X136758081Y-99451682D01*
X138265000Y-99451682D01*
X138265000Y-99684318D01*
X138310386Y-99912485D01*
X138399412Y-100127413D01*
X138528658Y-100320843D01*
X138693157Y-100485342D01*
X138886587Y-100614588D01*
X139101515Y-100703614D01*
X139329682Y-100749000D01*
X139562318Y-100749000D01*
X139790485Y-100703614D01*
X140005413Y-100614588D01*
X140198843Y-100485342D01*
X140363342Y-100320843D01*
X140492588Y-100127413D01*
X140581614Y-99912485D01*
X140627000Y-99684318D01*
X140627000Y-99451682D01*
X140805000Y-99451682D01*
X140805000Y-99684318D01*
X140850386Y-99912485D01*
X140939412Y-100127413D01*
X141068658Y-100320843D01*
X141233157Y-100485342D01*
X141426587Y-100614588D01*
X141641515Y-100703614D01*
X141869682Y-100749000D01*
X142102318Y-100749000D01*
X142330485Y-100703614D01*
X142545413Y-100614588D01*
X142738843Y-100485342D01*
X142903342Y-100320843D01*
X143032588Y-100127413D01*
X143121614Y-99912485D01*
X143167000Y-99684318D01*
X143167000Y-99451682D01*
X143121614Y-99223515D01*
X143032588Y-99008587D01*
X142903342Y-98815157D01*
X142738843Y-98650658D01*
X142545413Y-98521412D01*
X142330485Y-98432386D01*
X142102318Y-98387000D01*
X141869682Y-98387000D01*
X141641515Y-98432386D01*
X141426587Y-98521412D01*
X141233157Y-98650658D01*
X141068658Y-98815157D01*
X140939412Y-99008587D01*
X140850386Y-99223515D01*
X140805000Y-99451682D01*
X140627000Y-99451682D01*
X140581614Y-99223515D01*
X140492588Y-99008587D01*
X140363342Y-98815157D01*
X140198843Y-98650658D01*
X140005413Y-98521412D01*
X139790485Y-98432386D01*
X139562318Y-98387000D01*
X139329682Y-98387000D01*
X139101515Y-98432386D01*
X138886587Y-98521412D01*
X138693157Y-98650658D01*
X138528658Y-98815157D01*
X138399412Y-99008587D01*
X138310386Y-99223515D01*
X138265000Y-99451682D01*
X136758081Y-99451682D01*
X136652010Y-99345611D01*
X136652010Y-98436567D01*
X137095380Y-97993199D01*
X144068801Y-97993201D01*
X144068801Y-98479074D01*
X143966587Y-98521412D01*
X143773157Y-98650658D01*
X143608658Y-98815157D01*
X143479412Y-99008587D01*
X143390386Y-99223515D01*
X143345000Y-99451682D01*
X143345000Y-99684318D01*
X143390386Y-99912485D01*
X143479412Y-100127413D01*
X143608658Y-100320843D01*
X143773157Y-100485342D01*
X143966587Y-100614588D01*
X144181515Y-100703614D01*
X144298717Y-100726927D01*
X144350192Y-100754441D01*
X144436374Y-100780585D01*
X144526000Y-100789412D01*
X144615627Y-100780585D01*
X144701809Y-100754441D01*
X144753285Y-100726927D01*
X144870485Y-100703614D01*
X145085413Y-100614588D01*
X145278843Y-100485342D01*
X145443342Y-100320843D01*
X145572588Y-100127413D01*
X145661614Y-99912485D01*
X145707000Y-99684318D01*
X145707000Y-99451682D01*
X145885000Y-99451682D01*
X145885000Y-99684318D01*
X145930386Y-99912485D01*
X146019412Y-100127413D01*
X146148658Y-100320843D01*
X146313157Y-100485342D01*
X146506587Y-100614588D01*
X146721515Y-100703614D01*
X146949682Y-100749000D01*
X147182318Y-100749000D01*
X147410485Y-100703614D01*
X147625413Y-100614588D01*
X147818843Y-100485342D01*
X147983342Y-100320843D01*
X148112588Y-100127413D01*
X148201614Y-99912485D01*
X148247000Y-99684318D01*
X148247000Y-99451682D01*
X148425000Y-99451682D01*
X148425000Y-99684318D01*
X148470386Y-99912485D01*
X148559412Y-100127413D01*
X148688658Y-100320843D01*
X148853157Y-100485342D01*
X149046587Y-100614588D01*
X149261515Y-100703614D01*
X149489682Y-100749000D01*
X149722318Y-100749000D01*
X149950485Y-100703614D01*
X150165413Y-100614588D01*
X150358843Y-100485342D01*
X150523342Y-100320843D01*
X150652588Y-100127413D01*
X150741614Y-99912485D01*
X150787000Y-99684318D01*
X150787000Y-99451682D01*
X150965000Y-99451682D01*
X150965000Y-99684318D01*
X151010386Y-99912485D01*
X151099412Y-100127413D01*
X151228658Y-100320843D01*
X151393157Y-100485342D01*
X151586587Y-100614588D01*
X151801515Y-100703614D01*
X152029682Y-100749000D01*
X152262318Y-100749000D01*
X152490485Y-100703614D01*
X152705413Y-100614588D01*
X152898843Y-100485342D01*
X153063342Y-100320843D01*
X153192588Y-100127413D01*
X153281614Y-99912485D01*
X153327000Y-99684318D01*
X153327000Y-99451682D01*
X153505000Y-99451682D01*
X153505000Y-99684318D01*
X153550386Y-99912485D01*
X153639412Y-100127413D01*
X153768658Y-100320843D01*
X153933157Y-100485342D01*
X154126587Y-100614588D01*
X154341515Y-100703614D01*
X154569682Y-100749000D01*
X154802318Y-100749000D01*
X155030485Y-100703614D01*
X155245413Y-100614588D01*
X155438843Y-100485342D01*
X155603342Y-100320843D01*
X155732588Y-100127413D01*
X155821614Y-99912485D01*
X155828649Y-99877115D01*
X156086165Y-99877115D01*
X156168372Y-100093546D01*
X156291223Y-100289781D01*
X156449997Y-100458278D01*
X156638592Y-100592562D01*
X156849761Y-100687473D01*
X156916886Y-100707829D01*
X157099000Y-100646297D01*
X157099000Y-99695000D01*
X156147092Y-99695000D01*
X156086165Y-99877115D01*
X155828649Y-99877115D01*
X155867000Y-99684318D01*
X155867000Y-99451682D01*
X155828650Y-99258885D01*
X156086165Y-99258885D01*
X156147092Y-99441000D01*
X157099000Y-99441000D01*
X157099000Y-98489703D01*
X156916886Y-98428171D01*
X156849761Y-98448527D01*
X156638592Y-98543438D01*
X156449997Y-98677722D01*
X156291223Y-98846219D01*
X156168372Y-99042454D01*
X156086165Y-99258885D01*
X155828650Y-99258885D01*
X155821614Y-99223515D01*
X155732588Y-99008587D01*
X155603342Y-98815157D01*
X155438843Y-98650658D01*
X155245413Y-98521412D01*
X155030485Y-98432386D01*
X154802318Y-98387000D01*
X154569682Y-98387000D01*
X154341515Y-98432386D01*
X154126587Y-98521412D01*
X153933157Y-98650658D01*
X153768658Y-98815157D01*
X153639412Y-99008587D01*
X153550386Y-99223515D01*
X153505000Y-99451682D01*
X153327000Y-99451682D01*
X153281614Y-99223515D01*
X153192588Y-99008587D01*
X153063342Y-98815157D01*
X152898843Y-98650658D01*
X152705413Y-98521412D01*
X152490485Y-98432386D01*
X152262318Y-98387000D01*
X152029682Y-98387000D01*
X151801515Y-98432386D01*
X151586587Y-98521412D01*
X151393157Y-98650658D01*
X151228658Y-98815157D01*
X151099412Y-99008587D01*
X151010386Y-99223515D01*
X150965000Y-99451682D01*
X150787000Y-99451682D01*
X150741614Y-99223515D01*
X150652588Y-99008587D01*
X150523342Y-98815157D01*
X150358843Y-98650658D01*
X150165413Y-98521412D01*
X150063200Y-98479074D01*
X150063200Y-97979377D01*
X150303378Y-97739200D01*
X151040957Y-97739200D01*
X151040957Y-97932000D01*
X151048313Y-98006689D01*
X151070099Y-98078508D01*
X151105478Y-98144696D01*
X151153089Y-98202711D01*
X151211104Y-98250322D01*
X151277292Y-98285701D01*
X151349111Y-98307487D01*
X151423800Y-98314843D01*
X153223800Y-98314843D01*
X153298489Y-98307487D01*
X153370308Y-98285701D01*
X153416000Y-98261278D01*
X153461692Y-98285701D01*
X153533511Y-98307487D01*
X153608200Y-98314843D01*
X155408200Y-98314843D01*
X155482889Y-98307487D01*
X155554708Y-98285701D01*
X155620896Y-98250322D01*
X155678911Y-98202711D01*
X155726522Y-98144696D01*
X155761901Y-98078508D01*
X155783687Y-98006689D01*
X155791043Y-97932000D01*
X155791043Y-96632000D01*
X155783687Y-96557311D01*
X155761901Y-96485492D01*
X155726522Y-96419304D01*
X155678911Y-96361289D01*
X155620896Y-96313678D01*
X155554708Y-96278299D01*
X155482889Y-96256513D01*
X155408200Y-96249157D01*
X155054395Y-96249157D01*
X155119814Y-96183738D01*
X155205985Y-96054774D01*
X155265341Y-95911476D01*
X155295600Y-95759352D01*
X155295600Y-95604248D01*
X155265341Y-95452124D01*
X155205985Y-95308826D01*
X155119814Y-95179862D01*
X155010138Y-95070186D01*
X154881174Y-94984015D01*
X154737876Y-94924659D01*
X154585752Y-94894400D01*
X154430648Y-94894400D01*
X154278524Y-94924659D01*
X154135226Y-94984015D01*
X154006262Y-95070186D01*
X153896586Y-95179862D01*
X153810415Y-95308826D01*
X153751059Y-95452124D01*
X153720800Y-95604248D01*
X153720800Y-95759352D01*
X153751059Y-95911476D01*
X153810415Y-96054774D01*
X153896586Y-96183738D01*
X153962005Y-96249157D01*
X153608200Y-96249157D01*
X153533511Y-96256513D01*
X153461692Y-96278299D01*
X153416000Y-96302722D01*
X153370308Y-96278299D01*
X153298489Y-96256513D01*
X153223800Y-96249157D01*
X151423800Y-96249157D01*
X151349111Y-96256513D01*
X151277292Y-96278299D01*
X151211104Y-96313678D01*
X151153089Y-96361289D01*
X151105478Y-96419304D01*
X151070099Y-96485492D01*
X151048313Y-96557311D01*
X151040957Y-96632000D01*
X151040957Y-96824800D01*
X150136449Y-96824800D01*
X150113999Y-96822589D01*
X150091549Y-96824800D01*
X150091540Y-96824800D01*
X150024373Y-96831415D01*
X149938191Y-96857559D01*
X149908438Y-96873462D01*
X149858763Y-96900013D01*
X149806592Y-96942830D01*
X149789147Y-96957147D01*
X149774830Y-96974592D01*
X149298592Y-97450831D01*
X149281148Y-97465147D01*
X149266831Y-97482592D01*
X149266830Y-97482593D01*
X149224013Y-97534765D01*
X149185482Y-97606853D01*
X149181560Y-97614191D01*
X149155416Y-97700373D01*
X149154818Y-97706441D01*
X149146589Y-97790000D01*
X149148801Y-97812460D01*
X149148801Y-98479074D01*
X149046587Y-98521412D01*
X148853157Y-98650658D01*
X148688658Y-98815157D01*
X148559412Y-99008587D01*
X148470386Y-99223515D01*
X148425000Y-99451682D01*
X148247000Y-99451682D01*
X148201614Y-99223515D01*
X148112588Y-99008587D01*
X147983342Y-98815157D01*
X147818843Y-98650658D01*
X147625413Y-98521412D01*
X147410485Y-98432386D01*
X147182318Y-98387000D01*
X146949682Y-98387000D01*
X146721515Y-98432386D01*
X146506587Y-98521412D01*
X146313157Y-98650658D01*
X146148658Y-98815157D01*
X146019412Y-99008587D01*
X145930386Y-99223515D01*
X145885000Y-99451682D01*
X145707000Y-99451682D01*
X145661614Y-99223515D01*
X145572588Y-99008587D01*
X145443342Y-98815157D01*
X145278843Y-98650658D01*
X145085413Y-98521412D01*
X144983200Y-98479074D01*
X144983200Y-97993201D01*
X147805549Y-97993201D01*
X147827999Y-97995412D01*
X147850449Y-97993201D01*
X147850459Y-97993201D01*
X147917626Y-97986586D01*
X148003808Y-97960442D01*
X148083235Y-97917988D01*
X148152852Y-97860854D01*
X148167173Y-97843404D01*
X148643409Y-97367169D01*
X148660853Y-97352853D01*
X148700570Y-97304459D01*
X148717987Y-97283236D01*
X148747193Y-97228594D01*
X148760441Y-97203809D01*
X148786585Y-97117627D01*
X148793200Y-97050460D01*
X148793200Y-97050450D01*
X148795411Y-97028000D01*
X148793200Y-97005550D01*
X148793200Y-94931377D01*
X149236569Y-94488010D01*
X169598740Y-94488010D01*
X169621190Y-94490221D01*
X169643640Y-94488010D01*
X169643650Y-94488010D01*
X169710817Y-94481395D01*
X169796999Y-94455251D01*
X169876426Y-94412797D01*
X169946043Y-94355663D01*
X169960364Y-94338213D01*
X171004378Y-93294200D01*
X172316550Y-93294200D01*
X172339000Y-93296411D01*
X172361450Y-93294200D01*
X172361460Y-93294200D01*
X172428627Y-93287585D01*
X172514809Y-93261441D01*
X172594236Y-93218987D01*
X172663853Y-93161853D01*
X172678174Y-93144403D01*
X173027409Y-92795169D01*
X173044853Y-92780853D01*
X173059170Y-92763408D01*
X173101987Y-92711237D01*
X173131793Y-92655472D01*
X173144441Y-92631809D01*
X173156652Y-92591557D01*
X173258525Y-92549360D01*
X174899000Y-92549360D01*
X174899000Y-92870640D01*
X174961678Y-93185745D01*
X175084626Y-93482568D01*
X175263119Y-93749702D01*
X175490298Y-93976881D01*
X175757432Y-94155374D01*
X176054255Y-94278322D01*
X176369360Y-94341000D01*
X176690640Y-94341000D01*
X177005745Y-94278322D01*
X177302568Y-94155374D01*
X177569702Y-93976881D01*
X177796881Y-93749702D01*
X177975374Y-93482568D01*
X178098322Y-93185745D01*
X178161000Y-92870640D01*
X178161000Y-92549360D01*
X178098322Y-92234255D01*
X177975374Y-91937432D01*
X177796881Y-91670298D01*
X177569702Y-91443119D01*
X177302568Y-91264626D01*
X177005745Y-91141678D01*
X176690640Y-91079000D01*
X176369360Y-91079000D01*
X176054255Y-91141678D01*
X175757432Y-91264626D01*
X175490298Y-91443119D01*
X175263119Y-91670298D01*
X175084626Y-91937432D01*
X174961678Y-92234255D01*
X174899000Y-92549360D01*
X173258525Y-92549360D01*
X173303097Y-92530898D01*
X173504717Y-92396180D01*
X173676180Y-92224717D01*
X173810898Y-92023097D01*
X173903693Y-91799069D01*
X173951000Y-91561243D01*
X173951000Y-91318757D01*
X173903693Y-91080931D01*
X173810898Y-90856903D01*
X173676180Y-90655283D01*
X173596897Y-90576000D01*
X176510146Y-90576000D01*
X176944115Y-90618551D01*
X177342462Y-90738819D01*
X177709864Y-90934170D01*
X178032317Y-91197157D01*
X178297553Y-91517773D01*
X178495460Y-91883795D01*
X178618506Y-92281291D01*
X178664000Y-92714137D01*
X178664000Y-94869000D01*
X158242000Y-94869000D01*
X158217224Y-94871440D01*
X158193399Y-94878667D01*
X158171443Y-94890403D01*
X158152197Y-94906197D01*
X158136403Y-94925443D01*
X158124667Y-94947399D01*
X158117440Y-94971224D01*
X158115000Y-94996000D01*
X158115000Y-98797639D01*
X158002003Y-98677722D01*
X157813408Y-98543438D01*
X157602239Y-98448527D01*
X157535114Y-98428171D01*
X157353000Y-98489703D01*
X157353000Y-99441000D01*
X157373000Y-99441000D01*
X157373000Y-99695000D01*
X157353000Y-99695000D01*
X157353000Y-100646297D01*
X157535114Y-100707829D01*
X157602239Y-100687473D01*
X157813408Y-100592562D01*
X158002003Y-100458278D01*
X158115000Y-100338361D01*
X158115000Y-101727000D01*
X137668000Y-101727000D01*
X137643224Y-101729440D01*
X137619399Y-101736667D01*
X137597443Y-101748403D01*
X137578197Y-101764197D01*
X137562403Y-101783443D01*
X137550667Y-101805399D01*
X137543440Y-101829224D01*
X137541000Y-101854000D01*
X137541000Y-110585391D01*
X137519069Y-110576307D01*
X137281243Y-110529000D01*
X137038757Y-110529000D01*
X136800931Y-110576307D01*
X136576903Y-110669102D01*
X136375283Y-110803820D01*
X136203820Y-110975283D01*
X136069102Y-111176903D01*
X135976307Y-111400931D01*
X135929000Y-111638757D01*
X135929000Y-111881243D01*
X135976307Y-112119069D01*
X136069102Y-112343097D01*
X136203820Y-112544717D01*
X136283103Y-112624000D01*
X135496897Y-112624000D01*
X135576180Y-112544717D01*
X135710898Y-112343097D01*
X135803693Y-112119069D01*
X135851000Y-111881243D01*
X135851000Y-111638757D01*
X135803693Y-111400931D01*
X135710898Y-111176903D01*
X135576180Y-110975283D01*
X135404717Y-110803820D01*
X135203097Y-110669102D01*
X134979069Y-110576307D01*
X134741243Y-110529000D01*
X134498757Y-110529000D01*
X134260931Y-110576307D01*
X134036903Y-110669102D01*
X133835283Y-110803820D01*
X133663820Y-110975283D01*
X133529102Y-111176903D01*
X133436307Y-111400931D01*
X133389000Y-111638757D01*
X133389000Y-111881243D01*
X133436307Y-112119069D01*
X133529102Y-112343097D01*
X133663820Y-112544717D01*
X133743103Y-112624000D01*
X130829854Y-112624000D01*
X130395885Y-112581449D01*
X129997536Y-112461181D01*
X129630138Y-112265831D01*
X129307685Y-112002845D01*
X129042446Y-111682226D01*
X128844539Y-111316204D01*
X128721494Y-110918708D01*
X128676000Y-110485863D01*
X128676000Y-110329360D01*
X129179000Y-110329360D01*
X129179000Y-110650640D01*
X129241678Y-110965745D01*
X129364626Y-111262568D01*
X129543119Y-111529702D01*
X129770298Y-111756881D01*
X130037432Y-111935374D01*
X130334255Y-112058322D01*
X130649360Y-112121000D01*
X130970640Y-112121000D01*
X131285745Y-112058322D01*
X131582568Y-111935374D01*
X131849702Y-111756881D01*
X132076881Y-111529702D01*
X132255374Y-111262568D01*
X132378322Y-110965745D01*
X132441000Y-110650640D01*
X132441000Y-110329360D01*
X132378322Y-110014255D01*
X132255374Y-109717432D01*
X132076881Y-109450298D01*
X131849702Y-109223119D01*
X131582568Y-109044626D01*
X131285745Y-108921678D01*
X130970640Y-108859000D01*
X130649360Y-108859000D01*
X130334255Y-108921678D01*
X130037432Y-109044626D01*
X129770298Y-109223119D01*
X129543119Y-109450298D01*
X129364626Y-109717432D01*
X129241678Y-110014255D01*
X129179000Y-110329360D01*
X128676000Y-110329360D01*
X128676000Y-105260260D01*
X128695411Y-105276190D01*
X128804821Y-105334671D01*
X128923538Y-105370683D01*
X129046999Y-105382843D01*
X130347001Y-105382843D01*
X130470462Y-105370683D01*
X130589179Y-105334671D01*
X130698589Y-105276190D01*
X130794488Y-105197488D01*
X130873190Y-105101589D01*
X130931671Y-104992179D01*
X130967683Y-104873462D01*
X130979843Y-104750001D01*
X130979843Y-104049999D01*
X130967683Y-103926538D01*
X130931671Y-103807821D01*
X130873190Y-103698411D01*
X130794488Y-103602512D01*
X130698589Y-103523810D01*
X130589179Y-103465329D01*
X130470462Y-103429317D01*
X130347001Y-103417157D01*
X129046999Y-103417157D01*
X128923538Y-103429317D01*
X128804821Y-103465329D01*
X128695411Y-103523810D01*
X128676000Y-103539740D01*
X128676000Y-103400000D01*
X132414157Y-103400000D01*
X132421513Y-103474689D01*
X132443299Y-103546508D01*
X132478678Y-103612696D01*
X132526289Y-103670711D01*
X132584304Y-103718322D01*
X132650492Y-103753701D01*
X132722311Y-103775487D01*
X132797000Y-103782843D01*
X133349750Y-103781000D01*
X133445000Y-103685750D01*
X133445000Y-103227000D01*
X133699000Y-103227000D01*
X133699000Y-103685750D01*
X133794250Y-103781000D01*
X134347000Y-103782843D01*
X134421689Y-103775487D01*
X134493508Y-103753701D01*
X134559696Y-103718322D01*
X134617711Y-103670711D01*
X134665322Y-103612696D01*
X134700701Y-103546508D01*
X134722487Y-103474689D01*
X134729843Y-103400000D01*
X134728000Y-103322250D01*
X134632750Y-103227000D01*
X133699000Y-103227000D01*
X133445000Y-103227000D01*
X132511250Y-103227000D01*
X132416000Y-103322250D01*
X132414157Y-103400000D01*
X128676000Y-103400000D01*
X128676000Y-99660260D01*
X128695411Y-99676190D01*
X128804821Y-99734671D01*
X128923538Y-99770683D01*
X129046999Y-99782843D01*
X130347001Y-99782843D01*
X130470462Y-99770683D01*
X130589179Y-99734671D01*
X130698589Y-99676190D01*
X130794488Y-99597488D01*
X130873190Y-99501589D01*
X130931671Y-99392179D01*
X130967683Y-99273462D01*
X130979843Y-99150001D01*
X130979843Y-98449999D01*
X130967683Y-98326538D01*
X130931671Y-98207821D01*
X130873190Y-98098411D01*
X130794488Y-98002512D01*
X130698589Y-97923810D01*
X130589179Y-97865329D01*
X130470462Y-97829317D01*
X130347001Y-97817157D01*
X129046999Y-97817157D01*
X128923538Y-97829317D01*
X128804821Y-97865329D01*
X128695411Y-97923810D01*
X128676000Y-97939740D01*
X128676000Y-92729854D01*
X128693697Y-92549360D01*
X129179000Y-92549360D01*
X129179000Y-92870640D01*
X129241678Y-93185745D01*
X129364626Y-93482568D01*
X129543119Y-93749702D01*
X129770298Y-93976881D01*
X130037432Y-94155374D01*
X130334255Y-94278322D01*
X130649360Y-94341000D01*
X130970640Y-94341000D01*
X131285745Y-94278322D01*
X131582568Y-94155374D01*
X131849702Y-93976881D01*
X132076881Y-93749702D01*
X132255374Y-93482568D01*
X132378322Y-93185745D01*
X132441000Y-92870640D01*
X132441000Y-92549360D01*
X132378322Y-92234255D01*
X132255374Y-91937432D01*
X132076881Y-91670298D01*
X131849702Y-91443119D01*
X131582568Y-91264626D01*
X131285745Y-91141678D01*
X130970640Y-91079000D01*
X130649360Y-91079000D01*
X130334255Y-91141678D01*
X130037432Y-91264626D01*
X129770298Y-91443119D01*
X129543119Y-91670298D01*
X129364626Y-91937432D01*
X129241678Y-92234255D01*
X129179000Y-92549360D01*
X128693697Y-92549360D01*
X128718551Y-92295885D01*
X128838819Y-91897538D01*
X129034170Y-91530136D01*
X129297157Y-91207683D01*
X129617773Y-90942447D01*
X129983795Y-90744540D01*
X130381291Y-90621494D01*
X130814137Y-90576000D01*
X143903103Y-90576000D01*
X143823820Y-90655283D01*
%TD*%
M02*
