%TF.GenerationSoftware,KiCad,Pcbnew,(5.1.6-0-10_14)*%
%TF.CreationDate,2021-12-01T23:43:45-08:00*%
%TF.ProjectId,NAU7802_Dual_24-bit_ADC_DIP,4e415537-3830-4325-9f44-75616c5f3234,v02_DIP*%
%TF.SameCoordinates,Original*%
%TF.FileFunction,Soldermask,Bot*%
%TF.FilePolarity,Negative*%
%FSLAX46Y46*%
G04 Gerber Fmt 4.6, Leading zero omitted, Abs format (unit mm)*
G04 Created by KiCad (PCBNEW (5.1.6-0-10_14)) date 2021-12-01 23:43:45*
%MOMM*%
%LPD*%
G01*
G04 APERTURE LIST*
%ADD10C,1.801600*%
%ADD11C,2.601600*%
%ADD12R,2.200000X1.700000*%
%ADD13R,1.701600X1.701600*%
%ADD14O,1.701600X1.701600*%
G04 APERTURE END LIST*
D10*
%TO.C,M1*%
X172720000Y-91440000D03*
X170180000Y-91440000D03*
X167640000Y-91440000D03*
X165100000Y-91440000D03*
X162560000Y-91440000D03*
X160020000Y-91440000D03*
X157480000Y-91440000D03*
X154940000Y-91440000D03*
X152400000Y-91440000D03*
X149860000Y-91440000D03*
X147320000Y-91440000D03*
X144780000Y-91440000D03*
X172720000Y-111760000D03*
X170180000Y-111760000D03*
X167640000Y-111760000D03*
X165100000Y-111760000D03*
X162560000Y-111760000D03*
X160020000Y-111760000D03*
X157480000Y-111760000D03*
X154940000Y-111760000D03*
X152400000Y-111760000D03*
X149860000Y-111760000D03*
X147320000Y-111760000D03*
X144780000Y-111760000D03*
X142240000Y-111760000D03*
X139700000Y-111760000D03*
X137160000Y-111760000D03*
X134620000Y-111760000D03*
%TD*%
D11*
%TO.C,REF\u002A\u002A*%
X130810000Y-110490000D03*
%TD*%
%TO.C,REF\u002A\u002A*%
X176530000Y-92710000D03*
%TD*%
%TO.C,REF*%
X176530000Y-110490000D03*
%TD*%
%TO.C,REF\u002A\u002A*%
X130810000Y-92710000D03*
%TD*%
%TO.C,J2*%
G36*
G01*
X175406133Y-106149200D02*
X178373867Y-106149200D01*
G75*
G02*
X178640800Y-106416133I0J-266933D01*
G01*
X178640800Y-107483867D01*
G75*
G02*
X178373867Y-107750800I-266933J0D01*
G01*
X175406133Y-107750800D01*
G75*
G02*
X175139200Y-107483867I0J266933D01*
G01*
X175139200Y-106416133D01*
G75*
G02*
X175406133Y-106149200I266933J0D01*
G01*
G37*
G36*
G01*
X175406133Y-95449200D02*
X178373867Y-95449200D01*
G75*
G02*
X178640800Y-95716133I0J-266933D01*
G01*
X178640800Y-96783867D01*
G75*
G02*
X178373867Y-97050800I-266933J0D01*
G01*
X175406133Y-97050800D01*
G75*
G02*
X175139200Y-96783867I0J266933D01*
G01*
X175139200Y-95716133D01*
G75*
G02*
X175406133Y-95449200I266933J0D01*
G01*
G37*
G36*
G01*
X169614600Y-104049200D02*
X172665400Y-104049200D01*
G75*
G02*
X172940800Y-104324600I0J-275400D01*
G01*
X172940800Y-104875400D01*
G75*
G02*
X172665400Y-105150800I-275400J0D01*
G01*
X169614600Y-105150800D01*
G75*
G02*
X169339200Y-104875400I0J275400D01*
G01*
X169339200Y-104324600D01*
G75*
G02*
X169614600Y-104049200I275400J0D01*
G01*
G37*
G36*
G01*
X169614600Y-102049200D02*
X172665400Y-102049200D01*
G75*
G02*
X172940800Y-102324600I0J-275400D01*
G01*
X172940800Y-102875400D01*
G75*
G02*
X172665400Y-103150800I-275400J0D01*
G01*
X169614600Y-103150800D01*
G75*
G02*
X169339200Y-102875400I0J275400D01*
G01*
X169339200Y-102324600D01*
G75*
G02*
X169614600Y-102049200I275400J0D01*
G01*
G37*
G36*
G01*
X169614600Y-100049200D02*
X172665400Y-100049200D01*
G75*
G02*
X172940800Y-100324600I0J-275400D01*
G01*
X172940800Y-100875400D01*
G75*
G02*
X172665400Y-101150800I-275400J0D01*
G01*
X169614600Y-101150800D01*
G75*
G02*
X169339200Y-100875400I0J275400D01*
G01*
X169339200Y-100324600D01*
G75*
G02*
X169614600Y-100049200I275400J0D01*
G01*
G37*
G36*
G01*
X169614600Y-98049200D02*
X172665400Y-98049200D01*
G75*
G02*
X172940800Y-98324600I0J-275400D01*
G01*
X172940800Y-98875400D01*
G75*
G02*
X172665400Y-99150800I-275400J0D01*
G01*
X169614600Y-99150800D01*
G75*
G02*
X169339200Y-98875400I0J275400D01*
G01*
X169339200Y-98324600D01*
G75*
G02*
X169614600Y-98049200I275400J0D01*
G01*
G37*
%TD*%
%TO.C,J4*%
G36*
G01*
X134222400Y-103450800D02*
X132921600Y-103450800D01*
G75*
G02*
X132746200Y-103275400I0J175400D01*
G01*
X132746200Y-102924600D01*
G75*
G02*
X132921600Y-102749200I175400J0D01*
G01*
X134222400Y-102749200D01*
G75*
G02*
X134397800Y-102924600I0J-175400D01*
G01*
X134397800Y-103275400D01*
G75*
G02*
X134222400Y-103450800I-175400J0D01*
G01*
G37*
G36*
G01*
X134222400Y-102450800D02*
X132921600Y-102450800D01*
G75*
G02*
X132746200Y-102275400I0J175400D01*
G01*
X132746200Y-101924600D01*
G75*
G02*
X132921600Y-101749200I175400J0D01*
G01*
X134222400Y-101749200D01*
G75*
G02*
X134397800Y-101924600I0J-175400D01*
G01*
X134397800Y-102275400D01*
G75*
G02*
X134222400Y-102450800I-175400J0D01*
G01*
G37*
G36*
G01*
X134222400Y-101450800D02*
X132921600Y-101450800D01*
G75*
G02*
X132746200Y-101275400I0J175400D01*
G01*
X132746200Y-100924600D01*
G75*
G02*
X132921600Y-100749200I175400J0D01*
G01*
X134222400Y-100749200D01*
G75*
G02*
X134397800Y-100924600I0J-175400D01*
G01*
X134397800Y-101275400D01*
G75*
G02*
X134222400Y-101450800I-175400J0D01*
G01*
G37*
G36*
G01*
X134222400Y-100450800D02*
X132921600Y-100450800D01*
G75*
G02*
X132746200Y-100275400I0J175400D01*
G01*
X132746200Y-99924600D01*
G75*
G02*
X132921600Y-99749200I175400J0D01*
G01*
X134222400Y-99749200D01*
G75*
G02*
X134397800Y-99924600I0J-175400D01*
G01*
X134397800Y-100275400D01*
G75*
G02*
X134222400Y-100450800I-175400J0D01*
G01*
G37*
G36*
G01*
X130376634Y-105050800D02*
X129017366Y-105050800D01*
G75*
G02*
X128746200Y-104779634I0J271166D01*
G01*
X128746200Y-104020366D01*
G75*
G02*
X129017366Y-103749200I271166J0D01*
G01*
X130376634Y-103749200D01*
G75*
G02*
X130647800Y-104020366I0J-271166D01*
G01*
X130647800Y-104779634D01*
G75*
G02*
X130376634Y-105050800I-271166J0D01*
G01*
G37*
G36*
G01*
X130376634Y-99450800D02*
X129017366Y-99450800D01*
G75*
G02*
X128746200Y-99179634I0J271166D01*
G01*
X128746200Y-98420366D01*
G75*
G02*
X129017366Y-98149200I271166J0D01*
G01*
X130376634Y-98149200D01*
G75*
G02*
X130647800Y-98420366I0J-271166D01*
G01*
X130647800Y-99179634D01*
G75*
G02*
X130376634Y-99450800I-271166J0D01*
G01*
G37*
%TD*%
D12*
%TO.C,SJ1*%
X151688800Y-96520000D03*
X153873200Y-96520000D03*
%TD*%
D13*
%TO.C,U1*%
X140462000Y-107188000D03*
D14*
X158242000Y-99568000D03*
X143002000Y-107188000D03*
X155702000Y-99568000D03*
X145542000Y-107188000D03*
X153162000Y-99568000D03*
X148082000Y-107188000D03*
X150622000Y-99568000D03*
X150622000Y-107188000D03*
X148082000Y-99568000D03*
X153162000Y-107188000D03*
X145542000Y-99568000D03*
X155702000Y-107188000D03*
X143002000Y-99568000D03*
X158242000Y-107188000D03*
X140462000Y-99568000D03*
%TD*%
M02*
