%TF.GenerationSoftware,KiCad,Pcbnew,(5.1.6-0-10_14)*%
%TF.CreationDate,2021-12-02T20:18:07-08:00*%
%TF.ProjectId,NAU7802_Dual_24-bit_ADC_DIP,4e415537-3830-4325-9f44-75616c5f3234,v02_DIP*%
%TF.SameCoordinates,Original*%
%TF.FileFunction,Soldermask,Top*%
%TF.FilePolarity,Negative*%
%FSLAX46Y46*%
G04 Gerber Fmt 4.6, Leading zero omitted, Abs format (unit mm)*
G04 Created by KiCad (PCBNEW (5.1.6-0-10_14)) date 2021-12-02 20:18:07*
%MOMM*%
%LPD*%
G01*
G04 APERTURE LIST*
%ADD10C,1.801600*%
%ADD11C,2.601600*%
%ADD12R,1.701600X1.701600*%
%ADD13O,1.701600X1.701600*%
G04 APERTURE END LIST*
%TO.C,R7*%
G36*
G01*
X148563650Y-95231800D02*
X147600350Y-95231800D01*
G75*
G02*
X147331200Y-94962650I0J269150D01*
G01*
X147331200Y-94424350D01*
G75*
G02*
X147600350Y-94155200I269150J0D01*
G01*
X148563650Y-94155200D01*
G75*
G02*
X148832800Y-94424350I0J-269150D01*
G01*
X148832800Y-94962650D01*
G75*
G02*
X148563650Y-95231800I-269150J0D01*
G01*
G37*
G36*
G01*
X148563650Y-97106800D02*
X147600350Y-97106800D01*
G75*
G02*
X147331200Y-96837650I0J269150D01*
G01*
X147331200Y-96299350D01*
G75*
G02*
X147600350Y-96030200I269150J0D01*
G01*
X148563650Y-96030200D01*
G75*
G02*
X148832800Y-96299350I0J-269150D01*
G01*
X148832800Y-96837650D01*
G75*
G02*
X148563650Y-97106800I-269150J0D01*
G01*
G37*
%TD*%
%TO.C,C4*%
G36*
G01*
X134160200Y-107415650D02*
X134160200Y-106452350D01*
G75*
G02*
X134429350Y-106183200I269150J0D01*
G01*
X134967650Y-106183200D01*
G75*
G02*
X135236800Y-106452350I0J-269150D01*
G01*
X135236800Y-107415650D01*
G75*
G02*
X134967650Y-107684800I-269150J0D01*
G01*
X134429350Y-107684800D01*
G75*
G02*
X134160200Y-107415650I0J269150D01*
G01*
G37*
G36*
G01*
X136035200Y-107415650D02*
X136035200Y-106452350D01*
G75*
G02*
X136304350Y-106183200I269150J0D01*
G01*
X136842650Y-106183200D01*
G75*
G02*
X137111800Y-106452350I0J-269150D01*
G01*
X137111800Y-107415650D01*
G75*
G02*
X136842650Y-107684800I-269150J0D01*
G01*
X136304350Y-107684800D01*
G75*
G02*
X136035200Y-107415650I0J269150D01*
G01*
G37*
%TD*%
D10*
%TO.C,M1*%
X172720000Y-91440000D03*
X170180000Y-91440000D03*
X167640000Y-91440000D03*
X165100000Y-91440000D03*
X162560000Y-91440000D03*
X160020000Y-91440000D03*
X157480000Y-91440000D03*
X154940000Y-91440000D03*
X152400000Y-91440000D03*
X149860000Y-91440000D03*
X147320000Y-91440000D03*
X144780000Y-91440000D03*
X172720000Y-111760000D03*
X170180000Y-111760000D03*
X167640000Y-111760000D03*
X165100000Y-111760000D03*
X162560000Y-111760000D03*
X160020000Y-111760000D03*
X157480000Y-111760000D03*
X154940000Y-111760000D03*
X152400000Y-111760000D03*
X149860000Y-111760000D03*
X147320000Y-111760000D03*
X144780000Y-111760000D03*
X142240000Y-111760000D03*
X139700000Y-111760000D03*
X137160000Y-111760000D03*
X134620000Y-111760000D03*
%TD*%
D11*
%TO.C,REF\u002A\u002A*%
X130810000Y-110490000D03*
%TD*%
%TO.C,REF\u002A\u002A*%
X176530000Y-92710000D03*
%TD*%
%TO.C,REF*%
X176530000Y-110490000D03*
%TD*%
%TO.C,REF\u002A\u002A*%
X130810000Y-92710000D03*
%TD*%
%TO.C,C1*%
G36*
G01*
X162840350Y-103172200D02*
X163803650Y-103172200D01*
G75*
G02*
X164072800Y-103441350I0J-269150D01*
G01*
X164072800Y-103979650D01*
G75*
G02*
X163803650Y-104248800I-269150J0D01*
G01*
X162840350Y-104248800D01*
G75*
G02*
X162571200Y-103979650I0J269150D01*
G01*
X162571200Y-103441350D01*
G75*
G02*
X162840350Y-103172200I269150J0D01*
G01*
G37*
G36*
G01*
X162840350Y-105047200D02*
X163803650Y-105047200D01*
G75*
G02*
X164072800Y-105316350I0J-269150D01*
G01*
X164072800Y-105854650D01*
G75*
G02*
X163803650Y-106123800I-269150J0D01*
G01*
X162840350Y-106123800D01*
G75*
G02*
X162571200Y-105854650I0J269150D01*
G01*
X162571200Y-105316350D01*
G75*
G02*
X162840350Y-105047200I269150J0D01*
G01*
G37*
%TD*%
%TO.C,C2*%
G36*
G01*
X163803650Y-98660800D02*
X162840350Y-98660800D01*
G75*
G02*
X162571200Y-98391650I0J269150D01*
G01*
X162571200Y-97853350D01*
G75*
G02*
X162840350Y-97584200I269150J0D01*
G01*
X163803650Y-97584200D01*
G75*
G02*
X164072800Y-97853350I0J-269150D01*
G01*
X164072800Y-98391650D01*
G75*
G02*
X163803650Y-98660800I-269150J0D01*
G01*
G37*
G36*
G01*
X163803650Y-100535800D02*
X162840350Y-100535800D01*
G75*
G02*
X162571200Y-100266650I0J269150D01*
G01*
X162571200Y-99728350D01*
G75*
G02*
X162840350Y-99459200I269150J0D01*
G01*
X163803650Y-99459200D01*
G75*
G02*
X164072800Y-99728350I0J-269150D01*
G01*
X164072800Y-100266650D01*
G75*
G02*
X163803650Y-100535800I-269150J0D01*
G01*
G37*
%TD*%
%TO.C,C3*%
G36*
G01*
X136035200Y-109701650D02*
X136035200Y-108738350D01*
G75*
G02*
X136304350Y-108469200I269150J0D01*
G01*
X136842650Y-108469200D01*
G75*
G02*
X137111800Y-108738350I0J-269150D01*
G01*
X137111800Y-109701650D01*
G75*
G02*
X136842650Y-109970800I-269150J0D01*
G01*
X136304350Y-109970800D01*
G75*
G02*
X136035200Y-109701650I0J269150D01*
G01*
G37*
G36*
G01*
X134160200Y-109701650D02*
X134160200Y-108738350D01*
G75*
G02*
X134429350Y-108469200I269150J0D01*
G01*
X134967650Y-108469200D01*
G75*
G02*
X135236800Y-108738350I0J-269150D01*
G01*
X135236800Y-109701650D01*
G75*
G02*
X134967650Y-109970800I-269150J0D01*
G01*
X134429350Y-109970800D01*
G75*
G02*
X134160200Y-109701650I0J269150D01*
G01*
G37*
%TD*%
%TO.C,C5*%
G36*
G01*
X168185150Y-108122300D02*
X167221850Y-108122300D01*
G75*
G02*
X166952700Y-107853150I0J269150D01*
G01*
X166952700Y-107314850D01*
G75*
G02*
X167221850Y-107045700I269150J0D01*
G01*
X168185150Y-107045700D01*
G75*
G02*
X168454300Y-107314850I0J-269150D01*
G01*
X168454300Y-107853150D01*
G75*
G02*
X168185150Y-108122300I-269150J0D01*
G01*
G37*
G36*
G01*
X168185150Y-109997300D02*
X167221850Y-109997300D01*
G75*
G02*
X166952700Y-109728150I0J269150D01*
G01*
X166952700Y-109189850D01*
G75*
G02*
X167221850Y-108920700I269150J0D01*
G01*
X168185150Y-108920700D01*
G75*
G02*
X168454300Y-109189850I0J-269150D01*
G01*
X168454300Y-109728150D01*
G75*
G02*
X168185150Y-109997300I-269150J0D01*
G01*
G37*
%TD*%
%TO.C,C6*%
G36*
G01*
X165899150Y-109997300D02*
X164935850Y-109997300D01*
G75*
G02*
X164666700Y-109728150I0J269150D01*
G01*
X164666700Y-109189850D01*
G75*
G02*
X164935850Y-108920700I269150J0D01*
G01*
X165899150Y-108920700D01*
G75*
G02*
X166168300Y-109189850I0J-269150D01*
G01*
X166168300Y-109728150D01*
G75*
G02*
X165899150Y-109997300I-269150J0D01*
G01*
G37*
G36*
G01*
X165899150Y-108122300D02*
X164935850Y-108122300D01*
G75*
G02*
X164666700Y-107853150I0J269150D01*
G01*
X164666700Y-107314850D01*
G75*
G02*
X164935850Y-107045700I269150J0D01*
G01*
X165899150Y-107045700D01*
G75*
G02*
X166168300Y-107314850I0J-269150D01*
G01*
X166168300Y-107853150D01*
G75*
G02*
X165899150Y-108122300I-269150J0D01*
G01*
G37*
%TD*%
%TO.C,C7*%
G36*
G01*
X160893700Y-108177650D02*
X160893700Y-107214350D01*
G75*
G02*
X161162850Y-106945200I269150J0D01*
G01*
X161701150Y-106945200D01*
G75*
G02*
X161970300Y-107214350I0J-269150D01*
G01*
X161970300Y-108177650D01*
G75*
G02*
X161701150Y-108446800I-269150J0D01*
G01*
X161162850Y-108446800D01*
G75*
G02*
X160893700Y-108177650I0J269150D01*
G01*
G37*
G36*
G01*
X162768700Y-108177650D02*
X162768700Y-107214350D01*
G75*
G02*
X163037850Y-106945200I269150J0D01*
G01*
X163576150Y-106945200D01*
G75*
G02*
X163845300Y-107214350I0J-269150D01*
G01*
X163845300Y-108177650D01*
G75*
G02*
X163576150Y-108446800I-269150J0D01*
G01*
X163037850Y-108446800D01*
G75*
G02*
X162768700Y-108177650I0J269150D01*
G01*
G37*
%TD*%
%TO.C,D1*%
G36*
G01*
X131874200Y-97001650D02*
X131874200Y-96038350D01*
G75*
G02*
X132143350Y-95769200I269150J0D01*
G01*
X132681650Y-95769200D01*
G75*
G02*
X132950800Y-96038350I0J-269150D01*
G01*
X132950800Y-97001650D01*
G75*
G02*
X132681650Y-97270800I-269150J0D01*
G01*
X132143350Y-97270800D01*
G75*
G02*
X131874200Y-97001650I0J269150D01*
G01*
G37*
G36*
G01*
X133749200Y-97001650D02*
X133749200Y-96038350D01*
G75*
G02*
X134018350Y-95769200I269150J0D01*
G01*
X134556650Y-95769200D01*
G75*
G02*
X134825800Y-96038350I0J-269150D01*
G01*
X134825800Y-97001650D01*
G75*
G02*
X134556650Y-97270800I-269150J0D01*
G01*
X134018350Y-97270800D01*
G75*
G02*
X133749200Y-97001650I0J269150D01*
G01*
G37*
%TD*%
%TO.C,J1*%
G36*
G01*
X172665400Y-105150800D02*
X169614600Y-105150800D01*
G75*
G02*
X169339200Y-104875400I0J275400D01*
G01*
X169339200Y-104324600D01*
G75*
G02*
X169614600Y-104049200I275400J0D01*
G01*
X172665400Y-104049200D01*
G75*
G02*
X172940800Y-104324600I0J-275400D01*
G01*
X172940800Y-104875400D01*
G75*
G02*
X172665400Y-105150800I-275400J0D01*
G01*
G37*
G36*
G01*
X172665400Y-103150800D02*
X169614600Y-103150800D01*
G75*
G02*
X169339200Y-102875400I0J275400D01*
G01*
X169339200Y-102324600D01*
G75*
G02*
X169614600Y-102049200I275400J0D01*
G01*
X172665400Y-102049200D01*
G75*
G02*
X172940800Y-102324600I0J-275400D01*
G01*
X172940800Y-102875400D01*
G75*
G02*
X172665400Y-103150800I-275400J0D01*
G01*
G37*
G36*
G01*
X172665400Y-101150800D02*
X169614600Y-101150800D01*
G75*
G02*
X169339200Y-100875400I0J275400D01*
G01*
X169339200Y-100324600D01*
G75*
G02*
X169614600Y-100049200I275400J0D01*
G01*
X172665400Y-100049200D01*
G75*
G02*
X172940800Y-100324600I0J-275400D01*
G01*
X172940800Y-100875400D01*
G75*
G02*
X172665400Y-101150800I-275400J0D01*
G01*
G37*
G36*
G01*
X172665400Y-99150800D02*
X169614600Y-99150800D01*
G75*
G02*
X169339200Y-98875400I0J275400D01*
G01*
X169339200Y-98324600D01*
G75*
G02*
X169614600Y-98049200I275400J0D01*
G01*
X172665400Y-98049200D01*
G75*
G02*
X172940800Y-98324600I0J-275400D01*
G01*
X172940800Y-98875400D01*
G75*
G02*
X172665400Y-99150800I-275400J0D01*
G01*
G37*
G36*
G01*
X178373867Y-107750800D02*
X175406133Y-107750800D01*
G75*
G02*
X175139200Y-107483867I0J266933D01*
G01*
X175139200Y-106416133D01*
G75*
G02*
X175406133Y-106149200I266933J0D01*
G01*
X178373867Y-106149200D01*
G75*
G02*
X178640800Y-106416133I0J-266933D01*
G01*
X178640800Y-107483867D01*
G75*
G02*
X178373867Y-107750800I-266933J0D01*
G01*
G37*
G36*
G01*
X178373867Y-97050800D02*
X175406133Y-97050800D01*
G75*
G02*
X175139200Y-96783867I0J266933D01*
G01*
X175139200Y-95716133D01*
G75*
G02*
X175406133Y-95449200I266933J0D01*
G01*
X178373867Y-95449200D01*
G75*
G02*
X178640800Y-95716133I0J-266933D01*
G01*
X178640800Y-96783867D01*
G75*
G02*
X178373867Y-97050800I-266933J0D01*
G01*
G37*
%TD*%
%TO.C,J3*%
G36*
G01*
X132921600Y-99749200D02*
X134222400Y-99749200D01*
G75*
G02*
X134397800Y-99924600I0J-175400D01*
G01*
X134397800Y-100275400D01*
G75*
G02*
X134222400Y-100450800I-175400J0D01*
G01*
X132921600Y-100450800D01*
G75*
G02*
X132746200Y-100275400I0J175400D01*
G01*
X132746200Y-99924600D01*
G75*
G02*
X132921600Y-99749200I175400J0D01*
G01*
G37*
G36*
G01*
X132921600Y-100749200D02*
X134222400Y-100749200D01*
G75*
G02*
X134397800Y-100924600I0J-175400D01*
G01*
X134397800Y-101275400D01*
G75*
G02*
X134222400Y-101450800I-175400J0D01*
G01*
X132921600Y-101450800D01*
G75*
G02*
X132746200Y-101275400I0J175400D01*
G01*
X132746200Y-100924600D01*
G75*
G02*
X132921600Y-100749200I175400J0D01*
G01*
G37*
G36*
G01*
X132921600Y-101749200D02*
X134222400Y-101749200D01*
G75*
G02*
X134397800Y-101924600I0J-175400D01*
G01*
X134397800Y-102275400D01*
G75*
G02*
X134222400Y-102450800I-175400J0D01*
G01*
X132921600Y-102450800D01*
G75*
G02*
X132746200Y-102275400I0J175400D01*
G01*
X132746200Y-101924600D01*
G75*
G02*
X132921600Y-101749200I175400J0D01*
G01*
G37*
G36*
G01*
X132921600Y-102749200D02*
X134222400Y-102749200D01*
G75*
G02*
X134397800Y-102924600I0J-175400D01*
G01*
X134397800Y-103275400D01*
G75*
G02*
X134222400Y-103450800I-175400J0D01*
G01*
X132921600Y-103450800D01*
G75*
G02*
X132746200Y-103275400I0J175400D01*
G01*
X132746200Y-102924600D01*
G75*
G02*
X132921600Y-102749200I175400J0D01*
G01*
G37*
G36*
G01*
X129017366Y-98149200D02*
X130376634Y-98149200D01*
G75*
G02*
X130647800Y-98420366I0J-271166D01*
G01*
X130647800Y-99179634D01*
G75*
G02*
X130376634Y-99450800I-271166J0D01*
G01*
X129017366Y-99450800D01*
G75*
G02*
X128746200Y-99179634I0J271166D01*
G01*
X128746200Y-98420366D01*
G75*
G02*
X129017366Y-98149200I271166J0D01*
G01*
G37*
G36*
G01*
X129017366Y-103749200D02*
X130376634Y-103749200D01*
G75*
G02*
X130647800Y-104020366I0J-271166D01*
G01*
X130647800Y-104779634D01*
G75*
G02*
X130376634Y-105050800I-271166J0D01*
G01*
X129017366Y-105050800D01*
G75*
G02*
X128746200Y-104779634I0J271166D01*
G01*
X128746200Y-104020366D01*
G75*
G02*
X129017366Y-103749200I271166J0D01*
G01*
G37*
%TD*%
%TO.C,R1*%
G36*
G01*
X164640200Y-103605650D02*
X164640200Y-102642350D01*
G75*
G02*
X164909350Y-102373200I269150J0D01*
G01*
X165447650Y-102373200D01*
G75*
G02*
X165716800Y-102642350I0J-269150D01*
G01*
X165716800Y-103605650D01*
G75*
G02*
X165447650Y-103874800I-269150J0D01*
G01*
X164909350Y-103874800D01*
G75*
G02*
X164640200Y-103605650I0J269150D01*
G01*
G37*
G36*
G01*
X166515200Y-103605650D02*
X166515200Y-102642350D01*
G75*
G02*
X166784350Y-102373200I269150J0D01*
G01*
X167322650Y-102373200D01*
G75*
G02*
X167591800Y-102642350I0J-269150D01*
G01*
X167591800Y-103605650D01*
G75*
G02*
X167322650Y-103874800I-269150J0D01*
G01*
X166784350Y-103874800D01*
G75*
G02*
X166515200Y-103605650I0J269150D01*
G01*
G37*
%TD*%
%TO.C,R2*%
G36*
G01*
X166515200Y-105891650D02*
X166515200Y-104928350D01*
G75*
G02*
X166784350Y-104659200I269150J0D01*
G01*
X167322650Y-104659200D01*
G75*
G02*
X167591800Y-104928350I0J-269150D01*
G01*
X167591800Y-105891650D01*
G75*
G02*
X167322650Y-106160800I-269150J0D01*
G01*
X166784350Y-106160800D01*
G75*
G02*
X166515200Y-105891650I0J269150D01*
G01*
G37*
G36*
G01*
X164640200Y-105891650D02*
X164640200Y-104928350D01*
G75*
G02*
X164909350Y-104659200I269150J0D01*
G01*
X165447650Y-104659200D01*
G75*
G02*
X165716800Y-104928350I0J-269150D01*
G01*
X165716800Y-105891650D01*
G75*
G02*
X165447650Y-106160800I-269150J0D01*
G01*
X164909350Y-106160800D01*
G75*
G02*
X164640200Y-105891650I0J269150D01*
G01*
G37*
%TD*%
%TO.C,R3*%
G36*
G01*
X164640200Y-100303650D02*
X164640200Y-99340350D01*
G75*
G02*
X164909350Y-99071200I269150J0D01*
G01*
X165447650Y-99071200D01*
G75*
G02*
X165716800Y-99340350I0J-269150D01*
G01*
X165716800Y-100303650D01*
G75*
G02*
X165447650Y-100572800I-269150J0D01*
G01*
X164909350Y-100572800D01*
G75*
G02*
X164640200Y-100303650I0J269150D01*
G01*
G37*
G36*
G01*
X166515200Y-100303650D02*
X166515200Y-99340350D01*
G75*
G02*
X166784350Y-99071200I269150J0D01*
G01*
X167322650Y-99071200D01*
G75*
G02*
X167591800Y-99340350I0J-269150D01*
G01*
X167591800Y-100303650D01*
G75*
G02*
X167322650Y-100572800I-269150J0D01*
G01*
X166784350Y-100572800D01*
G75*
G02*
X166515200Y-100303650I0J269150D01*
G01*
G37*
%TD*%
%TO.C,R4*%
G36*
G01*
X166515200Y-98017650D02*
X166515200Y-97054350D01*
G75*
G02*
X166784350Y-96785200I269150J0D01*
G01*
X167322650Y-96785200D01*
G75*
G02*
X167591800Y-97054350I0J-269150D01*
G01*
X167591800Y-98017650D01*
G75*
G02*
X167322650Y-98286800I-269150J0D01*
G01*
X166784350Y-98286800D01*
G75*
G02*
X166515200Y-98017650I0J269150D01*
G01*
G37*
G36*
G01*
X164640200Y-98017650D02*
X164640200Y-97054350D01*
G75*
G02*
X164909350Y-96785200I269150J0D01*
G01*
X165447650Y-96785200D01*
G75*
G02*
X165716800Y-97054350I0J-269150D01*
G01*
X165716800Y-98017650D01*
G75*
G02*
X165447650Y-98286800I-269150J0D01*
G01*
X164909350Y-98286800D01*
G75*
G02*
X164640200Y-98017650I0J269150D01*
G01*
G37*
%TD*%
%TO.C,R5*%
G36*
G01*
X140637200Y-95985650D02*
X140637200Y-95022350D01*
G75*
G02*
X140906350Y-94753200I269150J0D01*
G01*
X141444650Y-94753200D01*
G75*
G02*
X141713800Y-95022350I0J-269150D01*
G01*
X141713800Y-95985650D01*
G75*
G02*
X141444650Y-96254800I-269150J0D01*
G01*
X140906350Y-96254800D01*
G75*
G02*
X140637200Y-95985650I0J269150D01*
G01*
G37*
G36*
G01*
X142512200Y-95985650D02*
X142512200Y-95022350D01*
G75*
G02*
X142781350Y-94753200I269150J0D01*
G01*
X143319650Y-94753200D01*
G75*
G02*
X143588800Y-95022350I0J-269150D01*
G01*
X143588800Y-95985650D01*
G75*
G02*
X143319650Y-96254800I-269150J0D01*
G01*
X142781350Y-96254800D01*
G75*
G02*
X142512200Y-95985650I0J269150D01*
G01*
G37*
%TD*%
%TO.C,R6*%
G36*
G01*
X145515650Y-97106800D02*
X144552350Y-97106800D01*
G75*
G02*
X144283200Y-96837650I0J269150D01*
G01*
X144283200Y-96299350D01*
G75*
G02*
X144552350Y-96030200I269150J0D01*
G01*
X145515650Y-96030200D01*
G75*
G02*
X145784800Y-96299350I0J-269150D01*
G01*
X145784800Y-96837650D01*
G75*
G02*
X145515650Y-97106800I-269150J0D01*
G01*
G37*
G36*
G01*
X145515650Y-95231800D02*
X144552350Y-95231800D01*
G75*
G02*
X144283200Y-94962650I0J269150D01*
G01*
X144283200Y-94424350D01*
G75*
G02*
X144552350Y-94155200I269150J0D01*
G01*
X145515650Y-94155200D01*
G75*
G02*
X145784800Y-94424350I0J-269150D01*
G01*
X145784800Y-94962650D01*
G75*
G02*
X145515650Y-95231800I-269150J0D01*
G01*
G37*
%TD*%
D12*
%TO.C,U1*%
X140462000Y-107188000D03*
D13*
X158242000Y-99568000D03*
X143002000Y-107188000D03*
X155702000Y-99568000D03*
X145542000Y-107188000D03*
X153162000Y-99568000D03*
X148082000Y-107188000D03*
X150622000Y-99568000D03*
X150622000Y-107188000D03*
X148082000Y-99568000D03*
X153162000Y-107188000D03*
X145542000Y-99568000D03*
X155702000Y-107188000D03*
X143002000Y-99568000D03*
X158242000Y-107188000D03*
X140462000Y-99568000D03*
%TD*%
M02*
