M48
; DRILL file {KiCad (5.1.6-0-10_14)} date Wednesday, December 01, 2021 at 07:00:31 PM
; FORMAT={-:-/ absolute / inch / decimal}
; #@! TF.CreationDate,2021-12-01T19:00:31-08:00
; #@! TF.GenerationSoftware,Kicad,Pcbnew,(5.1.6-0-10_14)
; #@! TF.FileFunction,Plated,1,2,PTH
FMAT,2
INCH
T1C0.0130
T2C0.0200
T3C0.0315
T4C0.0394
%
G90
G05
T1
X5.13Y-4.0
X5.2Y-4.2
X5.3Y-3.655
X5.33Y-4.02
X5.35Y-3.94
X5.4Y-3.89
X5.4Y-4.12
X5.45Y-4.12
X5.53Y-4.05
X5.79Y-3.73
X5.85Y-4.05
X6.15Y-4.06
X6.198Y-4.06
X6.27Y-3.92
X6.29Y-4.23
X6.42Y-3.78
X6.425Y-3.995
X6.54Y-4.23
X6.59Y-3.84
X6.6Y-3.88
X6.8Y-4.3
X6.85Y-3.7
X6.875Y-4.05
X7.0Y-3.9
X7.0Y-4.1
T2
X5.26Y-3.88
X6.083Y-3.767
T3
X5.49Y-3.92
X5.49Y-4.22
X5.59Y-3.92
X5.59Y-4.22
X5.69Y-3.92
X5.69Y-4.22
X5.79Y-3.92
X5.79Y-4.22
X5.89Y-3.92
X5.89Y-4.22
X5.99Y-3.92
X5.99Y-4.22
X6.09Y-3.92
X6.09Y-4.22
X6.19Y-3.92
X6.19Y-4.22
T4
X5.3Y-4.4
X5.4Y-4.4
X5.5Y-4.4
X5.6Y-4.4
X5.7Y-3.6
X5.7Y-4.4
X5.8Y-3.6
X5.8Y-4.4
X5.9Y-3.6
X5.9Y-4.4
X6.0Y-3.6
X6.0Y-4.4
X6.1Y-3.6
X6.1Y-4.4
X6.2Y-3.6
X6.2Y-4.4
X6.3Y-3.6
X6.3Y-4.4
X6.4Y-3.6
X6.4Y-4.4
X6.5Y-3.6
X6.5Y-4.4
X6.6Y-3.6
X6.6Y-4.4
X6.7Y-3.6
X6.7Y-4.4
X6.8Y-3.6
X6.8Y-4.4
T0
M30
