%TF.GenerationSoftware,KiCad,Pcbnew,(5.1.6-0-10_14)*%
%TF.CreationDate,2021-12-01T19:00:34-08:00*%
%TF.ProjectId,NAU7802_Dual_24-bit_ADC_DIP,4e415537-3830-4325-9f44-75616c5f3234,v02_DIP*%
%TF.SameCoordinates,Original*%
%TF.FileFunction,Soldermask,Top*%
%TF.FilePolarity,Negative*%
%FSLAX46Y46*%
G04 Gerber Fmt 4.6, Leading zero omitted, Abs format (unit mm)*
G04 Created by KiCad (PCBNEW (5.1.6-0-10_14)) date 2021-12-01 19:00:34*
%MOMM*%
%LPD*%
G01*
G04 APERTURE LIST*
%ADD10C,1.801600*%
%ADD11C,2.601600*%
%ADD12R,1.701600X1.701600*%
%ADD13O,1.701600X1.701600*%
G04 APERTURE END LIST*
%TO.C,C4*%
G36*
G01*
X134160200Y-107415650D02*
X134160200Y-106452350D01*
G75*
G02*
X134429350Y-106183200I269150J0D01*
G01*
X134967650Y-106183200D01*
G75*
G02*
X135236800Y-106452350I0J-269150D01*
G01*
X135236800Y-107415650D01*
G75*
G02*
X134967650Y-107684800I-269150J0D01*
G01*
X134429350Y-107684800D01*
G75*
G02*
X134160200Y-107415650I0J269150D01*
G01*
G37*
G36*
G01*
X136035200Y-107415650D02*
X136035200Y-106452350D01*
G75*
G02*
X136304350Y-106183200I269150J0D01*
G01*
X136842650Y-106183200D01*
G75*
G02*
X137111800Y-106452350I0J-269150D01*
G01*
X137111800Y-107415650D01*
G75*
G02*
X136842650Y-107684800I-269150J0D01*
G01*
X136304350Y-107684800D01*
G75*
G02*
X136035200Y-107415650I0J269150D01*
G01*
G37*
%TD*%
D10*
%TO.C,M1*%
X172720000Y-91440000D03*
X170180000Y-91440000D03*
X167640000Y-91440000D03*
X165100000Y-91440000D03*
X162560000Y-91440000D03*
X160020000Y-91440000D03*
X157480000Y-91440000D03*
X154940000Y-91440000D03*
X152400000Y-91440000D03*
X149860000Y-91440000D03*
X147320000Y-91440000D03*
X144780000Y-91440000D03*
X172720000Y-111760000D03*
X170180000Y-111760000D03*
X167640000Y-111760000D03*
X165100000Y-111760000D03*
X162560000Y-111760000D03*
X160020000Y-111760000D03*
X157480000Y-111760000D03*
X154940000Y-111760000D03*
X152400000Y-111760000D03*
X149860000Y-111760000D03*
X147320000Y-111760000D03*
X144780000Y-111760000D03*
X142240000Y-111760000D03*
X139700000Y-111760000D03*
X137160000Y-111760000D03*
X134620000Y-111760000D03*
%TD*%
D11*
%TO.C,REF\u002A\u002A*%
X130810000Y-110490000D03*
%TD*%
%TO.C,REF\u002A\u002A*%
X176530000Y-92710000D03*
%TD*%
%TO.C,REF*%
X176530000Y-110490000D03*
%TD*%
%TO.C,REF\u002A\u002A*%
X130810000Y-92710000D03*
%TD*%
%TO.C,C1*%
G36*
G01*
X160554350Y-103299200D02*
X161517650Y-103299200D01*
G75*
G02*
X161786800Y-103568350I0J-269150D01*
G01*
X161786800Y-104106650D01*
G75*
G02*
X161517650Y-104375800I-269150J0D01*
G01*
X160554350Y-104375800D01*
G75*
G02*
X160285200Y-104106650I0J269150D01*
G01*
X160285200Y-103568350D01*
G75*
G02*
X160554350Y-103299200I269150J0D01*
G01*
G37*
G36*
G01*
X160554350Y-105174200D02*
X161517650Y-105174200D01*
G75*
G02*
X161786800Y-105443350I0J-269150D01*
G01*
X161786800Y-105981650D01*
G75*
G02*
X161517650Y-106250800I-269150J0D01*
G01*
X160554350Y-106250800D01*
G75*
G02*
X160285200Y-105981650I0J269150D01*
G01*
X160285200Y-105443350D01*
G75*
G02*
X160554350Y-105174200I269150J0D01*
G01*
G37*
%TD*%
%TO.C,C2*%
G36*
G01*
X161517650Y-100438800D02*
X160554350Y-100438800D01*
G75*
G02*
X160285200Y-100169650I0J269150D01*
G01*
X160285200Y-99631350D01*
G75*
G02*
X160554350Y-99362200I269150J0D01*
G01*
X161517650Y-99362200D01*
G75*
G02*
X161786800Y-99631350I0J-269150D01*
G01*
X161786800Y-100169650D01*
G75*
G02*
X161517650Y-100438800I-269150J0D01*
G01*
G37*
G36*
G01*
X161517650Y-102313800D02*
X160554350Y-102313800D01*
G75*
G02*
X160285200Y-102044650I0J269150D01*
G01*
X160285200Y-101506350D01*
G75*
G02*
X160554350Y-101237200I269150J0D01*
G01*
X161517650Y-101237200D01*
G75*
G02*
X161786800Y-101506350I0J-269150D01*
G01*
X161786800Y-102044650D01*
G75*
G02*
X161517650Y-102313800I-269150J0D01*
G01*
G37*
%TD*%
%TO.C,C3*%
G36*
G01*
X136035200Y-109701650D02*
X136035200Y-108738350D01*
G75*
G02*
X136304350Y-108469200I269150J0D01*
G01*
X136842650Y-108469200D01*
G75*
G02*
X137111800Y-108738350I0J-269150D01*
G01*
X137111800Y-109701650D01*
G75*
G02*
X136842650Y-109970800I-269150J0D01*
G01*
X136304350Y-109970800D01*
G75*
G02*
X136035200Y-109701650I0J269150D01*
G01*
G37*
G36*
G01*
X134160200Y-109701650D02*
X134160200Y-108738350D01*
G75*
G02*
X134429350Y-108469200I269150J0D01*
G01*
X134967650Y-108469200D01*
G75*
G02*
X135236800Y-108738350I0J-269150D01*
G01*
X135236800Y-109701650D01*
G75*
G02*
X134967650Y-109970800I-269150J0D01*
G01*
X134429350Y-109970800D01*
G75*
G02*
X134160200Y-109701650I0J269150D01*
G01*
G37*
%TD*%
%TO.C,C5*%
G36*
G01*
X168547200Y-109701650D02*
X168547200Y-108738350D01*
G75*
G02*
X168816350Y-108469200I269150J0D01*
G01*
X169354650Y-108469200D01*
G75*
G02*
X169623800Y-108738350I0J-269150D01*
G01*
X169623800Y-109701650D01*
G75*
G02*
X169354650Y-109970800I-269150J0D01*
G01*
X168816350Y-109970800D01*
G75*
G02*
X168547200Y-109701650I0J269150D01*
G01*
G37*
G36*
G01*
X166672200Y-109701650D02*
X166672200Y-108738350D01*
G75*
G02*
X166941350Y-108469200I269150J0D01*
G01*
X167479650Y-108469200D01*
G75*
G02*
X167748800Y-108738350I0J-269150D01*
G01*
X167748800Y-109701650D01*
G75*
G02*
X167479650Y-109970800I-269150J0D01*
G01*
X166941350Y-109970800D01*
G75*
G02*
X166672200Y-109701650I0J269150D01*
G01*
G37*
%TD*%
%TO.C,C6*%
G36*
G01*
X165305800Y-108738350D02*
X165305800Y-109701650D01*
G75*
G02*
X165036650Y-109970800I-269150J0D01*
G01*
X164498350Y-109970800D01*
G75*
G02*
X164229200Y-109701650I0J269150D01*
G01*
X164229200Y-108738350D01*
G75*
G02*
X164498350Y-108469200I269150J0D01*
G01*
X165036650Y-108469200D01*
G75*
G02*
X165305800Y-108738350I0J-269150D01*
G01*
G37*
G36*
G01*
X163430800Y-108738350D02*
X163430800Y-109701650D01*
G75*
G02*
X163161650Y-109970800I-269150J0D01*
G01*
X162623350Y-109970800D01*
G75*
G02*
X162354200Y-109701650I0J269150D01*
G01*
X162354200Y-108738350D01*
G75*
G02*
X162623350Y-108469200I269150J0D01*
G01*
X163161650Y-108469200D01*
G75*
G02*
X163430800Y-108738350I0J-269150D01*
G01*
G37*
%TD*%
%TO.C,C7*%
G36*
G01*
X159306200Y-98017650D02*
X159306200Y-97054350D01*
G75*
G02*
X159575350Y-96785200I269150J0D01*
G01*
X160113650Y-96785200D01*
G75*
G02*
X160382800Y-97054350I0J-269150D01*
G01*
X160382800Y-98017650D01*
G75*
G02*
X160113650Y-98286800I-269150J0D01*
G01*
X159575350Y-98286800D01*
G75*
G02*
X159306200Y-98017650I0J269150D01*
G01*
G37*
G36*
G01*
X161181200Y-98017650D02*
X161181200Y-97054350D01*
G75*
G02*
X161450350Y-96785200I269150J0D01*
G01*
X161988650Y-96785200D01*
G75*
G02*
X162257800Y-97054350I0J-269150D01*
G01*
X162257800Y-98017650D01*
G75*
G02*
X161988650Y-98286800I-269150J0D01*
G01*
X161450350Y-98286800D01*
G75*
G02*
X161181200Y-98017650I0J269150D01*
G01*
G37*
%TD*%
%TO.C,D1*%
G36*
G01*
X131874200Y-97001650D02*
X131874200Y-96038350D01*
G75*
G02*
X132143350Y-95769200I269150J0D01*
G01*
X132681650Y-95769200D01*
G75*
G02*
X132950800Y-96038350I0J-269150D01*
G01*
X132950800Y-97001650D01*
G75*
G02*
X132681650Y-97270800I-269150J0D01*
G01*
X132143350Y-97270800D01*
G75*
G02*
X131874200Y-97001650I0J269150D01*
G01*
G37*
G36*
G01*
X133749200Y-97001650D02*
X133749200Y-96038350D01*
G75*
G02*
X134018350Y-95769200I269150J0D01*
G01*
X134556650Y-95769200D01*
G75*
G02*
X134825800Y-96038350I0J-269150D01*
G01*
X134825800Y-97001650D01*
G75*
G02*
X134556650Y-97270800I-269150J0D01*
G01*
X134018350Y-97270800D01*
G75*
G02*
X133749200Y-97001650I0J269150D01*
G01*
G37*
%TD*%
%TO.C,J1*%
G36*
G01*
X172665400Y-105150800D02*
X169614600Y-105150800D01*
G75*
G02*
X169339200Y-104875400I0J275400D01*
G01*
X169339200Y-104324600D01*
G75*
G02*
X169614600Y-104049200I275400J0D01*
G01*
X172665400Y-104049200D01*
G75*
G02*
X172940800Y-104324600I0J-275400D01*
G01*
X172940800Y-104875400D01*
G75*
G02*
X172665400Y-105150800I-275400J0D01*
G01*
G37*
G36*
G01*
X172665400Y-103150800D02*
X169614600Y-103150800D01*
G75*
G02*
X169339200Y-102875400I0J275400D01*
G01*
X169339200Y-102324600D01*
G75*
G02*
X169614600Y-102049200I275400J0D01*
G01*
X172665400Y-102049200D01*
G75*
G02*
X172940800Y-102324600I0J-275400D01*
G01*
X172940800Y-102875400D01*
G75*
G02*
X172665400Y-103150800I-275400J0D01*
G01*
G37*
G36*
G01*
X172665400Y-101150800D02*
X169614600Y-101150800D01*
G75*
G02*
X169339200Y-100875400I0J275400D01*
G01*
X169339200Y-100324600D01*
G75*
G02*
X169614600Y-100049200I275400J0D01*
G01*
X172665400Y-100049200D01*
G75*
G02*
X172940800Y-100324600I0J-275400D01*
G01*
X172940800Y-100875400D01*
G75*
G02*
X172665400Y-101150800I-275400J0D01*
G01*
G37*
G36*
G01*
X172665400Y-99150800D02*
X169614600Y-99150800D01*
G75*
G02*
X169339200Y-98875400I0J275400D01*
G01*
X169339200Y-98324600D01*
G75*
G02*
X169614600Y-98049200I275400J0D01*
G01*
X172665400Y-98049200D01*
G75*
G02*
X172940800Y-98324600I0J-275400D01*
G01*
X172940800Y-98875400D01*
G75*
G02*
X172665400Y-99150800I-275400J0D01*
G01*
G37*
G36*
G01*
X178373867Y-107750800D02*
X175406133Y-107750800D01*
G75*
G02*
X175139200Y-107483867I0J266933D01*
G01*
X175139200Y-106416133D01*
G75*
G02*
X175406133Y-106149200I266933J0D01*
G01*
X178373867Y-106149200D01*
G75*
G02*
X178640800Y-106416133I0J-266933D01*
G01*
X178640800Y-107483867D01*
G75*
G02*
X178373867Y-107750800I-266933J0D01*
G01*
G37*
G36*
G01*
X178373867Y-97050800D02*
X175406133Y-97050800D01*
G75*
G02*
X175139200Y-96783867I0J266933D01*
G01*
X175139200Y-95716133D01*
G75*
G02*
X175406133Y-95449200I266933J0D01*
G01*
X178373867Y-95449200D01*
G75*
G02*
X178640800Y-95716133I0J-266933D01*
G01*
X178640800Y-96783867D01*
G75*
G02*
X178373867Y-97050800I-266933J0D01*
G01*
G37*
%TD*%
%TO.C,J3*%
G36*
G01*
X132921600Y-99749200D02*
X134222400Y-99749200D01*
G75*
G02*
X134397800Y-99924600I0J-175400D01*
G01*
X134397800Y-100275400D01*
G75*
G02*
X134222400Y-100450800I-175400J0D01*
G01*
X132921600Y-100450800D01*
G75*
G02*
X132746200Y-100275400I0J175400D01*
G01*
X132746200Y-99924600D01*
G75*
G02*
X132921600Y-99749200I175400J0D01*
G01*
G37*
G36*
G01*
X132921600Y-100749200D02*
X134222400Y-100749200D01*
G75*
G02*
X134397800Y-100924600I0J-175400D01*
G01*
X134397800Y-101275400D01*
G75*
G02*
X134222400Y-101450800I-175400J0D01*
G01*
X132921600Y-101450800D01*
G75*
G02*
X132746200Y-101275400I0J175400D01*
G01*
X132746200Y-100924600D01*
G75*
G02*
X132921600Y-100749200I175400J0D01*
G01*
G37*
G36*
G01*
X132921600Y-101749200D02*
X134222400Y-101749200D01*
G75*
G02*
X134397800Y-101924600I0J-175400D01*
G01*
X134397800Y-102275400D01*
G75*
G02*
X134222400Y-102450800I-175400J0D01*
G01*
X132921600Y-102450800D01*
G75*
G02*
X132746200Y-102275400I0J175400D01*
G01*
X132746200Y-101924600D01*
G75*
G02*
X132921600Y-101749200I175400J0D01*
G01*
G37*
G36*
G01*
X132921600Y-102749200D02*
X134222400Y-102749200D01*
G75*
G02*
X134397800Y-102924600I0J-175400D01*
G01*
X134397800Y-103275400D01*
G75*
G02*
X134222400Y-103450800I-175400J0D01*
G01*
X132921600Y-103450800D01*
G75*
G02*
X132746200Y-103275400I0J175400D01*
G01*
X132746200Y-102924600D01*
G75*
G02*
X132921600Y-102749200I175400J0D01*
G01*
G37*
G36*
G01*
X129017366Y-98149200D02*
X130376634Y-98149200D01*
G75*
G02*
X130647800Y-98420366I0J-271166D01*
G01*
X130647800Y-99179634D01*
G75*
G02*
X130376634Y-99450800I-271166J0D01*
G01*
X129017366Y-99450800D01*
G75*
G02*
X128746200Y-99179634I0J271166D01*
G01*
X128746200Y-98420366D01*
G75*
G02*
X129017366Y-98149200I271166J0D01*
G01*
G37*
G36*
G01*
X129017366Y-103749200D02*
X130376634Y-103749200D01*
G75*
G02*
X130647800Y-104020366I0J-271166D01*
G01*
X130647800Y-104779634D01*
G75*
G02*
X130376634Y-105050800I-271166J0D01*
G01*
X129017366Y-105050800D01*
G75*
G02*
X128746200Y-104779634I0J271166D01*
G01*
X128746200Y-104020366D01*
G75*
G02*
X129017366Y-103749200I271166J0D01*
G01*
G37*
%TD*%
%TO.C,R1*%
G36*
G01*
X163624200Y-103605650D02*
X163624200Y-102642350D01*
G75*
G02*
X163893350Y-102373200I269150J0D01*
G01*
X164431650Y-102373200D01*
G75*
G02*
X164700800Y-102642350I0J-269150D01*
G01*
X164700800Y-103605650D01*
G75*
G02*
X164431650Y-103874800I-269150J0D01*
G01*
X163893350Y-103874800D01*
G75*
G02*
X163624200Y-103605650I0J269150D01*
G01*
G37*
G36*
G01*
X165499200Y-103605650D02*
X165499200Y-102642350D01*
G75*
G02*
X165768350Y-102373200I269150J0D01*
G01*
X166306650Y-102373200D01*
G75*
G02*
X166575800Y-102642350I0J-269150D01*
G01*
X166575800Y-103605650D01*
G75*
G02*
X166306650Y-103874800I-269150J0D01*
G01*
X165768350Y-103874800D01*
G75*
G02*
X165499200Y-103605650I0J269150D01*
G01*
G37*
%TD*%
%TO.C,R2*%
G36*
G01*
X165499200Y-105891650D02*
X165499200Y-104928350D01*
G75*
G02*
X165768350Y-104659200I269150J0D01*
G01*
X166306650Y-104659200D01*
G75*
G02*
X166575800Y-104928350I0J-269150D01*
G01*
X166575800Y-105891650D01*
G75*
G02*
X166306650Y-106160800I-269150J0D01*
G01*
X165768350Y-106160800D01*
G75*
G02*
X165499200Y-105891650I0J269150D01*
G01*
G37*
G36*
G01*
X163624200Y-105891650D02*
X163624200Y-104928350D01*
G75*
G02*
X163893350Y-104659200I269150J0D01*
G01*
X164431650Y-104659200D01*
G75*
G02*
X164700800Y-104928350I0J-269150D01*
G01*
X164700800Y-105891650D01*
G75*
G02*
X164431650Y-106160800I-269150J0D01*
G01*
X163893350Y-106160800D01*
G75*
G02*
X163624200Y-105891650I0J269150D01*
G01*
G37*
%TD*%
%TO.C,R3*%
G36*
G01*
X163624200Y-100303650D02*
X163624200Y-99340350D01*
G75*
G02*
X163893350Y-99071200I269150J0D01*
G01*
X164431650Y-99071200D01*
G75*
G02*
X164700800Y-99340350I0J-269150D01*
G01*
X164700800Y-100303650D01*
G75*
G02*
X164431650Y-100572800I-269150J0D01*
G01*
X163893350Y-100572800D01*
G75*
G02*
X163624200Y-100303650I0J269150D01*
G01*
G37*
G36*
G01*
X165499200Y-100303650D02*
X165499200Y-99340350D01*
G75*
G02*
X165768350Y-99071200I269150J0D01*
G01*
X166306650Y-99071200D01*
G75*
G02*
X166575800Y-99340350I0J-269150D01*
G01*
X166575800Y-100303650D01*
G75*
G02*
X166306650Y-100572800I-269150J0D01*
G01*
X165768350Y-100572800D01*
G75*
G02*
X165499200Y-100303650I0J269150D01*
G01*
G37*
%TD*%
%TO.C,R4*%
G36*
G01*
X165499200Y-98017650D02*
X165499200Y-97054350D01*
G75*
G02*
X165768350Y-96785200I269150J0D01*
G01*
X166306650Y-96785200D01*
G75*
G02*
X166575800Y-97054350I0J-269150D01*
G01*
X166575800Y-98017650D01*
G75*
G02*
X166306650Y-98286800I-269150J0D01*
G01*
X165768350Y-98286800D01*
G75*
G02*
X165499200Y-98017650I0J269150D01*
G01*
G37*
G36*
G01*
X163624200Y-98017650D02*
X163624200Y-97054350D01*
G75*
G02*
X163893350Y-96785200I269150J0D01*
G01*
X164431650Y-96785200D01*
G75*
G02*
X164700800Y-97054350I0J-269150D01*
G01*
X164700800Y-98017650D01*
G75*
G02*
X164431650Y-98286800I-269150J0D01*
G01*
X163893350Y-98286800D01*
G75*
G02*
X163624200Y-98017650I0J269150D01*
G01*
G37*
%TD*%
%TO.C,R5*%
G36*
G01*
X137716200Y-95223650D02*
X137716200Y-94260350D01*
G75*
G02*
X137985350Y-93991200I269150J0D01*
G01*
X138523650Y-93991200D01*
G75*
G02*
X138792800Y-94260350I0J-269150D01*
G01*
X138792800Y-95223650D01*
G75*
G02*
X138523650Y-95492800I-269150J0D01*
G01*
X137985350Y-95492800D01*
G75*
G02*
X137716200Y-95223650I0J269150D01*
G01*
G37*
G36*
G01*
X139591200Y-95223650D02*
X139591200Y-94260350D01*
G75*
G02*
X139860350Y-93991200I269150J0D01*
G01*
X140398650Y-93991200D01*
G75*
G02*
X140667800Y-94260350I0J-269150D01*
G01*
X140667800Y-95223650D01*
G75*
G02*
X140398650Y-95492800I-269150J0D01*
G01*
X139860350Y-95492800D01*
G75*
G02*
X139591200Y-95223650I0J269150D01*
G01*
G37*
%TD*%
%TO.C,R6*%
G36*
G01*
X144985800Y-96292350D02*
X144985800Y-97255650D01*
G75*
G02*
X144716650Y-97524800I-269150J0D01*
G01*
X144178350Y-97524800D01*
G75*
G02*
X143909200Y-97255650I0J269150D01*
G01*
X143909200Y-96292350D01*
G75*
G02*
X144178350Y-96023200I269150J0D01*
G01*
X144716650Y-96023200D01*
G75*
G02*
X144985800Y-96292350I0J-269150D01*
G01*
G37*
G36*
G01*
X143110800Y-96292350D02*
X143110800Y-97255650D01*
G75*
G02*
X142841650Y-97524800I-269150J0D01*
G01*
X142303350Y-97524800D01*
G75*
G02*
X142034200Y-97255650I0J269150D01*
G01*
X142034200Y-96292350D01*
G75*
G02*
X142303350Y-96023200I269150J0D01*
G01*
X142841650Y-96023200D01*
G75*
G02*
X143110800Y-96292350I0J-269150D01*
G01*
G37*
%TD*%
%TO.C,R7*%
G36*
G01*
X143110800Y-94260350D02*
X143110800Y-95223650D01*
G75*
G02*
X142841650Y-95492800I-269150J0D01*
G01*
X142303350Y-95492800D01*
G75*
G02*
X142034200Y-95223650I0J269150D01*
G01*
X142034200Y-94260350D01*
G75*
G02*
X142303350Y-93991200I269150J0D01*
G01*
X142841650Y-93991200D01*
G75*
G02*
X143110800Y-94260350I0J-269150D01*
G01*
G37*
G36*
G01*
X144985800Y-94260350D02*
X144985800Y-95223650D01*
G75*
G02*
X144716650Y-95492800I-269150J0D01*
G01*
X144178350Y-95492800D01*
G75*
G02*
X143909200Y-95223650I0J269150D01*
G01*
X143909200Y-94260350D01*
G75*
G02*
X144178350Y-93991200I269150J0D01*
G01*
X144716650Y-93991200D01*
G75*
G02*
X144985800Y-94260350I0J-269150D01*
G01*
G37*
%TD*%
D12*
%TO.C,U1*%
X139446000Y-107188000D03*
D13*
X157226000Y-99568000D03*
X141986000Y-107188000D03*
X154686000Y-99568000D03*
X144526000Y-107188000D03*
X152146000Y-99568000D03*
X147066000Y-107188000D03*
X149606000Y-99568000D03*
X149606000Y-107188000D03*
X147066000Y-99568000D03*
X152146000Y-107188000D03*
X144526000Y-99568000D03*
X154686000Y-107188000D03*
X141986000Y-99568000D03*
X157226000Y-107188000D03*
X139446000Y-99568000D03*
%TD*%
M02*
