M48
; DRILL file {KiCad (5.1.6-0-10_14)} date Wednesday, December 01, 2021 at 11:43:43 PM
; FORMAT={-:-/ absolute / inch / decimal}
; #@! TF.CreationDate,2021-12-01T23:43:43-08:00
; #@! TF.GenerationSoftware,Kicad,Pcbnew,(5.1.6-0-10_14)
; #@! TF.FileFunction,Plated,1,2,PTH
FMAT,2
INCH
T1C0.0130
T2C0.0200
T3C0.0315
T4C0.0394
%
G90
G05
T1
X5.1125Y-4.0
X5.25Y-3.6
X5.25Y-4.2525
X5.33Y-4.02
X5.35Y-3.94
X5.395Y-4.05
X5.425Y-3.9775
X5.45Y-4.05
X5.46Y-4.305
X5.58Y-3.975
X5.595Y-4.15
X5.77Y-3.765
X5.78Y-4.15
X5.98Y-4.15
X6.1825Y-3.975
X6.25Y-3.785
X6.345Y-3.9
X6.36Y-3.785
X6.38Y-3.86
X6.38Y-3.94
X6.625Y-3.995
X6.63Y-3.83
X6.63Y-3.92
X6.635Y-4.175
X6.775Y-4.3
X6.85Y-3.7
X6.875Y-4.05
X7.0Y-3.9
X7.0Y-4.1
T2
X5.26Y-3.88
X6.18Y-3.75
T3
X5.53Y-3.92
X5.53Y-4.22
X5.63Y-3.92
X5.63Y-4.22
X5.73Y-3.92
X5.73Y-4.22
X5.83Y-3.92
X5.83Y-4.22
X5.93Y-3.92
X5.93Y-4.22
X6.03Y-3.92
X6.03Y-4.22
X6.13Y-3.92
X6.13Y-4.22
X6.23Y-3.92
X6.23Y-4.22
T4
X5.3Y-4.4
X5.4Y-4.4
X5.5Y-4.4
X5.6Y-4.4
X5.7Y-3.6
X5.7Y-4.4
X5.8Y-3.6
X5.8Y-4.4
X5.9Y-3.6
X5.9Y-4.4
X6.0Y-3.6
X6.0Y-4.4
X6.1Y-3.6
X6.1Y-4.4
X6.2Y-3.6
X6.2Y-4.4
X6.3Y-3.6
X6.3Y-4.4
X6.4Y-3.6
X6.4Y-4.4
X6.5Y-3.6
X6.5Y-4.4
X6.6Y-3.6
X6.6Y-4.4
X6.7Y-3.6
X6.7Y-4.4
X6.8Y-3.6
X6.8Y-4.4
T0
M30
